<?xml version="1.0" encoding="UTF-8" standalone="no"?><svg xmlns="http://www.w3.org/2000/svg" xmlns:xlink="http://www.w3.org/1999/xlink" clip-rule="evenodd" stroke-miterlimit="4.00" viewBox="0 0 767 54"><desc>SVG generated by Keynote</desc><defs></defs><g transform="matrix(1.00, 0.00, -0.00, -1.00, 0.0, 54.0)"><text xml:space="preserve" font-family="FinancierDisplay-Regular" font-size="60.0" fill="#000000" transform="matrix(1.00, 0.00, -0.00, -1.00, 1.0, 13.0)">D</text><text xml:space="preserve" font-family="FinancierDisplay-Regular" font-size="60.0" fill="#000000" transform="matrix(1.00, 0.00, -0.00, -1.00, 39.5, 13.0)">e</text><text xml:space="preserve" font-family="FinancierDisplay-Regular" font-size="60.0" fill="#000000" transform="matrix(1.00, 0.00, -0.00, -1.00, 62.4, 13.0)">v</text><text xml:space="preserve" font-family="FinancierDisplay-Regular" font-size="60.0" fill="#000000" transform="matrix(1.00, 0.00, -0.00, -1.00, 88.6, 13.0)">e</text><text xml:space="preserve" font-family="FinancierDisplay-Regular" font-size="60.0" fill="#000000" transform="matrix(1.00, 0.00, -0.00, -1.00, 112.8, 13.0)">l</text><text xml:space="preserve" font-family="FinancierDisplay-Regular" font-size="60.0" fill="#000000" transform="matrix(1.00, 0.00, -0.00, -1.00, 126.7, 13.0)">o</text><text xml:space="preserve" font-family="FinancierDisplay-Regular" font-size="60.0" fill="#000000" transform="matrix(1.00, 0.00, -0.00, -1.00, 153.9, 13.0)">p</text><text xml:space="preserve" font-family="FinancierDisplay-Regular" font-size="60.0" fill="#000000" transform="matrix(1.00, 0.00, -0.00, -1.00, 183.2, 13.0)">i</text><text xml:space="preserve" font-family="FinancierDisplay-Regular" font-size="60.0" fill="#000000" transform="matrix(1.00, 0.00, -0.00, -1.00, 197.3, 13.0)">n</text><text xml:space="preserve" font-family="FinancierDisplay-Regular" font-size="60.0" fill="#000000" transform="matrix(1.00, 0.00, -0.00, -1.00, 227.2, 13.0)">g</text><text xml:space="preserve" font-family="FinancierDisplay-Regular" font-size="60.0" fill="#000000" transform="matrix(1.00, 0.00, -0.00, -1.00, 252.2, 13.0)"> </text><text xml:space="preserve" font-family="FinancierDisplay-Regular" font-size="60.0" fill="#000000" transform="matrix(1.00, 0.00, -0.00, -1.00, 262.4, 13.0)">c</text><text xml:space="preserve" font-family="FinancierDisplay-Regular" font-size="60.0" fill="#000000" transform="matrix(1.00, 0.00, -0.00, -1.00, 285.5, 13.0)">r</text><text xml:space="preserve" font-family="FinancierDisplay-Regular" font-size="60.0" fill="#000000" transform="matrix(1.00, 0.00, -0.00, -1.00, 306.2, 13.0)">o</text><text xml:space="preserve" font-family="FinancierDisplay-Regular" font-size="60.0" fill="#000000" transform="matrix(1.00, 0.00, -0.00, -1.00, 333.5, 13.0)">s</text><text xml:space="preserve" font-family="FinancierDisplay-Regular" font-size="60.0" fill="#000000" transform="matrix(1.00, 0.00, -0.00, -1.00, 354.5, 13.0)">s</text><text xml:space="preserve" font-family="FinancierDisplay-Regular" font-size="60.0" fill="#000000" transform="matrix(1.00, 0.00, -0.00, -1.00, 375.6, 13.0)">-</text><text xml:space="preserve" font-family="FinancierDisplay-Regular" font-size="60.0" fill="#000000" transform="matrix(1.00, 0.00, -0.00, -1.00, 391.7, 13.0)">m</text><text xml:space="preserve" font-family="FinancierDisplay-Regular" font-size="60.0" fill="#000000" transform="matrix(1.00, 0.00, -0.00, -1.00, 436.9, 13.0)">e</text><text xml:space="preserve" font-family="FinancierDisplay-Regular" font-size="60.0" fill="#000000" transform="matrix(1.00, 0.00, -0.00, -1.00, 461.1, 13.0)">d</text><text xml:space="preserve" font-family="FinancierDisplay-Regular" font-size="60.0" fill="#000000" transform="matrix(1.00, 0.00, -0.00, -1.00, 490.1, 13.0)">i</text><text xml:space="preserve" font-family="FinancierDisplay-Regular" font-size="60.0" fill="#000000" transform="matrix(1.00, 0.00, -0.00, -1.00, 504.2, 13.0)">a</text><text xml:space="preserve" font-family="FinancierDisplay-Regular" font-size="60.0" fill="#000000" transform="matrix(1.00, 0.00, -0.00, -1.00, 529.0, 13.0)"> </text><text xml:space="preserve" font-family="FinancierDisplay-Regular" font-size="60.0" fill="#000000" transform="matrix(1.00, 0.00, -0.00, -1.00, 539.2, 13.0)">w</text><text xml:space="preserve" font-family="FinancierDisplay-Regular" font-size="60.0" fill="#000000" transform="matrix(1.00, 0.00, -0.00, -1.00, 576.5, 13.0)">o</text><text xml:space="preserve" font-family="FinancierDisplay-Regular" font-size="60.0" fill="#000000" transform="matrix(1.00, 0.00, -0.00, -1.00, 603.7, 13.0)">r</text><text xml:space="preserve" font-family="FinancierDisplay-Regular" font-size="60.0" fill="#000000" transform="matrix(1.00, 0.00, -0.00, -1.00, 624.4, 13.0)">k</text><text xml:space="preserve" font-family="FinancierDisplay-Regular" font-size="60.0" fill="#000000" transform="matrix(1.00, 0.00, -0.00, -1.00, 653.3, 13.0)">ﬂ</text><text xml:space="preserve" font-family="FinancierDisplay-Regular" font-size="60.0" fill="#000000" transform="matrix(1.00, 0.00, -0.00, -1.00, 682.9, 13.0)">o</text><text xml:space="preserve" font-family="FinancierDisplay-Regular" font-size="60.0" fill="#000000" transform="matrix(1.00, 0.00, -0.00, -1.00, 708.3, 13.0)">w</text><text xml:space="preserve" font-family="FinancierDisplay-Regular" font-size="60.0" fill="#000000" transform="matrix(1.00, 0.00, -0.00, -1.00, 746.3, 13.0)">s</text></g></svg>