<?xml version="1.0" encoding="UTF-8" standalone="no"?><svg xmlns="http://www.w3.org/2000/svg" xmlns:xlink="http://www.w3.org/1999/xlink" clip-rule="evenodd" stroke-miterlimit="4.00" viewBox="0 0 1024 768"><desc>SVG generated by Keynote</desc><defs></defs><g transform="matrix(1.00, 0.00, -0.00, -1.00, 0.0, 768.0)"><path d="M 0.0 768.0 L 1024.0 768.0 L 1024.0 0.0 L 0.0 0.0 Z M 0.0 768.0 " fill="#FFF0E0"></path><g><clipPath id="clip-280"><path d="M 910.0 75.0 L 1006.0 75.0 L 1006.0 22.0 L 910.0 22.0 Z M 910.0 75.0 "></path></clipPath><g clip-path="url(#clip-280)"><g><clipPath id="clip-281"><path d="M 910.0 22.0 L 1006.0 22.0 L 1006.0 75.0 L 910.0 75.0 Z M 910.0 22.0 "></path></clipPath><g clip-path="url(#clip-281)"><path d="M 957.3 63.3 L 960.0 63.3 C 960.8 66.1 962.0 68.2 963.4 69.3 C 964.9 70.5 967.0 71.1 969.8 71.1 L 976.3 71.1 L 976.3 30.4 C 976.3 29.0 976.2 27.9 976.0 27.1 C 975.8 26.4 975.4 25.7 974.8 25.3 C 974.2 24.8 973.4 24.5 972.6 24.4 C 971.7 24.2 970.5 24.1 968.9 24.1 L 968.9 22.0 L 994.5 22.0 L 994.5 24.1 C 992.8 24.1 991.5 24.2 990.7 24.4 C 989.8 24.5 989.1 24.8 988.4 25.3 C 987.8 25.7 987.4 26.4 987.2 27.1 C 987.0 27.9 986.9 29.0 986.9 30.4 L 986.9 71.1 L 993.5 71.1 C 996.3 71.1 998.4 70.5 999.9 69.3 C 1001.3 68.2 1002.4 66.1 1003.3 63.3 L 1006.0 63.3 L 1004.9 75.0 L 958.6 75.0 Z M 910.0 22.0 L 935.3 22.0 L 935.3 24.1 C 933.6 24.1 932.3 24.2 931.4 24.4 C 930.5 24.5 929.7 24.8 929.1 25.3 C 928.4 25.7 928.0 26.4 927.8 27.1 C 927.6 27.9 927.5 29.0 927.5 30.4 L 927.5 47.7 L 931.5 47.7 C 935.0 47.7 937.6 47.2 939.3 46.1 C 940.9 45.0 942.0 42.9 942.6 39.9 L 944.6 39.9 L 944.6 58.6 L 942.6 58.6 C 942.2 56.6 941.7 55.1 941.0 54.2 C 940.4 53.2 939.3 52.5 937.9 52.1 C 936.4 51.7 934.3 51.4 931.5 51.4 L 927.5 51.4 L 927.5 68.4 C 927.5 69.5 927.7 70.2 928.1 70.6 C 928.5 70.9 929.3 71.1 930.4 71.1 L 938.5 71.1 C 941.1 71.1 943.3 71.0 944.9 70.8 C 946.5 70.5 947.8 70.1 948.8 69.4 C 949.9 68.7 950.7 67.9 951.2 67.0 C 951.8 66.1 952.3 64.9 952.8 63.3 L 955.0 63.3 L 954.7 75.0 L 910.1 75.0 L 910.1 73.0 C 911.6 72.9 912.7 72.8 913.4 72.7 C 914.2 72.5 914.8 72.2 915.4 71.8 C 916.0 71.3 916.4 70.7 916.6 69.9 C 916.8 69.1 916.9 68.0 916.9 66.6 L 916.9 30.4 C 916.9 29.0 916.8 27.9 916.6 27.1 C 916.4 26.4 916.0 25.7 915.4 25.3 C 914.8 24.8 914.2 24.5 913.4 24.4 C 912.6 24.2 911.5 24.1 910.0 24.1 Z M 910.0 22.0 " fill="#C6B5A9"></path></g></g></g></g><path d="M 0.0 125.5 C 33.6 128.0 71.5 86.2 113.8 0.0 " fill="none" stroke="#75746C" stroke-width="4.00" transform="matrix(1.00, 0.00, 0.00, -1.00, 408.9, 397.9)"></path><g><clipPath id="clip-282"><path d="M 124.0 707.0 L 988.0 707.0 L 988.0 235.0 L 124.0 235.0 Z M 123.7 707.0 "></path></clipPath><g clip-path="url(#clip-282)"><image xlink:href="../../F2434AA9-C84D-4640-8717-5F5EF243C1AA/assets/959659B62E01CE7F94B48B94F1115317.png" width="839.00" height="471.00" transform="matrix(1.00, 0.00, -0.00, -1.00, 137.0, 707.0)"></image></g></g><text xml:space="preserve" font-family="FinancierDisplay-Regular" font-size="60.0" fill="#000000" transform="matrix(1.00, 0.00, -0.00, -1.00, 40.0, 124.0)">‘</text><text xml:space="preserve" font-family="FinancierDisplay-Regular" font-size="60.0" fill="#000000" transform="matrix(1.00, 0.00, -0.00, -1.00, 51.0, 124.0)">N</text><text xml:space="preserve" font-family="FinancierDisplay-Regular" font-size="60.0" fill="#000000" transform="matrix(1.00, 0.00, -0.00, -1.00, 89.0, 124.0)">e</text><text xml:space="preserve" font-family="FinancierDisplay-Regular" font-size="60.0" fill="#000000" transform="matrix(1.00, 0.00, -0.00, -1.00, 112.0, 124.0)">w</text><text xml:space="preserve" font-family="FinancierDisplay-Regular" font-size="60.0" fill="#000000" transform="matrix(1.00, 0.00, -0.00, -1.00, 149.9, 124.0)">s</text><text xml:space="preserve" font-family="FinancierDisplay-Regular" font-size="60.0" fill="#000000" transform="matrix(1.00, 0.00, -0.00, -1.00, 171.0, 124.0)"> </text><text xml:space="preserve" font-family="FinancierDisplay-Regular" font-size="60.0" fill="#000000" transform="matrix(1.00, 0.00, -0.00, -1.00, 181.2, 124.0)">a</text><text xml:space="preserve" font-family="FinancierDisplay-Regular" font-size="60.0" fill="#000000" transform="matrix(1.00, 0.00, -0.00, -1.00, 206.0, 124.0)">p</text><text xml:space="preserve" font-family="FinancierDisplay-Regular" font-size="60.0" fill="#000000" transform="matrix(1.00, 0.00, -0.00, -1.00, 235.2, 124.0)">p</text><text xml:space="preserve" font-family="FinancierDisplay-Regular" font-size="60.0" fill="#000000" transform="matrix(1.00, 0.00, -0.00, -1.00, 264.4, 124.0)">l</text><text xml:space="preserve" font-family="FinancierDisplay-Regular" font-size="60.0" fill="#000000" transform="matrix(1.00, 0.00, -0.00, -1.00, 278.3, 124.0)">i</text><text xml:space="preserve" font-family="FinancierDisplay-Regular" font-size="60.0" fill="#000000" transform="matrix(1.00, 0.00, -0.00, -1.00, 292.5, 124.0)">c</text><text xml:space="preserve" font-family="FinancierDisplay-Regular" font-size="60.0" fill="#000000" transform="matrix(1.00, 0.00, -0.00, -1.00, 315.6, 124.0)">a</text><text xml:space="preserve" font-family="FinancierDisplay-Regular" font-size="60.0" fill="#000000" transform="matrix(1.00, 0.00, -0.00, -1.00, 340.4, 124.0)">t</text><text xml:space="preserve" font-family="FinancierDisplay-Regular" font-size="60.0" fill="#000000" transform="matrix(1.00, 0.00, -0.00, -1.00, 358.6, 124.0)">i</text><text xml:space="preserve" font-family="FinancierDisplay-Regular" font-size="60.0" fill="#000000" transform="matrix(1.00, 0.00, -0.00, -1.00, 372.8, 124.0)">o</text><text xml:space="preserve" font-family="FinancierDisplay-Regular" font-size="60.0" fill="#000000" transform="matrix(1.00, 0.00, -0.00, -1.00, 400.0, 124.0)">n</text><text xml:space="preserve" font-family="FinancierDisplay-Regular" font-size="60.0" fill="#000000" transform="matrix(1.00, 0.00, -0.00, -1.00, 429.9, 124.0)">s</text><text xml:space="preserve" font-family="FinancierDisplay-Regular" font-size="60.0" fill="#000000" transform="matrix(1.00, 0.00, -0.00, -1.00, 449.6, 124.0)">’</text><path d="M 663.4 288.9 L 838.1 288.9 L 838.1 253.8 L 663.4 253.8 Z M 663.4 288.9 " fill="#FFF9F0"></path><path d="M 0.0 0.0 L 174.7 0.0 L 174.7 35.1 L 0.0 35.1 Z M 0.0 0.0 " fill="none" stroke="#BB6D82" stroke-width="2.00" transform="matrix(1.00, 0.00, 0.00, -1.00, 663.4, 288.9)"></path><g><clipPath id="clip-283"><path d="M 663.7 247.1 L 837.8 247.1 L 837.8 287.9 L 663.7 287.9 Z M 663.7 247.1 "></path></clipPath><g clip-path="url(#clip-283)"><text xml:space="preserve" font-family="Metric-Medium" font-size="19.0" fill="#52575F" transform="matrix(1.00, 0.00, -0.00, -1.00, 734.0, 268.0)">T</text><text xml:space="preserve" font-family="Metric-Medium" font-size="19.0" fill="#52575F" transform="matrix(1.00, 0.00, -0.00, -1.00, 743.6, 268.0)">e</text><text xml:space="preserve" font-family="Metric-Medium" font-size="19.0" fill="#52575F" transform="matrix(1.00, 0.00, -0.00, -1.00, 752.1, 268.0)">x</text><text xml:space="preserve" font-family="Metric-Medium" font-size="19.0" fill="#52575F" transform="matrix(1.00, 0.00, -0.00, -1.00, 760.9, 268.0)">t</text></g></g><image xlink:href="../../F2434AA9-C84D-4640-8717-5F5EF243C1AA/assets/703E98A85C12243AFE2D7250DFEE2332.png" width="37.00" height="65.00" transform="matrix(1.03, 0.00, -0.00, -1.00, 201.0, 305.0)"></image><path d="M 240.9 289.7 L 415.6 289.7 L 415.6 254.7 L 240.9 254.7 Z M 240.9 289.7 " fill="#FFF9F0"></path><path d="M 0.0 0.0 L 174.7 0.0 L 174.7 35.1 L 0.0 35.1 Z M 0.0 0.0 " fill="none" stroke="#C1BEB1" stroke-width="2.00" transform="matrix(1.00, 0.00, 0.00, -1.00, 240.9, 289.7)"></path><g><clipPath id="clip-284"><path d="M 246.1 264.7 L 410.3 264.7 L 410.3 279.7 L 246.1 279.7 Z M 246.1 264.7 "></path></clipPath><g clip-path="url(#clip-284)"><text xml:space="preserve" font-family="Metric-Medium" font-size="19.0" fill="#52575F" transform="matrix(1.00, 0.00, -0.00, -1.00, 266.0, 267.0)">M</text><text xml:space="preserve" font-family="Metric-Medium" font-size="19.0" fill="#52575F" transform="matrix(1.00, 0.00, -0.00, -1.00, 279.7, 267.0)">e</text><text xml:space="preserve" font-family="Metric-Medium" font-size="19.0" fill="#52575F" transform="matrix(1.00, 0.00, -0.00, -1.00, 288.4, 267.0)">d</text><text xml:space="preserve" font-family="Metric-Medium" font-size="19.0" fill="#52575F" transform="matrix(1.00, 0.00, -0.00, -1.00, 298.1, 267.0)">i</text><text xml:space="preserve" font-family="Metric-Medium" font-size="19.0" fill="#52575F" transform="matrix(1.00, 0.00, -0.00, -1.00, 302.4, 267.0)">a</text><text xml:space="preserve" font-family="Metric-Medium" font-size="19.0" fill="#52575F" transform="matrix(1.00, 0.00, -0.00, -1.00, 311.1, 267.0)"> </text><text xml:space="preserve" font-family="Metric-Medium" font-size="19.0" fill="#52575F" transform="matrix(1.00, 0.00, -0.00, -1.00, 315.3, 267.0)">F</text><text xml:space="preserve" font-family="Metric-Medium" font-size="19.0" fill="#52575F" transform="matrix(1.00, 0.00, -0.00, -1.00, 324.7, 267.0)">i</text><text xml:space="preserve" font-family="Metric-Medium" font-size="19.0" fill="#52575F" transform="matrix(1.00, 0.00, -0.00, -1.00, 329.0, 267.0)">l</text><text xml:space="preserve" font-family="Metric-Medium" font-size="19.0" fill="#52575F" transform="matrix(1.00, 0.00, -0.00, -1.00, 333.2, 267.0)">e</text><text xml:space="preserve" font-family="Metric-Medium" font-size="19.0" fill="#52575F" transform="matrix(1.00, 0.00, -0.00, -1.00, 341.9, 267.0)">s</text><text xml:space="preserve" font-family="Metric-Medium" font-size="19.0" fill="#52575F" transform="matrix(1.00, 0.00, -0.00, -1.00, 349.6, 267.0)">,</text><text xml:space="preserve" font-family="Metric-Medium" font-size="19.0" fill="#52575F" transform="matrix(1.00, 0.00, -0.00, -1.00, 353.4, 267.0)"> </text><text xml:space="preserve" font-family="Metric-Medium" font-size="19.0" fill="#52575F" transform="matrix(1.00, 0.00, -0.00, -1.00, 357.6, 267.0)">T</text><text xml:space="preserve" font-family="Metric-Medium" font-size="19.0" fill="#52575F" transform="matrix(1.00, 0.00, -0.00, -1.00, 367.2, 267.0)">e</text><text xml:space="preserve" font-family="Metric-Medium" font-size="19.0" fill="#52575F" transform="matrix(1.00, 0.00, -0.00, -1.00, 375.7, 267.0)">x</text><text xml:space="preserve" font-family="Metric-Medium" font-size="19.0" fill="#52575F" transform="matrix(1.00, 0.00, -0.00, -1.00, 384.5, 267.0)">t</text></g></g><text xml:space="preserve" font-family="Metric-Semibold" font-weight="bold" font-size="28.0" fill="#75746C" transform="matrix(1.00, 0.00, -0.00, -1.00, 55.6, 276.3)">u</text><text xml:space="preserve" font-family="Metric-Semibold" font-weight="bold" font-size="28.0" fill="#75746C" transform="matrix(1.00, 0.00, -0.00, -1.00, 69.7, 276.3)">n</text><text xml:space="preserve" font-family="Metric-Semibold" font-weight="bold" font-size="28.0" fill="#75746C" transform="matrix(1.00, 0.00, -0.00, -1.00, 83.8, 276.3)">s</text><text xml:space="preserve" font-family="Metric-Semibold" font-weight="bold" font-size="28.0" fill="#75746C" transform="matrix(1.00, 0.00, -0.00, -1.00, 95.1, 276.3)">t</text><text xml:space="preserve" font-family="Metric-Semibold" font-weight="bold" font-size="28.0" fill="#75746C" transform="matrix(1.00, 0.00, -0.00, -1.00, 104.8, 276.3)">r</text><text xml:space="preserve" font-family="Metric-Semibold" font-weight="bold" font-size="28.0" fill="#75746C" transform="matrix(1.00, 0.00, -0.00, -1.00, 114.6, 276.3)">u</text><text xml:space="preserve" font-family="Metric-Semibold" font-weight="bold" font-size="28.0" fill="#75746C" transform="matrix(1.00, 0.00, -0.00, -1.00, 128.7, 276.3)">c</text><text xml:space="preserve" font-family="Metric-Semibold" font-weight="bold" font-size="28.0" fill="#75746C" transform="matrix(1.00, 0.00, -0.00, -1.00, 140.0, 276.3)">t</text><text xml:space="preserve" font-family="Metric-Semibold" font-weight="bold" font-size="28.0" fill="#75746C" transform="matrix(1.00, 0.00, -0.00, -1.00, 149.7, 276.3)">u</text><text xml:space="preserve" font-family="Metric-Semibold" font-weight="bold" font-size="28.0" fill="#75746C" transform="matrix(1.00, 0.00, -0.00, -1.00, 163.8, 276.3)">r</text><text xml:space="preserve" font-family="Metric-Semibold" font-weight="bold" font-size="28.0" fill="#75746C" transform="matrix(1.00, 0.00, -0.00, -1.00, 173.3, 276.3)">e</text><text xml:space="preserve" font-family="Metric-Semibold" font-weight="bold" font-size="28.0" fill="#75746C" transform="matrix(1.00, 0.00, -0.00, -1.00, 186.3, 276.3)">d</text><text xml:space="preserve" font-family="Metric-Semibold" font-weight="bold" font-size="28.0" fill="#75746C" transform="matrix(1.00, 0.00, -0.00, -1.00, 200.8, 276.3)"> </text><g><clipPath id="clip-285"><path d="M 43.2 238.9 L 216.2 238.9 L 216.2 294.9 L 43.2 294.9 Z M 43.2 238.9 "></path></clipPath><g clip-path="url(#clip-285)"><text xml:space="preserve" font-family="Metric-Semibold" font-weight="bold" font-size="28.0" fill="#75746C" transform="matrix(1.00, 0.00, -0.00, -1.00, 150.9, 242.3)">d</text><text xml:space="preserve" font-family="Metric-Semibold" font-weight="bold" font-size="28.0" fill="#75746C" transform="matrix(1.00, 0.00, -0.00, -1.00, 165.4, 242.3)">a</text><text xml:space="preserve" font-family="Metric-Semibold" font-weight="bold" font-size="28.0" fill="#75746C" transform="matrix(1.00, 0.00, -0.00, -1.00, 178.4, 242.3)">t</text><text xml:space="preserve" font-family="Metric-Semibold" font-weight="bold" font-size="28.0" fill="#75746C" transform="matrix(1.00, 0.00, -0.00, -1.00, 187.7, 242.3)">a</text><text xml:space="preserve" font-family="LucidaGrande-Bold" font-weight="bold" font-size="28.0" fill="#75746C" transform="matrix(1.00, 0.00, -0.00, -1.00, 200.8, 242.3)"> </text></g></g></g></svg>