<?xml version="1.0" encoding="UTF-8" standalone="no"?><svg xmlns="http://www.w3.org/2000/svg" xmlns:xlink="http://www.w3.org/1999/xlink" clip-rule="evenodd" stroke-miterlimit="4.00" viewBox="0 0 296 53"><desc>SVG generated by Keynote</desc><defs></defs><g transform="matrix(1.00, 0.00, -0.00, -1.00, 0.0, 53.0)"><text xml:space="preserve" font-family="Metric-Semibold" font-weight="bold" font-size="60.0" fill="#000000" transform="matrix(1.00, 0.00, -0.00, -1.00, 2.0, 11.0)">f</text><text xml:space="preserve" font-family="Metric-Semibold" font-weight="bold" font-size="60.0" fill="#000000" transform="matrix(1.00, 0.00, -0.00, -1.00, 21.2, 11.0)">t</text><text xml:space="preserve" font-family="Metric-Semibold" font-weight="bold" font-size="60.0" fill="#000000" transform="matrix(1.00, 0.00, -0.00, -1.00, 40.0, 11.0)">.</text><text xml:space="preserve" font-family="Metric-Semibold" font-weight="bold" font-size="60.0" fill="#000000" transform="matrix(1.00, 0.00, -0.00, -1.00, 51.9, 11.0)">c</text><text xml:space="preserve" font-family="Metric-Semibold" font-weight="bold" font-size="60.0" fill="#000000" transform="matrix(1.00, 0.00, -0.00, -1.00, 76.2, 11.0)">o</text><text xml:space="preserve" font-family="Metric-Semibold" font-weight="bold" font-size="60.0" fill="#000000" transform="matrix(1.00, 0.00, -0.00, -1.00, 105.6, 11.0)">m</text><text xml:space="preserve" font-family="Metric-Semibold" font-weight="bold" font-size="60.0" fill="#000000" transform="matrix(1.00, 0.00, -0.00, -1.00, 150.1, 11.0)">/</text><text xml:space="preserve" font-family="Metric-Semibold" font-weight="bold" font-size="60.0" fill="#000000" transform="matrix(1.00, 0.00, -0.00, -1.00, 169.7, 11.0)">p</text><text xml:space="preserve" font-family="Metric-Semibold" font-weight="bold" font-size="60.0" fill="#000000" transform="matrix(1.00, 0.00, -0.00, -1.00, 201.1, 11.0)">o</text><text xml:space="preserve" font-family="Metric-Semibold" font-weight="bold" font-size="60.0" fill="#000000" transform="matrix(1.00, 0.00, -0.00, -1.00, 230.4, 11.0)">r</text><text xml:space="preserve" font-family="Metric-Semibold" font-weight="bold" font-size="60.0" fill="#000000" transform="matrix(1.00, 0.00, -0.00, -1.00, 251.5, 11.0)">t</text><text xml:space="preserve" font-family="Metric-Semibold" font-weight="bold" font-size="60.0" fill="#000000" transform="matrix(1.00, 0.00, -0.00, -1.00, 272.1, 11.0)">s</text></g></svg>