<?xml version="1.0" encoding="UTF-8" standalone="no"?><svg xmlns="http://www.w3.org/2000/svg" xmlns:xlink="http://www.w3.org/1999/xlink" clip-rule="evenodd" stroke-miterlimit="4.00" viewBox="0 0 1024 768"><desc>SVG generated by Keynote</desc><defs></defs><g transform="matrix(1.00, 0.00, -0.00, -1.00, 0.0, 768.0)"><path d="M 0.0 768.0 L 1024.0 768.0 L 1024.0 0.0 L 0.0 0.0 Z M 0.0 768.0 " fill="#FFF0E0"></path><g><clipPath id="clip-2629"><path d="M 910.0 75.0 L 1006.0 75.0 L 1006.0 22.0 L 910.0 22.0 Z M 910.0 75.0 "></path></clipPath><g clip-path="url(#clip-2629)"><g><clipPath id="clip-2630"><path d="M 910.0 22.0 L 1006.0 22.0 L 1006.0 75.0 L 910.0 75.0 Z M 910.0 22.0 "></path></clipPath><g clip-path="url(#clip-2630)"><path d="M 957.3 63.3 L 960.0 63.3 C 960.8 66.1 962.0 68.2 963.4 69.3 C 964.9 70.5 967.0 71.1 969.8 71.1 L 976.3 71.1 L 976.3 30.4 C 976.3 29.0 976.2 27.9 976.0 27.1 C 975.8 26.4 975.4 25.7 974.8 25.3 C 974.2 24.8 973.4 24.5 972.6 24.4 C 971.7 24.2 970.5 24.1 968.9 24.1 L 968.9 22.0 L 994.5 22.0 L 994.5 24.1 C 992.8 24.1 991.5 24.2 990.7 24.4 C 989.8 24.5 989.1 24.8 988.4 25.3 C 987.8 25.7 987.4 26.4 987.2 27.1 C 987.0 27.9 986.9 29.0 986.9 30.4 L 986.9 71.1 L 993.5 71.1 C 996.3 71.1 998.4 70.5 999.9 69.3 C 1001.3 68.2 1002.4 66.1 1003.3 63.3 L 1006.0 63.3 L 1004.9 75.0 L 958.6 75.0 Z M 910.0 22.0 L 935.3 22.0 L 935.3 24.1 C 933.6 24.1 932.3 24.2 931.4 24.4 C 930.5 24.5 929.7 24.8 929.1 25.3 C 928.4 25.7 928.0 26.4 927.8 27.1 C 927.6 27.9 927.5 29.0 927.5 30.4 L 927.5 47.7 L 931.5 47.7 C 935.0 47.7 937.6 47.2 939.3 46.1 C 940.9 45.0 942.0 42.9 942.6 39.9 L 944.6 39.9 L 944.6 58.6 L 942.6 58.6 C 942.2 56.6 941.7 55.1 941.0 54.2 C 940.4 53.2 939.3 52.5 937.9 52.1 C 936.4 51.7 934.3 51.4 931.5 51.4 L 927.5 51.4 L 927.5 68.4 C 927.5 69.5 927.7 70.2 928.1 70.6 C 928.5 70.9 929.3 71.1 930.4 71.1 L 938.5 71.1 C 941.1 71.1 943.3 71.0 944.9 70.8 C 946.5 70.5 947.8 70.1 948.8 69.4 C 949.9 68.7 950.7 67.9 951.2 67.0 C 951.8 66.1 952.3 64.9 952.8 63.3 L 955.0 63.3 L 954.7 75.0 L 910.1 75.0 L 910.1 73.0 C 911.6 72.9 912.7 72.8 913.4 72.7 C 914.2 72.5 914.8 72.2 915.4 71.8 C 916.0 71.3 916.4 70.7 916.6 69.9 C 916.8 69.1 916.9 68.0 916.9 66.6 L 916.9 30.4 C 916.9 29.0 916.8 27.9 916.6 27.1 C 916.4 26.4 916.0 25.7 915.4 25.3 C 914.8 24.8 914.2 24.5 913.4 24.4 C 912.6 24.2 911.5 24.1 910.0 24.1 Z M 910.0 22.0 " fill="#C6B5A9"></path></g></g></g></g><text xml:space="preserve" font-family="FinancierDisplay-Regular" font-size="45.0" fill="#000000" transform="matrix(1.00, 0.00, -0.00, -1.00, 104.0, 517.2)">•</text><text xml:space="preserve" font-family="FinancierDisplay-Regular" font-size="60.0" fill="#000000" transform="matrix(1.00, 0.00, -0.00, -1.00, 162.0, 513.0)">D</text><text xml:space="preserve" font-family="FinancierDisplay-Regular" font-size="60.0" fill="#000000" transform="matrix(1.00, 0.00, -0.00, -1.00, 200.5, 513.0)">e</text><text xml:space="preserve" font-family="FinancierDisplay-Regular" font-size="60.0" fill="#000000" transform="matrix(1.00, 0.00, -0.00, -1.00, 223.4, 513.0)">v</text><text xml:space="preserve" font-family="FinancierDisplay-Regular" font-size="60.0" fill="#000000" transform="matrix(1.00, 0.00, -0.00, -1.00, 249.6, 513.0)">e</text><text xml:space="preserve" font-family="FinancierDisplay-Regular" font-size="60.0" fill="#000000" transform="matrix(1.00, 0.00, -0.00, -1.00, 273.8, 513.0)">l</text><text xml:space="preserve" font-family="FinancierDisplay-Regular" font-size="60.0" fill="#000000" transform="matrix(1.00, 0.00, -0.00, -1.00, 287.7, 513.0)">o</text><text xml:space="preserve" font-family="FinancierDisplay-Regular" font-size="60.0" fill="#000000" transform="matrix(1.00, 0.00, -0.00, -1.00, 314.9, 513.0)">p</text><text xml:space="preserve" font-family="FinancierDisplay-Regular" font-size="60.0" fill="#000000" transform="matrix(1.00, 0.00, -0.00, -1.00, 344.2, 513.0)"> </text><text xml:space="preserve" font-family="FinancierDisplay-Regular" font-size="60.0" fill="#000000" transform="matrix(1.00, 0.00, -0.00, -1.00, 354.4, 513.0)">c</text><text xml:space="preserve" font-family="FinancierDisplay-Regular" font-size="60.0" fill="#000000" transform="matrix(1.00, 0.00, -0.00, -1.00, 377.5, 513.0)">r</text><text xml:space="preserve" font-family="FinancierDisplay-Regular" font-size="60.0" fill="#000000" transform="matrix(1.00, 0.00, -0.00, -1.00, 398.2, 513.0)">o</text><text xml:space="preserve" font-family="FinancierDisplay-Regular" font-size="60.0" fill="#000000" transform="matrix(1.00, 0.00, -0.00, -1.00, 425.5, 513.0)">s</text><text xml:space="preserve" font-family="FinancierDisplay-Regular" font-size="60.0" fill="#000000" transform="matrix(1.00, 0.00, -0.00, -1.00, 446.5, 513.0)">s</text><text xml:space="preserve" font-family="FinancierDisplay-Regular" font-size="60.0" fill="#000000" transform="matrix(1.00, 0.00, -0.00, -1.00, 467.6, 513.0)">-</text><text xml:space="preserve" font-family="FinancierDisplay-Regular" font-size="60.0" fill="#000000" transform="matrix(1.00, 0.00, -0.00, -1.00, 483.7, 513.0)">p</text><text xml:space="preserve" font-family="FinancierDisplay-Regular" font-size="60.0" fill="#000000" transform="matrix(1.00, 0.00, -0.00, -1.00, 512.9, 513.0)">l</text><text xml:space="preserve" font-family="FinancierDisplay-Regular" font-size="60.0" fill="#000000" transform="matrix(1.00, 0.00, -0.00, -1.00, 526.8, 513.0)">a</text><text xml:space="preserve" font-family="FinancierDisplay-Regular" font-size="60.0" fill="#000000" transform="matrix(1.00, 0.00, -0.00, -1.00, 551.6, 513.0)">t</text><text xml:space="preserve" font-family="FinancierDisplay-Regular" font-size="60.0" fill="#000000" transform="matrix(1.00, 0.00, -0.00, -1.00, 569.8, 513.0)">f</text><text xml:space="preserve" font-family="FinancierDisplay-Regular" font-size="60.0" fill="#000000" transform="matrix(1.00, 0.00, -0.00, -1.00, 586.0, 513.0)">o</text><text xml:space="preserve" font-family="FinancierDisplay-Regular" font-size="60.0" fill="#000000" transform="matrix(1.00, 0.00, -0.00, -1.00, 613.3, 513.0)">r</text><text xml:space="preserve" font-family="FinancierDisplay-Regular" font-size="60.0" fill="#000000" transform="matrix(1.00, 0.00, -0.00, -1.00, 634.7, 513.0)">m</text><text xml:space="preserve" font-family="FinancierDisplay-Regular" font-size="60.0" fill="#000000" transform="matrix(1.00, 0.00, -0.00, -1.00, 680.0, 513.0)"> </text><text xml:space="preserve" font-family="FinancierDisplay-Regular" font-size="60.0" fill="#000000" transform="matrix(1.00, 0.00, -0.00, -1.00, 690.2, 513.0)">w</text><text xml:space="preserve" font-family="FinancierDisplay-Regular" font-size="60.0" fill="#000000" transform="matrix(1.00, 0.00, -0.00, -1.00, 727.4, 513.0)">o</text><text xml:space="preserve" font-family="FinancierDisplay-Regular" font-size="60.0" fill="#000000" transform="matrix(1.00, 0.00, -0.00, -1.00, 754.7, 513.0)">r</text><text xml:space="preserve" font-family="FinancierDisplay-Regular" font-size="60.0" fill="#000000" transform="matrix(1.00, 0.00, -0.00, -1.00, 775.4, 513.0)">k</text><text xml:space="preserve" font-family="FinancierDisplay-Regular" font-size="60.0" fill="#000000" transform="matrix(1.00, 0.00, -0.00, -1.00, 804.3, 513.0)">ﬂ</text><text xml:space="preserve" font-family="FinancierDisplay-Regular" font-size="60.0" fill="#000000" transform="matrix(1.00, 0.00, -0.00, -1.00, 833.9, 513.0)">o</text><text xml:space="preserve" font-family="FinancierDisplay-Regular" font-size="60.0" fill="#000000" transform="matrix(1.00, 0.00, -0.00, -1.00, 859.3, 513.0)">w</text><text xml:space="preserve" font-family="FinancierDisplay-Regular" font-size="60.0" fill="#000000" transform="matrix(1.00, 0.00, -0.00, -1.00, 898.5, 513.0)"> </text><text xml:space="preserve" font-family="FinancierDisplay-Regular" font-size="36.0" fill="#000000" transform="matrix(1.00, 0.00, -0.00, -1.00, 139.0, 461.1)">•</text><text xml:space="preserve" font-family="FinancierDisplay-Regular" font-size="48.0" fill="#000000" transform="matrix(1.00, 0.00, -0.00, -1.00, 197.0, 458.0)">G</text><text xml:space="preserve" font-family="FinancierDisplay-Regular" font-size="48.0" fill="#000000" transform="matrix(1.00, 0.00, -0.00, -1.00, 227.0, 458.0)">r</text><text xml:space="preserve" font-family="FinancierDisplay-Regular" font-size="48.0" fill="#000000" transform="matrix(1.00, 0.00, -0.00, -1.00, 244.0, 458.0)">a</text><text xml:space="preserve" font-family="FinancierDisplay-Regular" font-size="48.0" fill="#000000" transform="matrix(1.00, 0.00, -0.00, -1.00, 263.9, 458.0)">p</text><text xml:space="preserve" font-family="FinancierDisplay-Regular" font-size="48.0" fill="#000000" transform="matrix(1.00, 0.00, -0.00, -1.00, 287.2, 458.0)">h</text><text xml:space="preserve" font-family="FinancierDisplay-Regular" font-size="48.0" fill="#000000" transform="matrix(1.00, 0.00, -0.00, -1.00, 311.0, 458.0)">i</text><text xml:space="preserve" font-family="FinancierDisplay-Regular" font-size="48.0" fill="#000000" transform="matrix(1.00, 0.00, -0.00, -1.00, 322.3, 458.0)">c</text><text xml:space="preserve" font-family="FinancierDisplay-Regular" font-size="48.0" fill="#000000" transform="matrix(1.00, 0.00, -0.00, -1.00, 340.8, 458.0)">s</text><text xml:space="preserve" font-family="FinancierDisplay-Regular" font-size="48.0" fill="#000000" transform="matrix(1.00, 0.00, -0.00, -1.00, 357.6, 458.0)"> </text><text xml:space="preserve" font-family="FinancierDisplay-Regular" font-size="48.0" fill="#000000" transform="matrix(1.00, 0.00, -0.00, -1.00, 365.8, 458.0)">E</text><text xml:space="preserve" font-family="FinancierDisplay-Regular" font-size="48.0" fill="#000000" transform="matrix(1.00, 0.00, -0.00, -1.00, 391.0, 458.0)">x</text><text xml:space="preserve" font-family="FinancierDisplay-Regular" font-size="48.0" fill="#000000" transform="matrix(1.00, 0.00, -0.00, -1.00, 413.4, 458.0)">a</text><text xml:space="preserve" font-family="FinancierDisplay-Regular" font-size="48.0" fill="#000000" transform="matrix(1.00, 0.00, -0.00, -1.00, 433.3, 458.0)">m</text><text xml:space="preserve" font-family="FinancierDisplay-Regular" font-size="48.0" fill="#000000" transform="matrix(1.00, 0.00, -0.00, -1.00, 469.4, 458.0)">p</text><text xml:space="preserve" font-family="FinancierDisplay-Regular" font-size="48.0" fill="#000000" transform="matrix(1.00, 0.00, -0.00, -1.00, 492.8, 458.0)">l</text><text xml:space="preserve" font-family="FinancierDisplay-Regular" font-size="48.0" fill="#000000" transform="matrix(1.00, 0.00, -0.00, -1.00, 504.0, 458.0)">e</text><text xml:space="preserve" font-family="FinancierDisplay-Regular" font-size="48.0" fill="#000000" transform="matrix(1.00, 0.00, -0.00, -1.00, 523.3, 458.0)">s</text><text xml:space="preserve" font-family="FinancierDisplay-Regular" font-size="48.0" fill="#000000" transform="matrix(1.00, 0.00, -0.00, -1.00, 540.2, 458.0)"> </text><text xml:space="preserve" font-family="FinancierDisplay-Regular" font-size="36.0" fill="#000000" transform="matrix(1.00, 0.00, -0.00, -1.00, 139.0, 402.6)">•</text><text xml:space="preserve" font-family="FinancierDisplay-Regular" font-size="48.0" fill="#000000" transform="matrix(1.00, 0.00, -0.00, -1.00, 197.0, 396.0)">S</text><text xml:space="preserve" font-family="FinancierDisplay-Regular" font-size="48.0" fill="#000000" transform="matrix(1.00, 0.00, -0.00, -1.00, 218.6, 396.0)">t</text><text xml:space="preserve" font-family="FinancierDisplay-Regular" font-size="48.0" fill="#000000" transform="matrix(1.00, 0.00, -0.00, -1.00, 233.2, 396.0)">a</text><text xml:space="preserve" font-family="FinancierDisplay-Regular" font-size="48.0" fill="#000000" transform="matrix(1.00, 0.00, -0.00, -1.00, 253.1, 396.0)">r</text><text xml:space="preserve" font-family="FinancierDisplay-Regular" font-size="48.0" fill="#000000" transform="matrix(1.00, 0.00, -0.00, -1.00, 270.2, 396.0)">t</text><text xml:space="preserve" font-family="FinancierDisplay-Regular" font-size="48.0" fill="#000000" transform="matrix(1.00, 0.00, -0.00, -1.00, 284.7, 396.0)">e</text><text xml:space="preserve" font-family="FinancierDisplay-Regular" font-size="48.0" fill="#000000" transform="matrix(1.00, 0.00, -0.00, -1.00, 304.1, 396.0)">r</text><text xml:space="preserve" font-family="FinancierDisplay-Regular" font-size="48.0" fill="#000000" transform="matrix(1.00, 0.00, -0.00, -1.00, 321.3, 396.0)"> </text><text xml:space="preserve" font-family="FinancierDisplay-Regular" font-size="48.0" fill="#000000" transform="matrix(1.00, 0.00, -0.00, -1.00, 329.4, 396.0)">K</text><text xml:space="preserve" font-family="FinancierDisplay-Regular" font-size="48.0" fill="#000000" transform="matrix(1.00, 0.00, -0.00, -1.00, 358.2, 396.0)">i</text><text xml:space="preserve" font-family="FinancierDisplay-Regular" font-size="48.0" fill="#000000" transform="matrix(1.00, 0.00, -0.00, -1.00, 369.6, 396.0)">t</text><text xml:space="preserve" font-family="LucidaGrande" font-size="60.0" fill="#000000" transform="matrix(1.00, 0.00, -0.00, -1.00, 384.2, 396.0)"> </text><text xml:space="preserve" font-family="FinancierDisplay-Regular" font-size="45.0" fill="#000000" transform="matrix(1.00, 0.00, -0.00, -1.00, 104.0, 270.2)">•</text><text xml:space="preserve" font-family="FinancierDisplay-Regular" font-size="60.0" fill="#000000" transform="matrix(1.00, 0.00, -0.00, -1.00, 162.0, 266.0)">N</text><text xml:space="preserve" font-family="FinancierDisplay-Regular" font-size="60.0" fill="#000000" transform="matrix(1.00, 0.00, -0.00, -1.00, 200.0, 266.0)">e</text><text xml:space="preserve" font-family="FinancierDisplay-Regular" font-size="60.0" fill="#000000" transform="matrix(1.00, 0.00, -0.00, -1.00, 223.0, 266.0)">w</text><text xml:space="preserve" font-family="FinancierDisplay-Regular" font-size="60.0" fill="#000000" transform="matrix(1.00, 0.00, -0.00, -1.00, 260.9, 266.0)">s</text><text xml:space="preserve" font-family="FinancierDisplay-Regular" font-size="60.0" fill="#000000" transform="matrix(1.00, 0.00, -0.00, -1.00, 281.9, 266.0)">r</text><text xml:space="preserve" font-family="FinancierDisplay-Regular" font-size="60.0" fill="#000000" transform="matrix(1.00, 0.00, -0.00, -1.00, 302.6, 266.0)">o</text><text xml:space="preserve" font-family="FinancierDisplay-Regular" font-size="60.0" fill="#000000" transform="matrix(1.00, 0.00, -0.00, -1.00, 330.5, 266.0)">o</text><text xml:space="preserve" font-family="FinancierDisplay-Regular" font-size="60.0" fill="#000000" transform="matrix(1.00, 0.00, -0.00, -1.00, 357.7, 266.0)">m</text><text xml:space="preserve" font-family="FinancierDisplay-Regular" font-size="60.0" fill="#000000" transform="matrix(1.00, 0.00, -0.00, -1.00, 403.0, 266.0)"> </text><text xml:space="preserve" font-family="FinancierDisplay-Regular" font-size="60.0" fill="#000000" transform="matrix(1.00, 0.00, -0.00, -1.00, 413.2, 266.0)">e</text><text xml:space="preserve" font-family="FinancierDisplay-Regular" font-size="60.0" fill="#000000" transform="matrix(1.00, 0.00, -0.00, -1.00, 437.3, 266.0)">d</text><text xml:space="preserve" font-family="FinancierDisplay-Regular" font-size="60.0" fill="#000000" transform="matrix(1.00, 0.00, -0.00, -1.00, 466.3, 266.0)">u</text><text xml:space="preserve" font-family="FinancierDisplay-Regular" font-size="60.0" fill="#000000" transform="matrix(1.00, 0.00, -0.00, -1.00, 495.1, 266.0)">c</text><text xml:space="preserve" font-family="FinancierDisplay-Regular" font-size="60.0" fill="#000000" transform="matrix(1.00, 0.00, -0.00, -1.00, 518.2, 266.0)">a</text><text xml:space="preserve" font-family="FinancierDisplay-Regular" font-size="60.0" fill="#000000" transform="matrix(1.00, 0.00, -0.00, -1.00, 542.9, 266.0)">t</text><text xml:space="preserve" font-family="FinancierDisplay-Regular" font-size="60.0" fill="#000000" transform="matrix(1.00, 0.00, -0.00, -1.00, 561.2, 266.0)">i</text><text xml:space="preserve" font-family="FinancierDisplay-Regular" font-size="60.0" fill="#000000" transform="matrix(1.00, 0.00, -0.00, -1.00, 575.3, 266.0)">o</text><text xml:space="preserve" font-family="FinancierDisplay-Regular" font-size="60.0" fill="#000000" transform="matrix(1.00, 0.00, -0.00, -1.00, 602.6, 266.0)">n</text><text xml:space="preserve" font-family="FinancierDisplay-Regular" font-size="60.0" fill="#000000" transform="matrix(1.00, 0.00, -0.00, -1.00, 632.5, 266.0)"> </text><text xml:space="preserve" font-family="FinancierDisplay-Regular" font-size="36.0" fill="#000000" transform="matrix(1.00, 0.00, -0.00, -1.00, 139.0, 214.1)">•</text><text xml:space="preserve" font-family="FinancierDisplay-RegularItalic" font-style="italic" font-size="48.0" fill="#000000" transform="matrix(1.00, 0.00, -0.00, -1.00, 197.0, 211.0)">V</text><text xml:space="preserve" font-family="FinancierDisplay-RegularItalic" font-style="italic" font-size="48.0" fill="#000000" transform="matrix(1.00, 0.00, -0.00, -1.00, 225.3, 211.0)">i</text><text xml:space="preserve" font-family="FinancierDisplay-RegularItalic" font-style="italic" font-size="48.0" fill="#000000" transform="matrix(1.00, 0.00, -0.00, -1.00, 235.8, 211.0)">s</text><text xml:space="preserve" font-family="FinancierDisplay-RegularItalic" font-style="italic" font-size="48.0" fill="#000000" transform="matrix(1.00, 0.00, -0.00, -1.00, 251.0, 211.0)">u</text><text xml:space="preserve" font-family="FinancierDisplay-RegularItalic" font-style="italic" font-size="48.0" fill="#000000" transform="matrix(1.00, 0.00, -0.00, -1.00, 272.6, 211.0)">a</text><text xml:space="preserve" font-family="FinancierDisplay-RegularItalic" font-style="italic" font-size="48.0" fill="#000000" transform="matrix(1.00, 0.00, -0.00, -1.00, 292.9, 211.0)">l</text><text xml:space="preserve" font-family="FinancierDisplay-RegularItalic" font-style="italic" font-size="48.0" fill="#000000" transform="matrix(1.00, 0.00, -0.00, -1.00, 302.9, 211.0)"> </text><text xml:space="preserve" font-family="FinancierDisplay-RegularItalic" font-style="italic" font-size="48.0" fill="#000000" transform="matrix(1.00, 0.00, -0.00, -1.00, 311.1, 211.0)">V</text><text xml:space="preserve" font-family="FinancierDisplay-RegularItalic" font-style="italic" font-size="48.0" fill="#000000" transform="matrix(1.00, 0.00, -0.00, -1.00, 335.2, 211.0)">o</text><text xml:space="preserve" font-family="FinancierDisplay-RegularItalic" font-style="italic" font-size="48.0" fill="#000000" transform="matrix(1.00, 0.00, -0.00, -1.00, 354.8, 211.0)">c</text><text xml:space="preserve" font-family="FinancierDisplay-RegularItalic" font-style="italic" font-size="48.0" fill="#000000" transform="matrix(1.00, 0.00, -0.00, -1.00, 371.3, 211.0)">a</text><text xml:space="preserve" font-family="FinancierDisplay-RegularItalic" font-style="italic" font-size="48.0" fill="#000000" transform="matrix(1.00, 0.00, -0.00, -1.00, 391.4, 211.0)">b</text><text xml:space="preserve" font-family="FinancierDisplay-RegularItalic" font-style="italic" font-size="48.0" fill="#000000" transform="matrix(1.00, 0.00, -0.00, -1.00, 411.7, 211.0)">u</text><text xml:space="preserve" font-family="FinancierDisplay-RegularItalic" font-style="italic" font-size="48.0" fill="#000000" transform="matrix(1.00, 0.00, -0.00, -1.00, 433.3, 211.0)">l</text><text xml:space="preserve" font-family="FinancierDisplay-RegularItalic" font-style="italic" font-size="48.0" fill="#000000" transform="matrix(1.00, 0.00, -0.00, -1.00, 443.3, 211.0)">a</text><text xml:space="preserve" font-family="FinancierDisplay-RegularItalic" font-style="italic" font-size="48.0" fill="#000000" transform="matrix(1.00, 0.00, -0.00, -1.00, 463.6, 211.0)">r</text><text xml:space="preserve" font-family="FinancierDisplay-RegularItalic" font-style="italic" font-size="48.0" fill="#000000" transform="matrix(1.00, 0.00, -0.00, -1.00, 479.8, 211.0)">y</text><text xml:space="preserve" font-family="FinancierDisplay-RegularItalic" font-style="italic" font-size="48.0" fill="#000000" transform="matrix(1.00, 0.00, -0.00, -1.00, 500.4, 211.0)"> </text><text xml:space="preserve" font-family="FinancierDisplay-Regular" font-size="48.0" fill="#000000" transform="matrix(1.00, 0.00, -0.00, -1.00, 508.5, 211.0)">f</text><text xml:space="preserve" font-family="FinancierDisplay-Regular" font-size="48.0" fill="#000000" transform="matrix(1.00, 0.00, -0.00, -1.00, 521.5, 211.0)">o</text><text xml:space="preserve" font-family="FinancierDisplay-Regular" font-size="48.0" fill="#000000" transform="matrix(1.00, 0.00, -0.00, -1.00, 543.3, 211.0)">r</text><text xml:space="preserve" font-family="FinancierDisplay-Regular" font-size="48.0" fill="#000000" transform="matrix(1.00, 0.00, -0.00, -1.00, 560.5, 211.0)"> </text><text xml:space="preserve" font-family="FinancierDisplay-Regular" font-size="48.0" fill="#000000" transform="matrix(1.00, 0.00, -0.00, -1.00, 568.6, 211.0)">d</text><text xml:space="preserve" font-family="FinancierDisplay-Regular" font-size="48.0" fill="#000000" transform="matrix(1.00, 0.00, -0.00, -1.00, 591.8, 211.0)">a</text><text xml:space="preserve" font-family="FinancierDisplay-Regular" font-size="48.0" fill="#000000" transform="matrix(1.00, 0.00, -0.00, -1.00, 611.6, 211.0)">t</text><text xml:space="preserve" font-family="FinancierDisplay-Regular" font-size="48.0" fill="#000000" transform="matrix(1.00, 0.00, -0.00, -1.00, 626.2, 211.0)">a</text><text xml:space="preserve" font-family="FinancierDisplay-Regular" font-size="48.0" fill="#000000" transform="matrix(1.00, 0.00, -0.00, -1.00, 646.0, 211.0)"> </text><text xml:space="preserve" font-family="FinancierDisplay-Regular" font-size="48.0" fill="#000000" transform="matrix(1.00, 0.00, -0.00, -1.00, 654.2, 211.0)">(</text><text xml:space="preserve" font-family="FinancierDisplay-Regular" font-size="48.0" fill="#000000" transform="matrix(1.00, 0.00, -0.00, -1.00, 668.9, 211.0)">v</text><text xml:space="preserve" font-family="FinancierDisplay-Regular" font-size="48.0" fill="#000000" transform="matrix(1.00, 0.00, -0.00, -1.00, 691.3, 211.0)">i</text><text xml:space="preserve" font-family="FinancierDisplay-Regular" font-size="48.0" fill="#000000" transform="matrix(1.00, 0.00, -0.00, -1.00, 702.6, 211.0)">z</text><text xml:space="preserve" font-family="FinancierDisplay-Regular" font-size="48.0" fill="#000000" transform="matrix(1.00, 0.00, -0.00, -1.00, 722.6, 211.0)">)</text><text xml:space="preserve" font-family="FinancierDisplay-Regular" font-size="48.0" fill="#000000" transform="matrix(1.00, 0.00, -0.00, -1.00, 737.2, 211.0)"> </text><text xml:space="preserve" font-family="FinancierDisplay-Regular" font-size="48.0" fill="#000000" transform="matrix(1.00, 0.00, -0.00, -1.00, 745.4, 211.0)">l</text><text xml:space="preserve" font-family="FinancierDisplay-Regular" font-size="48.0" fill="#000000" transform="matrix(1.00, 0.00, -0.00, -1.00, 756.5, 211.0)">i</text><text xml:space="preserve" font-family="FinancierDisplay-Regular" font-size="48.0" fill="#000000" transform="matrix(1.00, 0.00, -0.00, -1.00, 767.9, 211.0)">t</text><text xml:space="preserve" font-family="FinancierDisplay-Regular" font-size="48.0" fill="#000000" transform="matrix(1.00, 0.00, -0.00, -1.00, 782.4, 211.0)">e</text><text xml:space="preserve" font-family="FinancierDisplay-Regular" font-size="48.0" fill="#000000" transform="matrix(1.00, 0.00, -0.00, -1.00, 801.7, 211.0)">r</text><text xml:space="preserve" font-family="FinancierDisplay-Regular" font-size="48.0" fill="#000000" transform="matrix(1.00, 0.00, -0.00, -1.00, 818.7, 211.0)">a</text><text xml:space="preserve" font-family="FinancierDisplay-Regular" font-size="48.0" fill="#000000" transform="matrix(1.00, 0.00, -0.00, -1.00, 838.5, 211.0)">c</text><text xml:space="preserve" font-family="FinancierDisplay-Regular" font-size="48.0" fill="#000000" transform="matrix(1.00, 0.00, -0.00, -1.00, 856.9, 211.0)">y</text><text xml:space="preserve" font-family="FinancierDisplay-Regular" font-size="48.0" fill="#000000" transform="matrix(1.00, 0.00, -0.00, -1.00, 879.3, 211.0)"> </text><text xml:space="preserve" font-family="FinancierDisplay-Regular" font-size="36.0" fill="#000000" transform="matrix(1.00, 0.00, -0.00, -1.00, 139.0, 162.1)">•</text><text xml:space="preserve" font-family="FinancierDisplay-RegularItalic" font-style="italic" font-size="48.0" fill="#000000" transform="matrix(1.00, 0.00, -0.00, -1.00, 197.0, 159.0)">C</text><text xml:space="preserve" font-family="FinancierDisplay-RegularItalic" font-style="italic" font-size="48.0" fill="#000000" transform="matrix(1.00, 0.00, -0.00, -1.00, 219.7, 159.0)">h</text><text xml:space="preserve" font-family="FinancierDisplay-RegularItalic" font-style="italic" font-size="48.0" fill="#000000" transform="matrix(1.00, 0.00, -0.00, -1.00, 241.8, 159.0)">a</text><text xml:space="preserve" font-family="FinancierDisplay-RegularItalic" font-style="italic" font-size="48.0" fill="#000000" transform="matrix(1.00, 0.00, -0.00, -1.00, 262.1, 159.0)">r</text><text xml:space="preserve" font-family="FinancierDisplay-RegularItalic" font-style="italic" font-size="48.0" fill="#000000" transform="matrix(1.00, 0.00, -0.00, -1.00, 278.3, 159.0)">t</text><text xml:space="preserve" font-family="FinancierDisplay-RegularItalic" font-style="italic" font-size="48.0" fill="#000000" transform="matrix(1.00, 0.00, -0.00, -1.00, 291.5, 159.0)"> </text><text xml:space="preserve" font-family="FinancierDisplay-RegularItalic" font-style="italic" font-size="48.0" fill="#000000" transform="matrix(1.00, 0.00, -0.00, -1.00, 299.6, 159.0)">D</text><text xml:space="preserve" font-family="FinancierDisplay-RegularItalic" font-style="italic" font-size="48.0" fill="#000000" transform="matrix(1.00, 0.00, -0.00, -1.00, 327.4, 159.0)">o</text><text xml:space="preserve" font-family="FinancierDisplay-RegularItalic" font-style="italic" font-size="48.0" fill="#000000" transform="matrix(1.00, 0.00, -0.00, -1.00, 347.0, 159.0)">c</text><text xml:space="preserve" font-family="FinancierDisplay-RegularItalic" font-style="italic" font-size="48.0" fill="#000000" transform="matrix(1.00, 0.00, -0.00, -1.00, 363.5, 159.0)">t</text><text xml:space="preserve" font-family="FinancierDisplay-RegularItalic" font-style="italic" font-size="48.0" fill="#000000" transform="matrix(1.00, 0.00, -0.00, -1.00, 376.7, 159.0)">o</text><text xml:space="preserve" font-family="FinancierDisplay-RegularItalic" font-style="italic" font-size="48.0" fill="#000000" transform="matrix(1.00, 0.00, -0.00, -1.00, 396.0, 159.0)">r</text><text xml:space="preserve" font-family="FinancierDisplay-Regular" font-size="48.0" fill="#000000" transform="matrix(1.00, 0.00, -0.00, -1.00, 412.1, 159.0)"> </text><text xml:space="preserve" font-family="FinancierDisplay-Regular" font-size="48.0" fill="#000000" transform="matrix(1.00, 0.00, -0.00, -1.00, 420.3, 159.0)">t</text><text xml:space="preserve" font-family="FinancierDisplay-Regular" font-size="48.0" fill="#000000" transform="matrix(1.00, 0.00, -0.00, -1.00, 434.8, 159.0)">o</text><text xml:space="preserve" font-family="FinancierDisplay-Regular" font-size="48.0" fill="#000000" transform="matrix(1.00, 0.00, -0.00, -1.00, 456.6, 159.0)"> </text><text xml:space="preserve" font-family="FinancierDisplay-Regular" font-size="48.0" fill="#000000" transform="matrix(1.00, 0.00, -0.00, -1.00, 464.7, 159.0)">p</text><text xml:space="preserve" font-family="FinancierDisplay-Regular" font-size="48.0" fill="#000000" transform="matrix(1.00, 0.00, -0.00, -1.00, 488.1, 159.0)">u</text><text xml:space="preserve" font-family="FinancierDisplay-Regular" font-size="48.0" fill="#000000" transform="matrix(1.00, 0.00, -0.00, -1.00, 510.9, 159.0)">b</text><text xml:space="preserve" font-family="FinancierDisplay-Regular" font-size="48.0" fill="#000000" transform="matrix(1.00, 0.00, -0.00, -1.00, 534.0, 159.0)">l</text><text xml:space="preserve" font-family="FinancierDisplay-Regular" font-size="48.0" fill="#000000" transform="matrix(1.00, 0.00, -0.00, -1.00, 545.1, 159.0)">i</text><text xml:space="preserve" font-family="FinancierDisplay-Regular" font-size="48.0" fill="#000000" transform="matrix(1.00, 0.00, -0.00, -1.00, 556.4, 159.0)">c</text><text xml:space="preserve" font-family="FinancierDisplay-Regular" font-size="48.0" fill="#000000" transform="matrix(1.00, 0.00, -0.00, -1.00, 574.8, 159.0)">l</text><text xml:space="preserve" font-family="FinancierDisplay-Regular" font-size="48.0" fill="#000000" transform="matrix(1.00, 0.00, -0.00, -1.00, 585.2, 159.0)">y</text><text xml:space="preserve" font-family="FinancierDisplay-Regular" font-size="48.0" fill="#000000" transform="matrix(1.00, 0.00, -0.00, -1.00, 607.6, 159.0)"> </text><text xml:space="preserve" font-family="FinancierDisplay-Regular" font-size="48.0" fill="#000000" transform="matrix(1.00, 0.00, -0.00, -1.00, 615.8, 159.0)">c</text><text xml:space="preserve" font-family="FinancierDisplay-Regular" font-size="48.0" fill="#000000" transform="matrix(1.00, 0.00, -0.00, -1.00, 634.3, 159.0)">o</text><text xml:space="preserve" font-family="FinancierDisplay-Regular" font-size="48.0" fill="#000000" transform="matrix(1.00, 0.00, -0.00, -1.00, 656.6, 159.0)">d</text><text xml:space="preserve" font-family="FinancierDisplay-Regular" font-size="48.0" fill="#000000" transform="matrix(1.00, 0.00, -0.00, -1.00, 679.7, 159.0)">i</text><text xml:space="preserve" font-family="FinancierDisplay-Regular" font-size="48.0" fill="#000000" transform="matrix(1.00, 0.00, -0.00, -1.00, 691.1, 159.0)">f</text><text xml:space="preserve" font-family="FinancierDisplay-Regular" font-size="48.0" fill="#000000" transform="matrix(1.00, 0.00, -0.00, -1.00, 703.9, 159.0)">y</text><text xml:space="preserve" font-family="FinancierDisplay-Regular" font-size="48.0" fill="#000000" transform="matrix(1.00, 0.00, -0.00, -1.00, 726.3, 159.0)"> </text><text xml:space="preserve" font-family="FinancierDisplay-Regular" font-size="48.0" fill="#000000" transform="matrix(1.00, 0.00, -0.00, -1.00, 734.5, 159.0)">p</text><text xml:space="preserve" font-family="FinancierDisplay-Regular" font-size="48.0" fill="#000000" transform="matrix(1.00, 0.00, -0.00, -1.00, 757.9, 159.0)">r</text><text xml:space="preserve" font-family="FinancierDisplay-Regular" font-size="48.0" fill="#000000" transform="matrix(1.00, 0.00, -0.00, -1.00, 775.1, 159.0)">i</text><text xml:space="preserve" font-family="FinancierDisplay-Regular" font-size="48.0" fill="#000000" transform="matrix(1.00, 0.00, -0.00, -1.00, 786.4, 159.0)">n</text><text xml:space="preserve" font-family="FinancierDisplay-Regular" font-size="48.0" fill="#000000" transform="matrix(1.00, 0.00, -0.00, -1.00, 810.3, 159.0)">c</text><text xml:space="preserve" font-family="FinancierDisplay-Regular" font-size="48.0" fill="#000000" transform="matrix(1.00, 0.00, -0.00, -1.00, 828.8, 159.0)">i</text><text xml:space="preserve" font-family="FinancierDisplay-Regular" font-size="48.0" fill="#000000" transform="matrix(1.00, 0.00, -0.00, -1.00, 840.1, 159.0)">p</text><text xml:space="preserve" font-family="FinancierDisplay-Regular" font-size="48.0" fill="#000000" transform="matrix(1.00, 0.00, -0.00, -1.00, 863.5, 159.0)">l</text><text xml:space="preserve" font-family="FinancierDisplay-Regular" font-size="48.0" fill="#000000" transform="matrix(1.00, 0.00, -0.00, -1.00, 874.6, 159.0)">e</text><text xml:space="preserve" font-family="FinancierDisplay-Regular" font-size="48.0" fill="#000000" transform="matrix(1.00, 0.00, -0.00, -1.00, 894.0, 159.0)">s</text></g></svg>