<?xml version="1.0" encoding="UTF-8" standalone="no"?><svg xmlns="http://www.w3.org/2000/svg" xmlns:xlink="http://www.w3.org/1999/xlink" clip-rule="evenodd" stroke-miterlimit="4.00" viewBox="0 0 796 57"><desc>SVG generated by Keynote</desc><defs></defs><g transform="matrix(1.00, 0.00, -0.00, -1.00, 0.0, 57.0)"><text xml:space="preserve" font-family="FinancierDisplay-Regular" font-size="45.0" fill="#000000" transform="matrix(1.00, 0.00, -0.00, -1.00, 0.0, 18.2)">•</text><text xml:space="preserve" font-family="FinancierDisplay-Regular" font-size="60.0" fill="#000000" transform="matrix(1.00, 0.00, -0.00, -1.00, 58.0, 14.0)">D</text><text xml:space="preserve" font-family="FinancierDisplay-Regular" font-size="60.0" fill="#000000" transform="matrix(1.00, 0.00, -0.00, -1.00, 96.5, 14.0)">e</text><text xml:space="preserve" font-family="FinancierDisplay-Regular" font-size="60.0" fill="#000000" transform="matrix(1.00, 0.00, -0.00, -1.00, 119.4, 14.0)">v</text><text xml:space="preserve" font-family="FinancierDisplay-Regular" font-size="60.0" fill="#000000" transform="matrix(1.00, 0.00, -0.00, -1.00, 145.6, 14.0)">e</text><text xml:space="preserve" font-family="FinancierDisplay-Regular" font-size="60.0" fill="#000000" transform="matrix(1.00, 0.00, -0.00, -1.00, 169.8, 14.0)">l</text><text xml:space="preserve" font-family="FinancierDisplay-Regular" font-size="60.0" fill="#000000" transform="matrix(1.00, 0.00, -0.00, -1.00, 183.7, 14.0)">o</text><text xml:space="preserve" font-family="FinancierDisplay-Regular" font-size="60.0" fill="#000000" transform="matrix(1.00, 0.00, -0.00, -1.00, 210.9, 14.0)">p</text><text xml:space="preserve" font-family="FinancierDisplay-Regular" font-size="60.0" fill="#000000" transform="matrix(1.00, 0.00, -0.00, -1.00, 240.2, 14.0)"> </text><text xml:space="preserve" font-family="FinancierDisplay-Regular" font-size="60.0" fill="#000000" transform="matrix(1.00, 0.00, -0.00, -1.00, 250.4, 14.0)">c</text><text xml:space="preserve" font-family="FinancierDisplay-Regular" font-size="60.0" fill="#000000" transform="matrix(1.00, 0.00, -0.00, -1.00, 273.5, 14.0)">r</text><text xml:space="preserve" font-family="FinancierDisplay-Regular" font-size="60.0" fill="#000000" transform="matrix(1.00, 0.00, -0.00, -1.00, 294.2, 14.0)">o</text><text xml:space="preserve" font-family="FinancierDisplay-Regular" font-size="60.0" fill="#000000" transform="matrix(1.00, 0.00, -0.00, -1.00, 321.5, 14.0)">s</text><text xml:space="preserve" font-family="FinancierDisplay-Regular" font-size="60.0" fill="#000000" transform="matrix(1.00, 0.00, -0.00, -1.00, 342.5, 14.0)">s</text><text xml:space="preserve" font-family="FinancierDisplay-Regular" font-size="60.0" fill="#000000" transform="matrix(1.00, 0.00, -0.00, -1.00, 363.6, 14.0)">-</text><text xml:space="preserve" font-family="FinancierDisplay-Regular" font-size="60.0" fill="#000000" transform="matrix(1.00, 0.00, -0.00, -1.00, 379.7, 14.0)">p</text><text xml:space="preserve" font-family="FinancierDisplay-Regular" font-size="60.0" fill="#000000" transform="matrix(1.00, 0.00, -0.00, -1.00, 408.9, 14.0)">l</text><text xml:space="preserve" font-family="FinancierDisplay-Regular" font-size="60.0" fill="#000000" transform="matrix(1.00, 0.00, -0.00, -1.00, 422.8, 14.0)">a</text><text xml:space="preserve" font-family="FinancierDisplay-Regular" font-size="60.0" fill="#000000" transform="matrix(1.00, 0.00, -0.00, -1.00, 447.6, 14.0)">t</text><text xml:space="preserve" font-family="FinancierDisplay-Regular" font-size="60.0" fill="#000000" transform="matrix(1.00, 0.00, -0.00, -1.00, 465.8, 14.0)">f</text><text xml:space="preserve" font-family="FinancierDisplay-Regular" font-size="60.0" fill="#000000" transform="matrix(1.00, 0.00, -0.00, -1.00, 482.0, 14.0)">o</text><text xml:space="preserve" font-family="FinancierDisplay-Regular" font-size="60.0" fill="#000000" transform="matrix(1.00, 0.00, -0.00, -1.00, 509.3, 14.0)">r</text><text xml:space="preserve" font-family="FinancierDisplay-Regular" font-size="60.0" fill="#000000" transform="matrix(1.00, 0.00, -0.00, -1.00, 530.7, 14.0)">m</text><text xml:space="preserve" font-family="FinancierDisplay-Regular" font-size="60.0" fill="#000000" transform="matrix(1.00, 0.00, -0.00, -1.00, 576.0, 14.0)"> </text><text xml:space="preserve" font-family="FinancierDisplay-Regular" font-size="60.0" fill="#000000" transform="matrix(1.00, 0.00, -0.00, -1.00, 586.2, 14.0)">w</text><text xml:space="preserve" font-family="FinancierDisplay-Regular" font-size="60.0" fill="#000000" transform="matrix(1.00, 0.00, -0.00, -1.00, 623.4, 14.0)">o</text><text xml:space="preserve" font-family="FinancierDisplay-Regular" font-size="60.0" fill="#000000" transform="matrix(1.00, 0.00, -0.00, -1.00, 650.7, 14.0)">r</text><text xml:space="preserve" font-family="FinancierDisplay-Regular" font-size="60.0" fill="#000000" transform="matrix(1.00, 0.00, -0.00, -1.00, 671.4, 14.0)">k</text><text xml:space="preserve" font-family="FinancierDisplay-Regular" font-size="60.0" fill="#000000" transform="matrix(1.00, 0.00, -0.00, -1.00, 700.3, 14.0)">ﬂ</text><text xml:space="preserve" font-family="FinancierDisplay-Regular" font-size="60.0" fill="#000000" transform="matrix(1.00, 0.00, -0.00, -1.00, 729.9, 14.0)">o</text><text xml:space="preserve" font-family="FinancierDisplay-Regular" font-size="60.0" fill="#000000" transform="matrix(1.00, 0.00, -0.00, -1.00, 755.3, 14.0)">w</text></g></svg>