<?xml version="1.0" encoding="UTF-8" standalone="no"?><svg xmlns="http://www.w3.org/2000/svg" xmlns:xlink="http://www.w3.org/1999/xlink" clip-rule="evenodd" stroke-miterlimit="4.00" viewBox="0 0 247 41"><desc>SVG generated by Keynote</desc><defs></defs><g transform="matrix(1.00, 0.00, -0.00, -1.00, 0.0, 41.0)"><text xml:space="preserve" font-family="FinancierDisplay-Regular" font-size="36.0" fill="#000000" transform="matrix(1.00, 0.00, -0.00, -1.00, 0.0, 9.6)">•</text><text xml:space="preserve" font-family="FinancierDisplay-Regular" font-size="48.0" fill="#000000" transform="matrix(1.00, 0.00, -0.00, -1.00, 58.0, 3.0)">S</text><text xml:space="preserve" font-family="FinancierDisplay-Regular" font-size="48.0" fill="#000000" transform="matrix(1.00, 0.00, -0.00, -1.00, 79.6, 3.0)">t</text><text xml:space="preserve" font-family="FinancierDisplay-Regular" font-size="48.0" fill="#000000" transform="matrix(1.00, 0.00, -0.00, -1.00, 94.2, 3.0)">a</text><text xml:space="preserve" font-family="FinancierDisplay-Regular" font-size="48.0" fill="#000000" transform="matrix(1.00, 0.00, -0.00, -1.00, 114.1, 3.0)">r</text><text xml:space="preserve" font-family="FinancierDisplay-Regular" font-size="48.0" fill="#000000" transform="matrix(1.00, 0.00, -0.00, -1.00, 131.2, 3.0)">t</text><text xml:space="preserve" font-family="FinancierDisplay-Regular" font-size="48.0" fill="#000000" transform="matrix(1.00, 0.00, -0.00, -1.00, 145.7, 3.0)">e</text><text xml:space="preserve" font-family="FinancierDisplay-Regular" font-size="48.0" fill="#000000" transform="matrix(1.00, 0.00, -0.00, -1.00, 165.1, 3.0)">r</text><text xml:space="preserve" font-family="FinancierDisplay-Regular" font-size="48.0" fill="#000000" transform="matrix(1.00, 0.00, -0.00, -1.00, 182.3, 3.0)"> </text><text xml:space="preserve" font-family="FinancierDisplay-Regular" font-size="48.0" fill="#000000" transform="matrix(1.00, 0.00, -0.00, -1.00, 190.4, 3.0)">K</text><text xml:space="preserve" font-family="FinancierDisplay-Regular" font-size="48.0" fill="#000000" transform="matrix(1.00, 0.00, -0.00, -1.00, 219.2, 3.0)">i</text><text xml:space="preserve" font-family="FinancierDisplay-Regular" font-size="48.0" fill="#000000" transform="matrix(1.00, 0.00, -0.00, -1.00, 230.6, 3.0)">t</text></g></svg>