<?xml version="1.0" encoding="UTF-8" standalone="no"?><svg xmlns="http://www.w3.org/2000/svg" xmlns:xlink="http://www.w3.org/1999/xlink" clip-rule="evenodd" stroke-miterlimit="4.00" viewBox="0 0 530 50"><desc>SVG generated by Keynote</desc><defs></defs><g transform="matrix(1.00, 0.00, -0.00, -1.00, 0.0, 50.0)"><text xml:space="preserve" font-family="FinancierDisplay-Regular" font-size="45.0" fill="#000000" transform="matrix(1.00, 0.00, -0.00, -1.00, 0.0, 11.2)">•</text><text xml:space="preserve" font-family="FinancierDisplay-Regular" font-size="60.0" fill="#000000" transform="matrix(1.00, 0.00, -0.00, -1.00, 58.0, 7.0)">N</text><text xml:space="preserve" font-family="FinancierDisplay-Regular" font-size="60.0" fill="#000000" transform="matrix(1.00, 0.00, -0.00, -1.00, 96.0, 7.0)">e</text><text xml:space="preserve" font-family="FinancierDisplay-Regular" font-size="60.0" fill="#000000" transform="matrix(1.00, 0.00, -0.00, -1.00, 119.0, 7.0)">w</text><text xml:space="preserve" font-family="FinancierDisplay-Regular" font-size="60.0" fill="#000000" transform="matrix(1.00, 0.00, -0.00, -1.00, 156.9, 7.0)">s</text><text xml:space="preserve" font-family="FinancierDisplay-Regular" font-size="60.0" fill="#000000" transform="matrix(1.00, 0.00, -0.00, -1.00, 177.9, 7.0)">r</text><text xml:space="preserve" font-family="FinancierDisplay-Regular" font-size="60.0" fill="#000000" transform="matrix(1.00, 0.00, -0.00, -1.00, 198.6, 7.0)">o</text><text xml:space="preserve" font-family="FinancierDisplay-Regular" font-size="60.0" fill="#000000" transform="matrix(1.00, 0.00, -0.00, -1.00, 226.5, 7.0)">o</text><text xml:space="preserve" font-family="FinancierDisplay-Regular" font-size="60.0" fill="#000000" transform="matrix(1.00, 0.00, -0.00, -1.00, 253.7, 7.0)">m</text><text xml:space="preserve" font-family="FinancierDisplay-Regular" font-size="60.0" fill="#000000" transform="matrix(1.00, 0.00, -0.00, -1.00, 299.0, 7.0)"> </text><text xml:space="preserve" font-family="FinancierDisplay-Regular" font-size="60.0" fill="#000000" transform="matrix(1.00, 0.00, -0.00, -1.00, 309.2, 7.0)">e</text><text xml:space="preserve" font-family="FinancierDisplay-Regular" font-size="60.0" fill="#000000" transform="matrix(1.00, 0.00, -0.00, -1.00, 333.3, 7.0)">d</text><text xml:space="preserve" font-family="FinancierDisplay-Regular" font-size="60.0" fill="#000000" transform="matrix(1.00, 0.00, -0.00, -1.00, 362.3, 7.0)">u</text><text xml:space="preserve" font-family="FinancierDisplay-Regular" font-size="60.0" fill="#000000" transform="matrix(1.00, 0.00, -0.00, -1.00, 391.1, 7.0)">c</text><text xml:space="preserve" font-family="FinancierDisplay-Regular" font-size="60.0" fill="#000000" transform="matrix(1.00, 0.00, -0.00, -1.00, 414.2, 7.0)">a</text><text xml:space="preserve" font-family="FinancierDisplay-Regular" font-size="60.0" fill="#000000" transform="matrix(1.00, 0.00, -0.00, -1.00, 438.9, 7.0)">t</text><text xml:space="preserve" font-family="FinancierDisplay-Regular" font-size="60.0" fill="#000000" transform="matrix(1.00, 0.00, -0.00, -1.00, 457.2, 7.0)">i</text><text xml:space="preserve" font-family="FinancierDisplay-Regular" font-size="60.0" fill="#000000" transform="matrix(1.00, 0.00, -0.00, -1.00, 471.3, 7.0)">o</text><text xml:space="preserve" font-family="FinancierDisplay-Regular" font-size="60.0" fill="#000000" transform="matrix(1.00, 0.00, -0.00, -1.00, 498.6, 7.0)">n</text></g></svg>