<?xml version="1.0" encoding="UTF-8" standalone="no"?><svg xmlns="http://www.w3.org/2000/svg" xmlns:xlink="http://www.w3.org/1999/xlink" clip-rule="evenodd" stroke-miterlimit="4.00" viewBox="0 0 743 47"><desc>SVG generated by Keynote</desc><defs></defs><g transform="matrix(1.00, 0.00, -0.00, -1.00, 0.0, 47.0)"><text xml:space="preserve" font-family="FinancierDisplay-Regular" font-size="36.0" fill="#000000" transform="matrix(1.00, 0.00, -0.00, -1.00, 0.0, 15.1)">•</text><text xml:space="preserve" font-family="FinancierDisplay-RegularItalic" font-style="italic" font-size="48.0" fill="#000000" transform="matrix(1.00, 0.00, -0.00, -1.00, 58.0, 12.0)">V</text><text xml:space="preserve" font-family="FinancierDisplay-RegularItalic" font-style="italic" font-size="48.0" fill="#000000" transform="matrix(1.00, 0.00, -0.00, -1.00, 86.3, 12.0)">i</text><text xml:space="preserve" font-family="FinancierDisplay-RegularItalic" font-style="italic" font-size="48.0" fill="#000000" transform="matrix(1.00, 0.00, -0.00, -1.00, 96.8, 12.0)">s</text><text xml:space="preserve" font-family="FinancierDisplay-RegularItalic" font-style="italic" font-size="48.0" fill="#000000" transform="matrix(1.00, 0.00, -0.00, -1.00, 112.0, 12.0)">u</text><text xml:space="preserve" font-family="FinancierDisplay-RegularItalic" font-style="italic" font-size="48.0" fill="#000000" transform="matrix(1.00, 0.00, -0.00, -1.00, 133.6, 12.0)">a</text><text xml:space="preserve" font-family="FinancierDisplay-RegularItalic" font-style="italic" font-size="48.0" fill="#000000" transform="matrix(1.00, 0.00, -0.00, -1.00, 153.9, 12.0)">l</text><text xml:space="preserve" font-family="FinancierDisplay-RegularItalic" font-style="italic" font-size="48.0" fill="#000000" transform="matrix(1.00, 0.00, -0.00, -1.00, 163.9, 12.0)"> </text><text xml:space="preserve" font-family="FinancierDisplay-RegularItalic" font-style="italic" font-size="48.0" fill="#000000" transform="matrix(1.00, 0.00, -0.00, -1.00, 172.1, 12.0)">V</text><text xml:space="preserve" font-family="FinancierDisplay-RegularItalic" font-style="italic" font-size="48.0" fill="#000000" transform="matrix(1.00, 0.00, -0.00, -1.00, 196.2, 12.0)">o</text><text xml:space="preserve" font-family="FinancierDisplay-RegularItalic" font-style="italic" font-size="48.0" fill="#000000" transform="matrix(1.00, 0.00, -0.00, -1.00, 215.8, 12.0)">c</text><text xml:space="preserve" font-family="FinancierDisplay-RegularItalic" font-style="italic" font-size="48.0" fill="#000000" transform="matrix(1.00, 0.00, -0.00, -1.00, 232.3, 12.0)">a</text><text xml:space="preserve" font-family="FinancierDisplay-RegularItalic" font-style="italic" font-size="48.0" fill="#000000" transform="matrix(1.00, 0.00, -0.00, -1.00, 252.4, 12.0)">b</text><text xml:space="preserve" font-family="FinancierDisplay-RegularItalic" font-style="italic" font-size="48.0" fill="#000000" transform="matrix(1.00, 0.00, -0.00, -1.00, 272.7, 12.0)">u</text><text xml:space="preserve" font-family="FinancierDisplay-RegularItalic" font-style="italic" font-size="48.0" fill="#000000" transform="matrix(1.00, 0.00, -0.00, -1.00, 294.3, 12.0)">l</text><text xml:space="preserve" font-family="FinancierDisplay-RegularItalic" font-style="italic" font-size="48.0" fill="#000000" transform="matrix(1.00, 0.00, -0.00, -1.00, 304.3, 12.0)">a</text><text xml:space="preserve" font-family="FinancierDisplay-RegularItalic" font-style="italic" font-size="48.0" fill="#000000" transform="matrix(1.00, 0.00, -0.00, -1.00, 324.6, 12.0)">r</text><text xml:space="preserve" font-family="FinancierDisplay-RegularItalic" font-style="italic" font-size="48.0" fill="#000000" transform="matrix(1.00, 0.00, -0.00, -1.00, 340.8, 12.0)">y</text><text xml:space="preserve" font-family="FinancierDisplay-RegularItalic" font-style="italic" font-size="48.0" fill="#000000" transform="matrix(1.00, 0.00, -0.00, -1.00, 361.4, 12.0)"> </text><text xml:space="preserve" font-family="FinancierDisplay-Regular" font-size="48.0" fill="#000000" transform="matrix(1.00, 0.00, -0.00, -1.00, 369.5, 12.0)">f</text><text xml:space="preserve" font-family="FinancierDisplay-Regular" font-size="48.0" fill="#000000" transform="matrix(1.00, 0.00, -0.00, -1.00, 382.5, 12.0)">o</text><text xml:space="preserve" font-family="FinancierDisplay-Regular" font-size="48.0" fill="#000000" transform="matrix(1.00, 0.00, -0.00, -1.00, 404.3, 12.0)">r</text><text xml:space="preserve" font-family="FinancierDisplay-Regular" font-size="48.0" fill="#000000" transform="matrix(1.00, 0.00, -0.00, -1.00, 421.5, 12.0)"> </text><text xml:space="preserve" font-family="FinancierDisplay-Regular" font-size="48.0" fill="#000000" transform="matrix(1.00, 0.00, -0.00, -1.00, 429.6, 12.0)">d</text><text xml:space="preserve" font-family="FinancierDisplay-Regular" font-size="48.0" fill="#000000" transform="matrix(1.00, 0.00, -0.00, -1.00, 452.8, 12.0)">a</text><text xml:space="preserve" font-family="FinancierDisplay-Regular" font-size="48.0" fill="#000000" transform="matrix(1.00, 0.00, -0.00, -1.00, 472.6, 12.0)">t</text><text xml:space="preserve" font-family="FinancierDisplay-Regular" font-size="48.0" fill="#000000" transform="matrix(1.00, 0.00, -0.00, -1.00, 487.2, 12.0)">a</text><text xml:space="preserve" font-family="FinancierDisplay-Regular" font-size="48.0" fill="#000000" transform="matrix(1.00, 0.00, -0.00, -1.00, 507.0, 12.0)"> </text><text xml:space="preserve" font-family="FinancierDisplay-Regular" font-size="48.0" fill="#000000" transform="matrix(1.00, 0.00, -0.00, -1.00, 515.2, 12.0)">(</text><text xml:space="preserve" font-family="FinancierDisplay-Regular" font-size="48.0" fill="#000000" transform="matrix(1.00, 0.00, -0.00, -1.00, 529.9, 12.0)">v</text><text xml:space="preserve" font-family="FinancierDisplay-Regular" font-size="48.0" fill="#000000" transform="matrix(1.00, 0.00, -0.00, -1.00, 552.3, 12.0)">i</text><text xml:space="preserve" font-family="FinancierDisplay-Regular" font-size="48.0" fill="#000000" transform="matrix(1.00, 0.00, -0.00, -1.00, 563.6, 12.0)">z</text><text xml:space="preserve" font-family="FinancierDisplay-Regular" font-size="48.0" fill="#000000" transform="matrix(1.00, 0.00, -0.00, -1.00, 583.6, 12.0)">)</text><text xml:space="preserve" font-family="FinancierDisplay-Regular" font-size="48.0" fill="#000000" transform="matrix(1.00, 0.00, -0.00, -1.00, 598.2, 12.0)"> </text><text xml:space="preserve" font-family="FinancierDisplay-Regular" font-size="48.0" fill="#000000" transform="matrix(1.00, 0.00, -0.00, -1.00, 606.4, 12.0)">l</text><text xml:space="preserve" font-family="FinancierDisplay-Regular" font-size="48.0" fill="#000000" transform="matrix(1.00, 0.00, -0.00, -1.00, 617.5, 12.0)">i</text><text xml:space="preserve" font-family="FinancierDisplay-Regular" font-size="48.0" fill="#000000" transform="matrix(1.00, 0.00, -0.00, -1.00, 628.9, 12.0)">t</text><text xml:space="preserve" font-family="FinancierDisplay-Regular" font-size="48.0" fill="#000000" transform="matrix(1.00, 0.00, -0.00, -1.00, 643.4, 12.0)">e</text><text xml:space="preserve" font-family="FinancierDisplay-Regular" font-size="48.0" fill="#000000" transform="matrix(1.00, 0.00, -0.00, -1.00, 662.7, 12.0)">r</text><text xml:space="preserve" font-family="FinancierDisplay-Regular" font-size="48.0" fill="#000000" transform="matrix(1.00, 0.00, -0.00, -1.00, 679.7, 12.0)">a</text><text xml:space="preserve" font-family="FinancierDisplay-Regular" font-size="48.0" fill="#000000" transform="matrix(1.00, 0.00, -0.00, -1.00, 699.5, 12.0)">c</text><text xml:space="preserve" font-family="FinancierDisplay-Regular" font-size="48.0" fill="#000000" transform="matrix(1.00, 0.00, -0.00, -1.00, 717.9, 12.0)">y</text></g></svg>