<?xml version="1.0" encoding="UTF-8" standalone="no"?><svg xmlns="http://www.w3.org/2000/svg" xmlns:xlink="http://www.w3.org/1999/xlink" clip-rule="evenodd" stroke-miterlimit="4.00" viewBox="0 0 660 55"><desc>SVG generated by Keynote</desc><defs></defs><g transform="matrix(1.00, 0.00, -0.00, -1.00, 0.0, 55.0)"><text xml:space="preserve" font-family="FinancierDisplay-Regular" font-size="60.0" fill="#000000" transform="matrix(1.00, 0.00, -0.00, -1.00, 1.0, 14.0)">E</text><text xml:space="preserve" font-family="FinancierDisplay-Regular" font-size="60.0" fill="#000000" transform="matrix(1.00, 0.00, -0.00, -1.00, 32.6, 14.0)">x</text><text xml:space="preserve" font-family="FinancierDisplay-Regular" font-size="60.0" fill="#000000" transform="matrix(1.00, 0.00, -0.00, -1.00, 60.7, 14.0)">p</text><text xml:space="preserve" font-family="FinancierDisplay-Regular" font-size="60.0" fill="#000000" transform="matrix(1.00, 0.00, -0.00, -1.00, 89.9, 14.0)">a</text><text xml:space="preserve" font-family="FinancierDisplay-Regular" font-size="60.0" fill="#000000" transform="matrix(1.00, 0.00, -0.00, -1.00, 114.7, 14.0)">n</text><text xml:space="preserve" font-family="FinancierDisplay-Regular" font-size="60.0" fill="#000000" transform="matrix(1.00, 0.00, -0.00, -1.00, 144.6, 14.0)">d</text><text xml:space="preserve" font-family="FinancierDisplay-Regular" font-size="60.0" fill="#000000" transform="matrix(1.00, 0.00, -0.00, -1.00, 173.6, 14.0)">e</text><text xml:space="preserve" font-family="FinancierDisplay-Regular" font-size="60.0" fill="#000000" transform="matrix(1.00, 0.00, -0.00, -1.00, 197.7, 14.0)">d</text><text xml:space="preserve" font-family="FinancierDisplay-Regular" font-size="60.0" fill="#000000" transform="matrix(1.00, 0.00, -0.00, -1.00, 226.7, 14.0)"> </text><text xml:space="preserve" font-family="FinancierDisplay-Regular" font-size="60.0" fill="#000000" transform="matrix(1.00, 0.00, -0.00, -1.00, 236.9, 14.0)">r</text><text xml:space="preserve" font-family="FinancierDisplay-Regular" font-size="60.0" fill="#000000" transform="matrix(1.00, 0.00, -0.00, -1.00, 258.2, 14.0)">a</text><text xml:space="preserve" font-family="FinancierDisplay-Regular" font-size="60.0" fill="#000000" transform="matrix(1.00, 0.00, -0.00, -1.00, 282.9, 14.0)">n</text><text xml:space="preserve" font-family="FinancierDisplay-Regular" font-size="60.0" fill="#000000" transform="matrix(1.00, 0.00, -0.00, -1.00, 312.8, 14.0)">g</text><text xml:space="preserve" font-family="FinancierDisplay-Regular" font-size="60.0" fill="#000000" transform="matrix(1.00, 0.00, -0.00, -1.00, 337.4, 14.0)">e</text><text xml:space="preserve" font-family="FinancierDisplay-Regular" font-size="60.0" fill="#000000" transform="matrix(1.00, 0.00, -0.00, -1.00, 361.5, 14.0)"> </text><text xml:space="preserve" font-family="FinancierDisplay-Regular" font-size="60.0" fill="#000000" transform="matrix(1.00, 0.00, -0.00, -1.00, 371.7, 14.0)">o</text><text xml:space="preserve" font-family="FinancierDisplay-Regular" font-size="60.0" fill="#000000" transform="matrix(1.00, 0.00, -0.00, -1.00, 399.0, 14.0)">f</text><text xml:space="preserve" font-family="FinancierDisplay-Regular" font-size="60.0" fill="#000000" transform="matrix(1.00, 0.00, -0.00, -1.00, 415.2, 14.0)"> </text><text xml:space="preserve" font-family="FinancierDisplay-Regular" font-size="60.0" fill="#000000" transform="matrix(1.00, 0.00, -0.00, -1.00, 425.4, 14.0)">‘</text><text xml:space="preserve" font-family="FinancierDisplay-Regular" font-size="60.0" fill="#000000" transform="matrix(1.00, 0.00, -0.00, -1.00, 432.3, 14.0)">d</text><text xml:space="preserve" font-family="FinancierDisplay-Regular" font-size="60.0" fill="#000000" transform="matrix(1.00, 0.00, -0.00, -1.00, 461.3, 14.0)">a</text><text xml:space="preserve" font-family="FinancierDisplay-Regular" font-size="60.0" fill="#000000" transform="matrix(1.00, 0.00, -0.00, -1.00, 486.0, 14.0)">t</text><text xml:space="preserve" font-family="FinancierDisplay-Regular" font-size="60.0" fill="#000000" transform="matrix(1.00, 0.00, -0.00, -1.00, 504.3, 14.0)">a</text><text xml:space="preserve" font-family="FinancierDisplay-Regular" font-size="60.0" fill="#000000" transform="matrix(1.00, 0.00, -0.00, -1.00, 526.2, 14.0)">’</text><text xml:space="preserve" font-family="FinancierDisplay-Regular" font-size="60.0" fill="#000000" transform="matrix(1.00, 0.00, -0.00, -1.00, 537.2, 14.0)"> </text><text xml:space="preserve" font-family="FinancierDisplay-Regular" font-size="60.0" fill="#000000" transform="matrix(1.00, 0.00, -0.00, -1.00, 547.4, 14.0)">s</text><text xml:space="preserve" font-family="FinancierDisplay-Regular" font-size="60.0" fill="#000000" transform="matrix(1.00, 0.00, -0.00, -1.00, 568.2, 14.0)">k</text><text xml:space="preserve" font-family="FinancierDisplay-Regular" font-size="60.0" fill="#000000" transform="matrix(1.00, 0.00, -0.00, -1.00, 597.2, 14.0)">i</text><text xml:space="preserve" font-family="FinancierDisplay-Regular" font-size="60.0" fill="#000000" transform="matrix(1.00, 0.00, -0.00, -1.00, 611.3, 14.0)">l</text><text xml:space="preserve" font-family="FinancierDisplay-Regular" font-size="60.0" fill="#000000" transform="matrix(1.00, 0.00, -0.00, -1.00, 625.2, 14.0)">l</text><text xml:space="preserve" font-family="FinancierDisplay-Regular" font-size="60.0" fill="#000000" transform="matrix(1.00, 0.00, -0.00, -1.00, 639.2, 14.0)">s</text></g></svg>