<?xml version="1.0" encoding="UTF-8" standalone="no"?><svg xmlns="http://www.w3.org/2000/svg" xmlns:xlink="http://www.w3.org/1999/xlink" clip-rule="evenodd" stroke-miterlimit="4.00" viewBox="0 0 1024 768"><desc>SVG generated by Keynote</desc><defs></defs><g transform="matrix(1.00, 0.00, -0.00, -1.00, 0.0, 768.0)"><path d="M 0.0 768.0 L 1024.0 768.0 L 1024.0 0.0 L 0.0 0.0 Z M 0.0 768.0 " fill="#FFF0E0"></path><g><clipPath id="clip-290"><path d="M 910.0 75.0 L 1006.0 75.0 L 1006.0 22.0 L 910.0 22.0 Z M 910.0 75.0 "></path></clipPath><g clip-path="url(#clip-290)"><g><clipPath id="clip-291"><path d="M 910.0 22.0 L 1006.0 22.0 L 1006.0 75.0 L 910.0 75.0 Z M 910.0 22.0 "></path></clipPath><g clip-path="url(#clip-291)"><path d="M 957.3 63.3 L 960.0 63.3 C 960.8 66.1 962.0 68.2 963.4 69.3 C 964.9 70.5 967.0 71.1 969.8 71.1 L 976.3 71.1 L 976.3 30.4 C 976.3 29.0 976.2 27.9 976.0 27.1 C 975.8 26.4 975.4 25.7 974.8 25.3 C 974.2 24.8 973.4 24.5 972.6 24.4 C 971.7 24.2 970.5 24.1 968.9 24.1 L 968.9 22.0 L 994.5 22.0 L 994.5 24.1 C 992.8 24.1 991.5 24.2 990.7 24.4 C 989.8 24.5 989.1 24.8 988.4 25.3 C 987.8 25.7 987.4 26.4 987.2 27.1 C 987.0 27.9 986.9 29.0 986.9 30.4 L 986.9 71.1 L 993.5 71.1 C 996.3 71.1 998.4 70.5 999.9 69.3 C 1001.3 68.2 1002.4 66.1 1003.3 63.3 L 1006.0 63.3 L 1004.9 75.0 L 958.6 75.0 Z M 910.0 22.0 L 935.3 22.0 L 935.3 24.1 C 933.6 24.1 932.3 24.2 931.4 24.4 C 930.5 24.5 929.7 24.8 929.1 25.3 C 928.4 25.7 928.0 26.4 927.8 27.1 C 927.6 27.9 927.5 29.0 927.5 30.4 L 927.5 47.7 L 931.5 47.7 C 935.0 47.7 937.6 47.2 939.3 46.1 C 940.9 45.0 942.0 42.9 942.6 39.9 L 944.6 39.9 L 944.6 58.6 L 942.6 58.6 C 942.2 56.6 941.7 55.1 941.0 54.2 C 940.4 53.2 939.3 52.5 937.9 52.1 C 936.4 51.7 934.3 51.4 931.5 51.4 L 927.5 51.4 L 927.5 68.4 C 927.5 69.5 927.7 70.2 928.1 70.6 C 928.5 70.9 929.3 71.1 930.4 71.1 L 938.5 71.1 C 941.1 71.1 943.3 71.0 944.9 70.8 C 946.5 70.5 947.8 70.1 948.8 69.4 C 949.9 68.7 950.7 67.9 951.2 67.0 C 951.8 66.1 952.3 64.9 952.8 63.3 L 955.0 63.3 L 954.7 75.0 L 910.1 75.0 L 910.1 73.0 C 911.6 72.9 912.7 72.8 913.4 72.7 C 914.2 72.5 914.8 72.2 915.4 71.8 C 916.0 71.3 916.4 70.7 916.6 69.9 C 916.8 69.1 916.9 68.0 916.9 66.6 L 916.9 30.4 C 916.9 29.0 916.8 27.9 916.6 27.1 C 916.4 26.4 916.0 25.7 915.4 25.3 C 914.8 24.8 914.2 24.5 913.4 24.4 C 912.6 24.2 911.5 24.1 910.0 24.1 Z M 910.0 22.0 " fill="#C6B5A9"></path></g></g></g></g><text xml:space="preserve" font-family="FinancierDisplay-Regular" font-size="60.0" fill="#000000" transform="matrix(1.00, 0.00, -0.00, -1.00, 50.0, 656.0)">E</text><text xml:space="preserve" font-family="FinancierDisplay-Regular" font-size="60.0" fill="#000000" transform="matrix(1.00, 0.00, -0.00, -1.00, 81.6, 656.0)">x</text><text xml:space="preserve" font-family="FinancierDisplay-Regular" font-size="60.0" fill="#000000" transform="matrix(1.00, 0.00, -0.00, -1.00, 109.7, 656.0)">p</text><text xml:space="preserve" font-family="FinancierDisplay-Regular" font-size="60.0" fill="#000000" transform="matrix(1.00, 0.00, -0.00, -1.00, 138.9, 656.0)">a</text><text xml:space="preserve" font-family="FinancierDisplay-Regular" font-size="60.0" fill="#000000" transform="matrix(1.00, 0.00, -0.00, -1.00, 163.7, 656.0)">n</text><text xml:space="preserve" font-family="FinancierDisplay-Regular" font-size="60.0" fill="#000000" transform="matrix(1.00, 0.00, -0.00, -1.00, 193.6, 656.0)">d</text><text xml:space="preserve" font-family="FinancierDisplay-Regular" font-size="60.0" fill="#000000" transform="matrix(1.00, 0.00, -0.00, -1.00, 222.6, 656.0)">e</text><text xml:space="preserve" font-family="FinancierDisplay-Regular" font-size="60.0" fill="#000000" transform="matrix(1.00, 0.00, -0.00, -1.00, 246.7, 656.0)">d</text><text xml:space="preserve" font-family="FinancierDisplay-Regular" font-size="60.0" fill="#000000" transform="matrix(1.00, 0.00, -0.00, -1.00, 275.7, 656.0)"> </text><text xml:space="preserve" font-family="FinancierDisplay-Regular" font-size="60.0" fill="#000000" transform="matrix(1.00, 0.00, -0.00, -1.00, 285.9, 656.0)">r</text><text xml:space="preserve" font-family="FinancierDisplay-Regular" font-size="60.0" fill="#000000" transform="matrix(1.00, 0.00, -0.00, -1.00, 307.2, 656.0)">a</text><text xml:space="preserve" font-family="FinancierDisplay-Regular" font-size="60.0" fill="#000000" transform="matrix(1.00, 0.00, -0.00, -1.00, 331.9, 656.0)">n</text><text xml:space="preserve" font-family="FinancierDisplay-Regular" font-size="60.0" fill="#000000" transform="matrix(1.00, 0.00, -0.00, -1.00, 361.8, 656.0)">g</text><text xml:space="preserve" font-family="FinancierDisplay-Regular" font-size="60.0" fill="#000000" transform="matrix(1.00, 0.00, -0.00, -1.00, 386.4, 656.0)">e</text><text xml:space="preserve" font-family="FinancierDisplay-Regular" font-size="60.0" fill="#000000" transform="matrix(1.00, 0.00, -0.00, -1.00, 410.5, 656.0)"> </text><text xml:space="preserve" font-family="FinancierDisplay-Regular" font-size="60.0" fill="#000000" transform="matrix(1.00, 0.00, -0.00, -1.00, 420.7, 656.0)">o</text><text xml:space="preserve" font-family="FinancierDisplay-Regular" font-size="60.0" fill="#000000" transform="matrix(1.00, 0.00, -0.00, -1.00, 448.0, 656.0)">f</text><text xml:space="preserve" font-family="FinancierDisplay-Regular" font-size="60.0" fill="#000000" transform="matrix(1.00, 0.00, -0.00, -1.00, 464.2, 656.0)"> </text><text xml:space="preserve" font-family="FinancierDisplay-Regular" font-size="60.0" fill="#000000" transform="matrix(1.00, 0.00, -0.00, -1.00, 474.4, 656.0)">‘</text><text xml:space="preserve" font-family="FinancierDisplay-Regular" font-size="60.0" fill="#000000" transform="matrix(1.00, 0.00, -0.00, -1.00, 481.3, 656.0)">d</text><text xml:space="preserve" font-family="FinancierDisplay-Regular" font-size="60.0" fill="#000000" transform="matrix(1.00, 0.00, -0.00, -1.00, 510.3, 656.0)">a</text><text xml:space="preserve" font-family="FinancierDisplay-Regular" font-size="60.0" fill="#000000" transform="matrix(1.00, 0.00, -0.00, -1.00, 535.0, 656.0)">t</text><text xml:space="preserve" font-family="FinancierDisplay-Regular" font-size="60.0" fill="#000000" transform="matrix(1.00, 0.00, -0.00, -1.00, 553.3, 656.0)">a</text><text xml:space="preserve" font-family="FinancierDisplay-Regular" font-size="60.0" fill="#000000" transform="matrix(1.00, 0.00, -0.00, -1.00, 575.2, 656.0)">’</text><text xml:space="preserve" font-family="FinancierDisplay-Regular" font-size="60.0" fill="#000000" transform="matrix(1.00, 0.00, -0.00, -1.00, 586.2, 656.0)"> </text><text xml:space="preserve" font-family="FinancierDisplay-Regular" font-size="60.0" fill="#000000" transform="matrix(1.00, 0.00, -0.00, -1.00, 596.4, 656.0)">s</text><text xml:space="preserve" font-family="FinancierDisplay-Regular" font-size="60.0" fill="#000000" transform="matrix(1.00, 0.00, -0.00, -1.00, 617.2, 656.0)">k</text><text xml:space="preserve" font-family="FinancierDisplay-Regular" font-size="60.0" fill="#000000" transform="matrix(1.00, 0.00, -0.00, -1.00, 646.2, 656.0)">i</text><text xml:space="preserve" font-family="FinancierDisplay-Regular" font-size="60.0" fill="#000000" transform="matrix(1.00, 0.00, -0.00, -1.00, 660.3, 656.0)">l</text><text xml:space="preserve" font-family="FinancierDisplay-Regular" font-size="60.0" fill="#000000" transform="matrix(1.00, 0.00, -0.00, -1.00, 674.2, 656.0)">l</text><text xml:space="preserve" font-family="FinancierDisplay-Regular" font-size="60.0" fill="#000000" transform="matrix(1.00, 0.00, -0.00, -1.00, 688.2, 656.0)">s</text><text xml:space="preserve" font-family="Metric-Regular" font-size="48.0" fill="#000000" transform="matrix(1.00, 0.00, -0.00, -1.00, 37.0, 535.9)">•</text><text xml:space="preserve" font-family="Metric-Regular" font-size="48.0" fill="#000000" transform="matrix(1.00, 0.00, -0.00, -1.00, 55.0, 536.0)">S</text><text xml:space="preserve" font-family="Metric-Regular" font-size="48.0" fill="#000000" transform="matrix(1.00, 0.00, -0.00, -1.00, 77.9, 536.0)">t</text><text xml:space="preserve" font-family="Metric-Regular" font-size="48.0" fill="#000000" transform="matrix(1.00, 0.00, -0.00, -1.00, 92.7, 536.0)">a</text><text xml:space="preserve" font-family="Metric-Regular" font-size="48.0" fill="#000000" transform="matrix(1.00, 0.00, -0.00, -1.00, 114.1, 536.0)">t</text><text xml:space="preserve" font-family="Metric-Regular" font-size="48.0" fill="#000000" transform="matrix(1.00, 0.00, -0.00, -1.00, 129.4, 536.0)">i</text><text xml:space="preserve" font-family="Metric-Regular" font-size="48.0" fill="#000000" transform="matrix(1.00, 0.00, -0.00, -1.00, 139.4, 536.0)">s</text><text xml:space="preserve" font-family="Metric-Regular" font-size="48.0" fill="#000000" transform="matrix(1.00, 0.00, -0.00, -1.00, 158.1, 536.0)">t</text><text xml:space="preserve" font-family="Metric-Regular" font-size="48.0" fill="#000000" transform="matrix(1.00, 0.00, -0.00, -1.00, 173.4, 536.0)">i</text><text xml:space="preserve" font-family="Metric-Regular" font-size="48.0" fill="#000000" transform="matrix(1.00, 0.00, -0.00, -1.00, 183.4, 536.0)">c</text><text xml:space="preserve" font-family="Metric-Regular" font-size="48.0" fill="#000000" transform="matrix(1.00, 0.00, -0.00, -1.00, 203.5, 536.0)">s</text><text xml:space="preserve" font-family="Metric-Regular" font-size="48.0" fill="#000000" transform="matrix(1.00, 0.00, -0.00, -1.00, 222.3, 536.0)"> </text><text xml:space="preserve" font-family="Metric-Regular" font-size="48.0" fill="#000000" transform="matrix(1.00, 0.00, -0.00, -1.00, 37.0, 451.9)">•</text><text xml:space="preserve" font-family="Metric-Regular" font-size="48.0" fill="#000000" transform="matrix(1.00, 0.00, -0.00, -1.00, 55.0, 452.0)">D</text><text xml:space="preserve" font-family="Metric-Regular" font-size="48.0" fill="#000000" transform="matrix(1.00, 0.00, -0.00, -1.00, 83.9, 452.0)">a</text><text xml:space="preserve" font-family="Metric-Regular" font-size="48.0" fill="#000000" transform="matrix(1.00, 0.00, -0.00, -1.00, 105.3, 452.0)">t</text><text xml:space="preserve" font-family="Metric-Regular" font-size="48.0" fill="#000000" transform="matrix(1.00, 0.00, -0.00, -1.00, 120.0, 452.0)">a</text><text xml:space="preserve" font-family="Metric-Regular" font-size="48.0" fill="#000000" transform="matrix(1.00, 0.00, -0.00, -1.00, 141.5, 452.0)"> </text><text xml:space="preserve" font-family="Metric-Regular" font-size="48.0" fill="#000000" transform="matrix(1.00, 0.00, -0.00, -1.00, 152.2, 452.0)">v</text><text xml:space="preserve" font-family="Metric-Regular" font-size="48.0" fill="#000000" transform="matrix(1.00, 0.00, -0.00, -1.00, 174.0, 452.0)">i</text><text xml:space="preserve" font-family="Metric-Regular" font-size="48.0" fill="#000000" transform="matrix(1.00, 0.00, -0.00, -1.00, 184.0, 452.0)">s</text><text xml:space="preserve" font-family="Metric-Regular" font-size="48.0" fill="#000000" transform="matrix(1.00, 0.00, -0.00, -1.00, 202.9, 452.0)">u</text><text xml:space="preserve" font-family="Metric-Regular" font-size="48.0" fill="#000000" transform="matrix(1.00, 0.00, -0.00, -1.00, 226.3, 452.0)">a</text><text xml:space="preserve" font-family="Metric-Regular" font-size="48.0" fill="#000000" transform="matrix(1.00, 0.00, -0.00, -1.00, 247.8, 452.0)">l</text><text xml:space="preserve" font-family="Metric-Regular" font-size="48.0" fill="#000000" transform="matrix(1.00, 0.00, -0.00, -1.00, 257.8, 452.0)">i</text><text xml:space="preserve" font-family="Metric-Regular" font-size="48.0" fill="#000000" transform="matrix(1.00, 0.00, -0.00, -1.00, 267.8, 452.0)">s</text><text xml:space="preserve" font-family="Metric-Regular" font-size="48.0" fill="#000000" transform="matrix(1.00, 0.00, -0.00, -1.00, 286.7, 452.0)">a</text><text xml:space="preserve" font-family="Metric-Regular" font-size="48.0" fill="#000000" transform="matrix(1.00, 0.00, -0.00, -1.00, 308.1, 452.0)">t</text><text xml:space="preserve" font-family="Metric-Regular" font-size="48.0" fill="#000000" transform="matrix(1.00, 0.00, -0.00, -1.00, 323.3, 452.0)">i</text><text xml:space="preserve" font-family="Metric-Regular" font-size="48.0" fill="#000000" transform="matrix(1.00, 0.00, -0.00, -1.00, 333.4, 452.0)">o</text><text xml:space="preserve" font-family="Metric-Regular" font-size="48.0" fill="#000000" transform="matrix(1.00, 0.00, -0.00, -1.00, 356.3, 452.0)">n</text><text xml:space="preserve" font-family="Metric-Regular" font-size="48.0" fill="#000000" transform="matrix(1.00, 0.00, -0.00, -1.00, 379.8, 452.0)"> </text><text xml:space="preserve" font-family="Metric-Regular" font-size="48.0" fill="#000000" transform="matrix(1.00, 0.00, -0.00, -1.00, 37.0, 367.9)">•</text><text xml:space="preserve" font-family="Metric-Regular" font-size="48.0" fill="#000000" transform="matrix(1.00, 0.00, -0.00, -1.00, 55.0, 368.0)">C</text><text xml:space="preserve" font-family="Metric-Regular" font-size="48.0" fill="#000000" transform="matrix(1.00, 0.00, -0.00, -1.00, 80.9, 368.0)">a</text><text xml:space="preserve" font-family="Metric-Regular" font-size="48.0" fill="#000000" transform="matrix(1.00, 0.00, -0.00, -1.00, 102.4, 368.0)">r</text><text xml:space="preserve" font-family="Metric-Regular" font-size="48.0" fill="#000000" transform="matrix(1.00, 0.00, -0.00, -1.00, 117.8, 368.0)">t</text><text xml:space="preserve" font-family="Metric-Regular" font-size="48.0" fill="#000000" transform="matrix(1.00, 0.00, -0.00, -1.00, 132.7, 368.0)">o</text><text xml:space="preserve" font-family="Metric-Regular" font-size="48.0" fill="#000000" transform="matrix(1.00, 0.00, -0.00, -1.00, 155.8, 368.0)">g</text><text xml:space="preserve" font-family="Metric-Regular" font-size="48.0" fill="#000000" transform="matrix(1.00, 0.00, -0.00, -1.00, 179.7, 368.0)">r</text><text xml:space="preserve" font-family="Metric-Regular" font-size="48.0" fill="#000000" transform="matrix(1.00, 0.00, -0.00, -1.00, 194.5, 368.0)">a</text><text xml:space="preserve" font-family="Metric-Regular" font-size="48.0" fill="#000000" transform="matrix(1.00, 0.00, -0.00, -1.00, 216.0, 368.0)">p</text><text xml:space="preserve" font-family="Metric-Regular" font-size="48.0" fill="#000000" transform="matrix(1.00, 0.00, -0.00, -1.00, 240.1, 368.0)">h</text><text xml:space="preserve" font-family="Metric-Regular" font-size="48.0" fill="#000000" transform="matrix(1.00, 0.00, -0.00, -1.00, 263.4, 368.0)">y</text><text xml:space="preserve" font-family="Metric-Regular" font-size="48.0" fill="#000000" transform="matrix(1.00, 0.00, -0.00, -1.00, 285.2, 368.0)"> </text><text xml:space="preserve" font-family="Metric-Regular" font-size="48.0" fill="#000000" transform="matrix(1.00, 0.00, -0.00, -1.00, 295.8, 368.0)">&amp;</text><text xml:space="preserve" font-family="Metric-Regular" font-size="48.0" fill="#000000" transform="matrix(1.00, 0.00, -0.00, -1.00, 324.0, 368.0)"> </text><text xml:space="preserve" font-family="LucidaGrande" font-size="48.0" fill="#000000" transform="matrix(1.00, 0.00, -0.00, -1.00, 334.6, 368.0)"> </text><text xml:space="preserve" font-family="Metric-Regular" font-size="48.0" fill="#000000" transform="matrix(1.00, 0.00, -0.00, -1.00, 55.0, 310.0)">s</text><text xml:space="preserve" font-family="Metric-Regular" font-size="48.0" fill="#000000" transform="matrix(1.00, 0.00, -0.00, -1.00, 73.9, 310.0)">p</text><text xml:space="preserve" font-family="Metric-Regular" font-size="48.0" fill="#000000" transform="matrix(1.00, 0.00, -0.00, -1.00, 98.0, 310.0)">a</text><text xml:space="preserve" font-family="Metric-Regular" font-size="48.0" fill="#000000" transform="matrix(1.00, 0.00, -0.00, -1.00, 119.5, 310.0)">c</text><text xml:space="preserve" font-family="Metric-Regular" font-size="48.0" fill="#000000" transform="matrix(1.00, 0.00, -0.00, -1.00, 138.9, 310.0)">i</text><text xml:space="preserve" font-family="Metric-Regular" font-size="48.0" fill="#000000" transform="matrix(1.00, 0.00, -0.00, -1.00, 148.9, 310.0)">a</text><text xml:space="preserve" font-family="Metric-Regular" font-size="48.0" fill="#000000" transform="matrix(1.00, 0.00, -0.00, -1.00, 170.4, 310.0)">l</text><text xml:space="preserve" font-family="Metric-Regular" font-size="48.0" fill="#000000" transform="matrix(1.00, 0.00, -0.00, -1.00, 180.5, 310.0)"> </text><text xml:space="preserve" font-family="Metric-Regular" font-size="48.0" fill="#000000" transform="matrix(1.00, 0.00, -0.00, -1.00, 191.1, 310.0)">a</text><text xml:space="preserve" font-family="Metric-Regular" font-size="48.0" fill="#000000" transform="matrix(1.00, 0.00, -0.00, -1.00, 212.6, 310.0)">n</text><text xml:space="preserve" font-family="Metric-Regular" font-size="48.0" fill="#000000" transform="matrix(1.00, 0.00, -0.00, -1.00, 236.1, 310.0)">a</text><text xml:space="preserve" font-family="Metric-Regular" font-size="48.0" fill="#000000" transform="matrix(1.00, 0.00, -0.00, -1.00, 257.6, 310.0)">l</text><text xml:space="preserve" font-family="Metric-Regular" font-size="48.0" fill="#000000" transform="matrix(1.00, 0.00, -0.00, -1.00, 267.6, 310.0)">y</text><text xml:space="preserve" font-family="Metric-Regular" font-size="48.0" fill="#000000" transform="matrix(1.00, 0.00, -0.00, -1.00, 289.3, 310.0)">s</text><text xml:space="preserve" font-family="Metric-Regular" font-size="48.0" fill="#000000" transform="matrix(1.00, 0.00, -0.00, -1.00, 308.2, 310.0)">i</text><text xml:space="preserve" font-family="Metric-Regular" font-size="48.0" fill="#000000" transform="matrix(1.00, 0.00, -0.00, -1.00, 318.2, 310.0)">s</text><text xml:space="preserve" font-family="Metric-Regular" font-size="48.0" fill="#000000" transform="matrix(1.00, 0.00, -0.00, -1.00, 548.3, 536.6)">•</text><text xml:space="preserve" font-family="Metric-Regular" font-size="48.0" fill="#000000" transform="matrix(1.00, 0.00, -0.00, -1.00, 566.0, 537.0)">W</text><text xml:space="preserve" font-family="Metric-Regular" font-size="48.0" fill="#000000" transform="matrix(1.00, 0.00, -0.00, -1.00, 601.6, 537.0)">e</text><text xml:space="preserve" font-family="Metric-Regular" font-size="48.0" fill="#000000" transform="matrix(1.00, 0.00, -0.00, -1.00, 623.2, 537.0)">b</text><text xml:space="preserve" font-family="Metric-Regular" font-size="48.0" fill="#000000" transform="matrix(1.00, 0.00, -0.00, -1.00, 647.3, 537.0)"> </text><text xml:space="preserve" font-family="Metric-Regular" font-size="48.0" fill="#000000" transform="matrix(1.00, 0.00, -0.00, -1.00, 657.9, 537.0)">d</text><text xml:space="preserve" font-family="Metric-Regular" font-size="48.0" fill="#000000" transform="matrix(1.00, 0.00, -0.00, -1.00, 682.0, 537.0)">e</text><text xml:space="preserve" font-family="Metric-Regular" font-size="48.0" fill="#000000" transform="matrix(1.00, 0.00, -0.00, -1.00, 703.2, 537.0)">v</text><text xml:space="preserve" font-family="Metric-Regular" font-size="48.0" fill="#000000" transform="matrix(1.00, 0.00, -0.00, -1.00, 724.7, 537.0)">e</text><text xml:space="preserve" font-family="Metric-Regular" font-size="48.0" fill="#000000" transform="matrix(1.00, 0.00, -0.00, -1.00, 746.3, 537.0)">l</text><text xml:space="preserve" font-family="Metric-Regular" font-size="48.0" fill="#000000" transform="matrix(1.00, 0.00, -0.00, -1.00, 756.3, 537.0)">o</text><text xml:space="preserve" font-family="Metric-Regular" font-size="48.0" fill="#000000" transform="matrix(1.00, 0.00, -0.00, -1.00, 779.3, 537.0)">p</text><text xml:space="preserve" font-family="Metric-Regular" font-size="48.0" fill="#000000" transform="matrix(1.00, 0.00, -0.00, -1.00, 803.4, 537.0)">m</text><text xml:space="preserve" font-family="Metric-Regular" font-size="48.0" fill="#000000" transform="matrix(1.00, 0.00, -0.00, -1.00, 837.8, 537.0)">e</text><text xml:space="preserve" font-family="Metric-Regular" font-size="48.0" fill="#000000" transform="matrix(1.00, 0.00, -0.00, -1.00, 859.4, 537.0)">n</text><text xml:space="preserve" font-family="Metric-Regular" font-size="48.0" fill="#000000" transform="matrix(1.00, 0.00, -0.00, -1.00, 882.8, 537.0)">t</text><text xml:space="preserve" font-family="Metric-Regular" font-size="48.0" fill="#000000" transform="matrix(1.00, 0.00, -0.00, -1.00, 898.1, 537.0)"> </text><text xml:space="preserve" font-family="Metric-Regular" font-size="48.0" fill="#000000" transform="matrix(1.00, 0.00, -0.00, -1.00, 548.3, 452.6)">•</text><text xml:space="preserve" font-family="Metric-Regular" font-size="48.0" fill="#000000" transform="matrix(1.00, 0.00, -0.00, -1.00, 566.0, 453.0)">I</text><text xml:space="preserve" font-family="Metric-Regular" font-size="48.0" fill="#000000" transform="matrix(1.00, 0.00, -0.00, -1.00, 576.8, 453.0)">n</text><text xml:space="preserve" font-family="Metric-Regular" font-size="48.0" fill="#000000" transform="matrix(1.00, 0.00, -0.00, -1.00, 600.3, 453.0)">t</text><text xml:space="preserve" font-family="Metric-Regular" font-size="48.0" fill="#000000" transform="matrix(1.00, 0.00, -0.00, -1.00, 615.2, 453.0)">e</text><text xml:space="preserve" font-family="Metric-Regular" font-size="48.0" fill="#000000" transform="matrix(1.00, 0.00, -0.00, -1.00, 636.8, 453.0)">r</text><text xml:space="preserve" font-family="Metric-Regular" font-size="48.0" fill="#000000" transform="matrix(1.00, 0.00, -0.00, -1.00, 651.6, 453.0)">a</text><text xml:space="preserve" font-family="Metric-Regular" font-size="48.0" fill="#000000" transform="matrix(1.00, 0.00, -0.00, -1.00, 673.1, 453.0)">c</text><text xml:space="preserve" font-family="Metric-Regular" font-size="48.0" fill="#000000" transform="matrix(1.00, 0.00, -0.00, -1.00, 692.6, 453.0)">t</text><text xml:space="preserve" font-family="Metric-Regular" font-size="48.0" fill="#000000" transform="matrix(1.00, 0.00, -0.00, -1.00, 707.9, 453.0)">i</text><text xml:space="preserve" font-family="Metric-Regular" font-size="48.0" fill="#000000" transform="matrix(1.00, 0.00, -0.00, -1.00, 717.9, 453.0)">o</text><text xml:space="preserve" font-family="Metric-Regular" font-size="48.0" fill="#000000" transform="matrix(1.00, 0.00, -0.00, -1.00, 740.9, 453.0)">n</text><text xml:space="preserve" font-family="Metric-Regular" font-size="48.0" fill="#000000" transform="matrix(1.00, 0.00, -0.00, -1.00, 764.3, 453.0)"> </text><text xml:space="preserve" font-family="Metric-Regular" font-size="48.0" fill="#000000" transform="matrix(1.00, 0.00, -0.00, -1.00, 774.9, 453.0)">a</text><text xml:space="preserve" font-family="Metric-Regular" font-size="48.0" fill="#000000" transform="matrix(1.00, 0.00, -0.00, -1.00, 796.4, 453.0)">n</text><text xml:space="preserve" font-family="Metric-Regular" font-size="48.0" fill="#000000" transform="matrix(1.00, 0.00, -0.00, -1.00, 819.9, 453.0)">d</text><text xml:space="preserve" font-family="Metric-Regular" font-size="48.0" fill="#000000" transform="matrix(1.00, 0.00, -0.00, -1.00, 844.0, 453.0)"> </text><text xml:space="preserve" font-family="LucidaGrande" font-size="48.0" fill="#000000" transform="matrix(1.00, 0.00, -0.00, -1.00, 854.6, 453.0)"> </text><text xml:space="preserve" font-family="Metric-Regular" font-size="48.0" fill="#000000" transform="matrix(1.00, 0.00, -0.00, -1.00, 566.0, 395.0)">U</text><text xml:space="preserve" font-family="Metric-Regular" font-size="48.0" fill="#000000" transform="matrix(1.00, 0.00, -0.00, -1.00, 595.1, 395.0)">X</text><text xml:space="preserve" font-family="Metric-Regular" font-size="48.0" fill="#000000" transform="matrix(1.00, 0.00, -0.00, -1.00, 621.9, 395.0)"> </text><text xml:space="preserve" font-family="Metric-Regular" font-size="48.0" fill="#000000" transform="matrix(1.00, 0.00, -0.00, -1.00, 632.5, 395.0)">d</text><text xml:space="preserve" font-family="Metric-Regular" font-size="48.0" fill="#000000" transform="matrix(1.00, 0.00, -0.00, -1.00, 656.6, 395.0)">e</text><text xml:space="preserve" font-family="Metric-Regular" font-size="48.0" fill="#000000" transform="matrix(1.00, 0.00, -0.00, -1.00, 678.4, 395.0)">s</text><text xml:space="preserve" font-family="Metric-Regular" font-size="48.0" fill="#000000" transform="matrix(1.00, 0.00, -0.00, -1.00, 697.2, 395.0)">i</text><text xml:space="preserve" font-family="Metric-Regular" font-size="48.0" fill="#000000" transform="matrix(1.00, 0.00, -0.00, -1.00, 707.3, 395.0)">g</text><text xml:space="preserve" font-family="Metric-Regular" font-size="48.0" fill="#000000" transform="matrix(1.00, 0.00, -0.00, -1.00, 731.2, 395.0)">n</text><text xml:space="preserve" font-family="Metric-Regular" font-size="48.0" fill="#000000" transform="matrix(1.00, 0.00, -0.00, -1.00, 754.7, 395.0)"> </text><text xml:space="preserve" font-family="Metric-Regular" font-size="48.0" fill="#000000" transform="matrix(1.00, 0.00, -0.00, -1.00, 548.3, 310.6)">•</text><text xml:space="preserve" font-family="Metric-Regular" font-size="48.0" fill="#000000" transform="matrix(1.00, 0.00, -0.00, -1.00, 566.0, 311.0)">P</text><text xml:space="preserve" font-family="Metric-Regular" font-size="48.0" fill="#000000" transform="matrix(1.00, 0.00, -0.00, -1.00, 591.6, 311.0)">r</text><text xml:space="preserve" font-family="Metric-Regular" font-size="48.0" fill="#000000" transform="matrix(1.00, 0.00, -0.00, -1.00, 606.4, 311.0)">o</text><text xml:space="preserve" font-family="Metric-Regular" font-size="48.0" fill="#000000" transform="matrix(1.00, 0.00, -0.00, -1.00, 629.4, 311.0)">j</text><text xml:space="preserve" font-family="Metric-Regular" font-size="48.0" fill="#000000" transform="matrix(1.00, 0.00, -0.00, -1.00, 639.3, 311.0)">e</text><text xml:space="preserve" font-family="Metric-Regular" font-size="48.0" fill="#000000" transform="matrix(1.00, 0.00, -0.00, -1.00, 660.9, 311.0)">c</text><text xml:space="preserve" font-family="Metric-Regular" font-size="48.0" fill="#000000" transform="matrix(1.00, 0.00, -0.00, -1.00, 680.4, 311.0)">t</text><text xml:space="preserve" font-family="Metric-Regular" font-size="48.0" fill="#000000" transform="matrix(1.00, 0.00, -0.00, -1.00, 695.7, 311.0)"> </text><text xml:space="preserve" font-family="Metric-Regular" font-size="48.0" fill="#000000" transform="matrix(1.00, 0.00, -0.00, -1.00, 706.3, 311.0)">m</text><text xml:space="preserve" font-family="Metric-Regular" font-size="48.0" fill="#000000" transform="matrix(1.00, 0.00, -0.00, -1.00, 740.7, 311.0)">a</text><text xml:space="preserve" font-family="Metric-Regular" font-size="48.0" fill="#000000" transform="matrix(1.00, 0.00, -0.00, -1.00, 762.2, 311.0)">n</text><text xml:space="preserve" font-family="Metric-Regular" font-size="48.0" fill="#000000" transform="matrix(1.00, 0.00, -0.00, -1.00, 785.7, 311.0)">a</text><text xml:space="preserve" font-family="Metric-Regular" font-size="48.0" fill="#000000" transform="matrix(1.00, 0.00, -0.00, -1.00, 807.2, 311.0)">g</text><text xml:space="preserve" font-family="Metric-Regular" font-size="48.0" fill="#000000" transform="matrix(1.00, 0.00, -0.00, -1.00, 831.2, 311.0)">e</text><text xml:space="preserve" font-family="Metric-Regular" font-size="48.0" fill="#000000" transform="matrix(1.00, 0.00, -0.00, -1.00, 852.8, 311.0)">m</text><text xml:space="preserve" font-family="Metric-Regular" font-size="48.0" fill="#000000" transform="matrix(1.00, 0.00, -0.00, -1.00, 887.2, 311.0)">e</text><text xml:space="preserve" font-family="Metric-Regular" font-size="48.0" fill="#000000" transform="matrix(1.00, 0.00, -0.00, -1.00, 908.8, 311.0)">n</text><text xml:space="preserve" font-family="Metric-Regular" font-size="48.0" fill="#000000" transform="matrix(1.00, 0.00, -0.00, -1.00, 932.2, 311.0)">t</text></g></svg>