<?xml version="1.0" encoding="UTF-8" standalone="no"?><svg xmlns="http://www.w3.org/2000/svg" xmlns:xlink="http://www.w3.org/1999/xlink" clip-rule="evenodd" stroke-miterlimit="4.00" viewBox="0 0 402 277"><desc>SVG generated by Keynote</desc><defs></defs><g transform="matrix(1.00, 0.00, -0.00, -1.00, 0.0, 277.0)"><text xml:space="preserve" font-family="Metric-Regular" font-size="48.0" fill="#000000" transform="matrix(1.00, 0.00, -0.00, -1.00, 0.3, 243.6)">•</text><text xml:space="preserve" font-family="Metric-Regular" font-size="48.0" fill="#000000" transform="matrix(1.00, 0.00, -0.00, -1.00, 18.0, 244.0)">W</text><text xml:space="preserve" font-family="Metric-Regular" font-size="48.0" fill="#000000" transform="matrix(1.00, 0.00, -0.00, -1.00, 53.6, 244.0)">e</text><text xml:space="preserve" font-family="Metric-Regular" font-size="48.0" fill="#000000" transform="matrix(1.00, 0.00, -0.00, -1.00, 75.2, 244.0)">b</text><text xml:space="preserve" font-family="Metric-Regular" font-size="48.0" fill="#000000" transform="matrix(1.00, 0.00, -0.00, -1.00, 99.3, 244.0)"> </text><text xml:space="preserve" font-family="Metric-Regular" font-size="48.0" fill="#000000" transform="matrix(1.00, 0.00, -0.00, -1.00, 109.9, 244.0)">d</text><text xml:space="preserve" font-family="Metric-Regular" font-size="48.0" fill="#000000" transform="matrix(1.00, 0.00, -0.00, -1.00, 134.0, 244.0)">e</text><text xml:space="preserve" font-family="Metric-Regular" font-size="48.0" fill="#000000" transform="matrix(1.00, 0.00, -0.00, -1.00, 155.2, 244.0)">v</text><text xml:space="preserve" font-family="Metric-Regular" font-size="48.0" fill="#000000" transform="matrix(1.00, 0.00, -0.00, -1.00, 176.7, 244.0)">e</text><text xml:space="preserve" font-family="Metric-Regular" font-size="48.0" fill="#000000" transform="matrix(1.00, 0.00, -0.00, -1.00, 198.3, 244.0)">l</text><text xml:space="preserve" font-family="Metric-Regular" font-size="48.0" fill="#000000" transform="matrix(1.00, 0.00, -0.00, -1.00, 208.3, 244.0)">o</text><text xml:space="preserve" font-family="Metric-Regular" font-size="48.0" fill="#000000" transform="matrix(1.00, 0.00, -0.00, -1.00, 231.3, 244.0)">p</text><text xml:space="preserve" font-family="Metric-Regular" font-size="48.0" fill="#000000" transform="matrix(1.00, 0.00, -0.00, -1.00, 255.4, 244.0)">m</text><text xml:space="preserve" font-family="Metric-Regular" font-size="48.0" fill="#000000" transform="matrix(1.00, 0.00, -0.00, -1.00, 289.8, 244.0)">e</text><text xml:space="preserve" font-family="Metric-Regular" font-size="48.0" fill="#000000" transform="matrix(1.00, 0.00, -0.00, -1.00, 311.4, 244.0)">n</text><text xml:space="preserve" font-family="Metric-Regular" font-size="48.0" fill="#000000" transform="matrix(1.00, 0.00, -0.00, -1.00, 334.8, 244.0)">t</text><text xml:space="preserve" font-family="Metric-Regular" font-size="48.0" fill="#000000" transform="matrix(1.00, 0.00, -0.00, -1.00, 350.1, 244.0)"> </text><text xml:space="preserve" font-family="Metric-Regular" font-size="48.0" fill="#000000" transform="matrix(1.00, 0.00, -0.00, -1.00, 0.3, 159.6)">•</text><text xml:space="preserve" font-family="Metric-Regular" font-size="48.0" fill="#000000" transform="matrix(1.00, 0.00, -0.00, -1.00, 18.0, 160.0)">I</text><text xml:space="preserve" font-family="Metric-Regular" font-size="48.0" fill="#000000" transform="matrix(1.00, 0.00, -0.00, -1.00, 28.8, 160.0)">n</text><text xml:space="preserve" font-family="Metric-Regular" font-size="48.0" fill="#000000" transform="matrix(1.00, 0.00, -0.00, -1.00, 52.3, 160.0)">t</text><text xml:space="preserve" font-family="Metric-Regular" font-size="48.0" fill="#000000" transform="matrix(1.00, 0.00, -0.00, -1.00, 67.2, 160.0)">e</text><text xml:space="preserve" font-family="Metric-Regular" font-size="48.0" fill="#000000" transform="matrix(1.00, 0.00, -0.00, -1.00, 88.8, 160.0)">r</text><text xml:space="preserve" font-family="Metric-Regular" font-size="48.0" fill="#000000" transform="matrix(1.00, 0.00, -0.00, -1.00, 103.6, 160.0)">a</text><text xml:space="preserve" font-family="Metric-Regular" font-size="48.0" fill="#000000" transform="matrix(1.00, 0.00, -0.00, -1.00, 125.1, 160.0)">c</text><text xml:space="preserve" font-family="Metric-Regular" font-size="48.0" fill="#000000" transform="matrix(1.00, 0.00, -0.00, -1.00, 144.6, 160.0)">t</text><text xml:space="preserve" font-family="Metric-Regular" font-size="48.0" fill="#000000" transform="matrix(1.00, 0.00, -0.00, -1.00, 159.9, 160.0)">i</text><text xml:space="preserve" font-family="Metric-Regular" font-size="48.0" fill="#000000" transform="matrix(1.00, 0.00, -0.00, -1.00, 169.9, 160.0)">o</text><text xml:space="preserve" font-family="Metric-Regular" font-size="48.0" fill="#000000" transform="matrix(1.00, 0.00, -0.00, -1.00, 192.9, 160.0)">n</text><text xml:space="preserve" font-family="Metric-Regular" font-size="48.0" fill="#000000" transform="matrix(1.00, 0.00, -0.00, -1.00, 216.3, 160.0)"> </text><text xml:space="preserve" font-family="Metric-Regular" font-size="48.0" fill="#000000" transform="matrix(1.00, 0.00, -0.00, -1.00, 226.9, 160.0)">a</text><text xml:space="preserve" font-family="Metric-Regular" font-size="48.0" fill="#000000" transform="matrix(1.00, 0.00, -0.00, -1.00, 248.4, 160.0)">n</text><text xml:space="preserve" font-family="Metric-Regular" font-size="48.0" fill="#000000" transform="matrix(1.00, 0.00, -0.00, -1.00, 271.9, 160.0)">d</text><text xml:space="preserve" font-family="Metric-Regular" font-size="48.0" fill="#000000" transform="matrix(1.00, 0.00, -0.00, -1.00, 296.0, 160.0)"> </text><text xml:space="preserve" font-family="LucidaGrande" font-size="48.0" fill="#000000" transform="matrix(1.00, 0.00, -0.00, -1.00, 306.6, 160.0)"> </text><text xml:space="preserve" font-family="Metric-Regular" font-size="48.0" fill="#000000" transform="matrix(1.00, 0.00, -0.00, -1.00, 18.0, 102.0)">U</text><text xml:space="preserve" font-family="Metric-Regular" font-size="48.0" fill="#000000" transform="matrix(1.00, 0.00, -0.00, -1.00, 47.1, 102.0)">X</text><text xml:space="preserve" font-family="Metric-Regular" font-size="48.0" fill="#000000" transform="matrix(1.00, 0.00, -0.00, -1.00, 73.9, 102.0)"> </text><text xml:space="preserve" font-family="Metric-Regular" font-size="48.0" fill="#000000" transform="matrix(1.00, 0.00, -0.00, -1.00, 84.5, 102.0)">d</text><text xml:space="preserve" font-family="Metric-Regular" font-size="48.0" fill="#000000" transform="matrix(1.00, 0.00, -0.00, -1.00, 108.6, 102.0)">e</text><text xml:space="preserve" font-family="Metric-Regular" font-size="48.0" fill="#000000" transform="matrix(1.00, 0.00, -0.00, -1.00, 130.4, 102.0)">s</text><text xml:space="preserve" font-family="Metric-Regular" font-size="48.0" fill="#000000" transform="matrix(1.00, 0.00, -0.00, -1.00, 149.2, 102.0)">i</text><text xml:space="preserve" font-family="Metric-Regular" font-size="48.0" fill="#000000" transform="matrix(1.00, 0.00, -0.00, -1.00, 159.3, 102.0)">g</text><text xml:space="preserve" font-family="Metric-Regular" font-size="48.0" fill="#000000" transform="matrix(1.00, 0.00, -0.00, -1.00, 183.2, 102.0)">n</text><text xml:space="preserve" font-family="Metric-Regular" font-size="48.0" fill="#000000" transform="matrix(1.00, 0.00, -0.00, -1.00, 206.7, 102.0)"> </text><text xml:space="preserve" font-family="Metric-Regular" font-size="48.0" fill="#000000" transform="matrix(1.00, 0.00, -0.00, -1.00, 0.3, 17.6)">•</text><text xml:space="preserve" font-family="Metric-Regular" font-size="48.0" fill="#000000" transform="matrix(1.00, 0.00, -0.00, -1.00, 18.0, 18.0)">P</text><text xml:space="preserve" font-family="Metric-Regular" font-size="48.0" fill="#000000" transform="matrix(1.00, 0.00, -0.00, -1.00, 43.6, 18.0)">r</text><text xml:space="preserve" font-family="Metric-Regular" font-size="48.0" fill="#000000" transform="matrix(1.00, 0.00, -0.00, -1.00, 58.4, 18.0)">o</text><text xml:space="preserve" font-family="Metric-Regular" font-size="48.0" fill="#000000" transform="matrix(1.00, 0.00, -0.00, -1.00, 81.4, 18.0)">j</text><text xml:space="preserve" font-family="Metric-Regular" font-size="48.0" fill="#000000" transform="matrix(1.00, 0.00, -0.00, -1.00, 91.3, 18.0)">e</text><text xml:space="preserve" font-family="Metric-Regular" font-size="48.0" fill="#000000" transform="matrix(1.00, 0.00, -0.00, -1.00, 112.9, 18.0)">c</text><text xml:space="preserve" font-family="Metric-Regular" font-size="48.0" fill="#000000" transform="matrix(1.00, 0.00, -0.00, -1.00, 132.4, 18.0)">t</text><text xml:space="preserve" font-family="Metric-Regular" font-size="48.0" fill="#000000" transform="matrix(1.00, 0.00, -0.00, -1.00, 147.7, 18.0)"> </text><text xml:space="preserve" font-family="Metric-Regular" font-size="48.0" fill="#000000" transform="matrix(1.00, 0.00, -0.00, -1.00, 158.3, 18.0)">m</text><text xml:space="preserve" font-family="Metric-Regular" font-size="48.0" fill="#000000" transform="matrix(1.00, 0.00, -0.00, -1.00, 192.7, 18.0)">a</text><text xml:space="preserve" font-family="Metric-Regular" font-size="48.0" fill="#000000" transform="matrix(1.00, 0.00, -0.00, -1.00, 214.2, 18.0)">n</text><text xml:space="preserve" font-family="Metric-Regular" font-size="48.0" fill="#000000" transform="matrix(1.00, 0.00, -0.00, -1.00, 237.7, 18.0)">a</text><text xml:space="preserve" font-family="Metric-Regular" font-size="48.0" fill="#000000" transform="matrix(1.00, 0.00, -0.00, -1.00, 259.2, 18.0)">g</text><text xml:space="preserve" font-family="Metric-Regular" font-size="48.0" fill="#000000" transform="matrix(1.00, 0.00, -0.00, -1.00, 283.2, 18.0)">e</text><text xml:space="preserve" font-family="Metric-Regular" font-size="48.0" fill="#000000" transform="matrix(1.00, 0.00, -0.00, -1.00, 304.8, 18.0)">m</text><text xml:space="preserve" font-family="Metric-Regular" font-size="48.0" fill="#000000" transform="matrix(1.00, 0.00, -0.00, -1.00, 339.2, 18.0)">e</text><text xml:space="preserve" font-family="Metric-Regular" font-size="48.0" fill="#000000" transform="matrix(1.00, 0.00, -0.00, -1.00, 360.8, 18.0)">n</text><text xml:space="preserve" font-family="Metric-Regular" font-size="48.0" fill="#000000" transform="matrix(1.00, 0.00, -0.00, -1.00, 384.2, 18.0)">t</text></g></svg>