<?xml version="1.0" encoding="UTF-8" standalone="no"?><svg xmlns="http://www.w3.org/2000/svg" xmlns:xlink="http://www.w3.org/1999/xlink" clip-rule="evenodd" stroke-miterlimit="4.00" viewBox="0 0 1024 768"><desc>SVG generated by Keynote</desc><defs></defs><g transform="matrix(1.00, 0.00, -0.00, -1.00, 0.0, 768.0)"><path d="M 0.0 768.0 L 1024.0 768.0 L 1024.0 0.0 L 0.0 0.0 Z M 0.0 768.0 " fill="#FFF0E0"></path><text xml:space="preserve" font-family="FinancierDisplay-Regular" font-size="52.8" fill="#000000" transform="matrix(1.00, 0.00, -0.00, -1.00, 54.0, 661.0)">B</text><text xml:space="preserve" font-family="FinancierDisplay-Regular" font-size="52.8" fill="#000000" transform="matrix(1.00, 0.00, -0.00, -1.00, 82.4, 661.0)">u</text><text xml:space="preserve" font-family="FinancierDisplay-Regular" font-size="52.8" fill="#000000" transform="matrix(1.00, 0.00, -0.00, -1.00, 107.7, 661.0)">i</text><text xml:space="preserve" font-family="FinancierDisplay-Regular" font-size="52.8" fill="#000000" transform="matrix(1.00, 0.00, -0.00, -1.00, 120.2, 661.0)">l</text><text xml:space="preserve" font-family="FinancierDisplay-Regular" font-size="52.8" fill="#000000" transform="matrix(1.00, 0.00, -0.00, -1.00, 132.4, 661.0)">d</text><text xml:space="preserve" font-family="FinancierDisplay-Regular" font-size="52.8" fill="#000000" transform="matrix(1.00, 0.00, -0.00, -1.00, 157.9, 661.0)">i</text><text xml:space="preserve" font-family="FinancierDisplay-Regular" font-size="52.8" fill="#000000" transform="matrix(1.00, 0.00, -0.00, -1.00, 170.4, 661.0)">n</text><text xml:space="preserve" font-family="FinancierDisplay-Regular" font-size="52.8" fill="#000000" transform="matrix(1.00, 0.00, -0.00, -1.00, 196.7, 661.0)">g</text><text xml:space="preserve" font-family="FinancierDisplay-Regular" font-size="52.8" fill="#000000" transform="matrix(1.00, 0.00, -0.00, -1.00, 218.6, 661.0)"> </text><text xml:space="preserve" font-family="FinancierDisplay-Regular" font-size="52.8" fill="#000000" transform="matrix(1.00, 0.00, -0.00, -1.00, 227.6, 661.0)">a</text><text xml:space="preserve" font-family="FinancierDisplay-Regular" font-size="52.8" fill="#000000" transform="matrix(1.00, 0.00, -0.00, -1.00, 249.4, 661.0)"> </text><text xml:space="preserve" font-family="FinancierDisplay-Regular" font-size="52.8" fill="#000000" transform="matrix(1.00, 0.00, -0.00, -1.00, 258.4, 661.0)">n</text><text xml:space="preserve" font-family="FinancierDisplay-Regular" font-size="52.8" fill="#000000" transform="matrix(1.00, 0.00, -0.00, -1.00, 284.7, 661.0)">e</text><text xml:space="preserve" font-family="FinancierDisplay-Regular" font-size="52.8" fill="#000000" transform="matrix(1.00, 0.00, -0.00, -1.00, 304.9, 661.0)">w</text><text xml:space="preserve" font-family="FinancierDisplay-Regular" font-size="52.8" fill="#000000" transform="matrix(1.00, 0.00, -0.00, -1.00, 338.3, 661.0)">s</text><text xml:space="preserve" font-family="FinancierDisplay-Regular" font-size="52.8" fill="#000000" transform="matrix(1.00, 0.00, -0.00, -1.00, 356.8, 661.0)">r</text><text xml:space="preserve" font-family="FinancierDisplay-Regular" font-size="52.8" fill="#000000" transform="matrix(1.00, 0.00, -0.00, -1.00, 375.0, 661.0)">o</text><text xml:space="preserve" font-family="FinancierDisplay-Regular" font-size="52.8" fill="#000000" transform="matrix(1.00, 0.00, -0.00, -1.00, 399.5, 661.0)">o</text><text xml:space="preserve" font-family="FinancierDisplay-Regular" font-size="52.8" fill="#000000" transform="matrix(1.00, 0.00, -0.00, -1.00, 423.5, 661.0)">m</text><text xml:space="preserve" font-family="LucidaGrande" font-size="52.8" fill="#000000" transform="matrix(1.00, 0.00, -0.00, -1.00, 463.3, 661.0)"> </text><text xml:space="preserve" font-family="FinancierDisplay-Regular" font-size="52.8" fill="#000000" transform="matrix(1.00, 0.00, -0.00, -1.00, 54.0, 603.0)">‘</text><text xml:space="preserve" font-family="FinancierDisplay-Regular" font-size="52.8" fill="#000000" transform="matrix(1.00, 0.00, -0.00, -1.00, 60.1, 603.0)">d</text><text xml:space="preserve" font-family="FinancierDisplay-Regular" font-size="52.8" fill="#000000" transform="matrix(1.00, 0.00, -0.00, -1.00, 85.6, 603.0)">a</text><text xml:space="preserve" font-family="FinancierDisplay-Regular" font-size="52.8" fill="#000000" transform="matrix(1.00, 0.00, -0.00, -1.00, 107.4, 603.0)">t</text><text xml:space="preserve" font-family="FinancierDisplay-Regular" font-size="52.8" fill="#000000" transform="matrix(1.00, 0.00, -0.00, -1.00, 123.4, 603.0)">a</text><text xml:space="preserve" font-family="FinancierDisplay-Regular" font-size="52.8" fill="#000000" transform="matrix(1.00, 0.00, -0.00, -1.00, 145.2, 603.0)"> </text><text xml:space="preserve" font-family="FinancierDisplay-Regular" font-size="52.8" fill="#000000" transform="matrix(1.00, 0.00, -0.00, -1.00, 154.2, 603.0)">n</text><text xml:space="preserve" font-family="FinancierDisplay-Regular" font-size="52.8" fill="#000000" transform="matrix(1.00, 0.00, -0.00, -1.00, 180.5, 603.0)">e</text><text xml:space="preserve" font-family="FinancierDisplay-Regular" font-size="52.8" fill="#000000" transform="matrix(1.00, 0.00, -0.00, -1.00, 201.8, 603.0)">t</text><text xml:space="preserve" font-family="FinancierDisplay-Regular" font-size="52.8" fill="#000000" transform="matrix(1.00, 0.00, -0.00, -1.00, 217.0, 603.0)">w</text><text xml:space="preserve" font-family="FinancierDisplay-Regular" font-size="52.8" fill="#000000" transform="matrix(1.00, 0.00, -0.00, -1.00, 249.8, 603.0)">o</text><text xml:space="preserve" font-family="FinancierDisplay-Regular" font-size="52.8" fill="#000000" transform="matrix(1.00, 0.00, -0.00, -1.00, 273.8, 603.0)">r</text><text xml:space="preserve" font-family="FinancierDisplay-Regular" font-size="52.8" fill="#000000" transform="matrix(1.00, 0.00, -0.00, -1.00, 292.0, 603.0)">k</text><text xml:space="preserve" font-family="FinancierDisplay-Regular" font-size="52.8" fill="#000000" transform="matrix(1.00, 0.00, -0.00, -1.00, 317.1, 603.0)">’</text><text xml:space="preserve" font-family="FinancierDisplay-Regular" font-size="52.8" fill="#000000" transform="matrix(1.00, 0.00, -0.00, -1.00, 326.8, 603.0)"> </text><text xml:space="preserve" font-family="Helvetica-Light" font-size="28.2" fill="#000000" transform="matrix(1.00, 0.00, -0.00, -1.00, 54.0, 504.0)">S</text><text xml:space="preserve" font-family="Helvetica-Light" font-size="28.2" fill="#000000" transform="matrix(1.00, 0.00, -0.00, -1.00, 71.2, 504.0)">k</text><text xml:space="preserve" font-family="Helvetica-Light" font-size="28.2" fill="#000000" transform="matrix(1.00, 0.00, -0.00, -1.00, 85.3, 504.0)">i</text><text xml:space="preserve" font-family="Helvetica-Light" font-size="28.2" fill="#000000" transform="matrix(1.00, 0.00, -0.00, -1.00, 91.5, 504.0)">l</text><text xml:space="preserve" font-family="Helvetica-Light" font-size="28.2" fill="#000000" transform="matrix(1.00, 0.00, -0.00, -1.00, 97.8, 504.0)">l</text><text xml:space="preserve" font-family="Helvetica-Light" font-size="28.2" fill="#000000" transform="matrix(1.00, 0.00, -0.00, -1.00, 104.0, 504.0)">s</text><text xml:space="preserve" font-family="Helvetica-Light" font-size="28.2" fill="#000000" transform="matrix(1.00, 0.00, -0.00, -1.00, 118.1, 504.0)"> </text><text xml:space="preserve" font-family="Helvetica-Light" font-size="28.2" fill="#000000" transform="matrix(1.00, 0.00, -0.00, -1.00, 125.9, 504.0)">r</text><text xml:space="preserve" font-family="Helvetica-Light" font-size="28.2" fill="#000000" transform="matrix(1.00, 0.00, -0.00, -1.00, 134.8, 504.0)">e</text><text xml:space="preserve" font-family="Helvetica-Light" font-size="28.2" fill="#000000" transform="matrix(1.00, 0.00, -0.00, -1.00, 150.5, 504.0)">s</text><text xml:space="preserve" font-family="Helvetica-Light" font-size="28.2" fill="#000000" transform="matrix(1.00, 0.00, -0.00, -1.00, 164.6, 504.0)">i</text><text xml:space="preserve" font-family="Helvetica-Light" font-size="28.2" fill="#000000" transform="matrix(1.00, 0.00, -0.00, -1.00, 170.8, 504.0)">d</text><text xml:space="preserve" font-family="Helvetica-Light" font-size="28.2" fill="#000000" transform="matrix(1.00, 0.00, -0.00, -1.00, 188.0, 504.0)">e</text><text xml:space="preserve" font-family="Helvetica-Light" font-size="28.2" fill="#000000" transform="matrix(1.00, 0.00, -0.00, -1.00, 203.7, 504.0)"> </text><text xml:space="preserve" font-family="Helvetica-Light" font-size="28.2" fill="#000000" transform="matrix(1.00, 0.00, -0.00, -1.00, 211.5, 504.0)">i</text><text xml:space="preserve" font-family="Helvetica-Light" font-size="28.2" fill="#000000" transform="matrix(1.00, 0.00, -0.00, -1.00, 217.8, 504.0)">n</text><text xml:space="preserve" font-family="Helvetica-Light" font-size="28.2" fill="#000000" transform="matrix(1.00, 0.00, -0.00, -1.00, 233.4, 504.0)"> </text><text xml:space="preserve" font-family="Helvetica-Light" font-size="28.2" fill="#000000" transform="matrix(1.00, 0.00, -0.00, -1.00, 241.2, 504.0)">m</text><text xml:space="preserve" font-family="Helvetica-Light" font-size="28.2" fill="#000000" transform="matrix(1.00, 0.00, -0.00, -1.00, 264.7, 504.0)">o</text><text xml:space="preserve" font-family="Helvetica-Light" font-size="28.2" fill="#000000" transform="matrix(1.00, 0.00, -0.00, -1.00, 280.4, 504.0)">r</text><text xml:space="preserve" font-family="Helvetica-Light" font-size="28.2" fill="#000000" transform="matrix(1.00, 0.00, -0.00, -1.00, 289.2, 504.0)">e</text><text xml:space="preserve" font-family="Helvetica-Light" font-size="28.2" fill="#000000" transform="matrix(1.00, 0.00, -0.00, -1.00, 304.9, 504.0)"> </text><text xml:space="preserve" font-family="Helvetica-Light" font-size="28.2" fill="#000000" transform="matrix(1.00, 0.00, -0.00, -1.00, 312.7, 504.0)">t</text><text xml:space="preserve" font-family="Helvetica-Light" font-size="28.2" fill="#000000" transform="matrix(1.00, 0.00, -0.00, -1.00, 320.5, 504.0)">h</text><text xml:space="preserve" font-family="Helvetica-Light" font-size="28.2" fill="#000000" transform="matrix(1.00, 0.00, -0.00, -1.00, 336.2, 504.0)">a</text><text xml:space="preserve" font-family="Helvetica-Light" font-size="28.2" fill="#000000" transform="matrix(1.00, 0.00, -0.00, -1.00, 351.8, 504.0)">n</text><text xml:space="preserve" font-family="Helvetica-Light" font-size="28.2" fill="#000000" transform="matrix(1.00, 0.00, -0.00, -1.00, 367.5, 504.0)"> </text><text xml:space="preserve" font-family="Helvetica-Light" font-size="28.2" fill="#000000" transform="matrix(1.00, 0.00, -0.00, -1.00, 375.3, 504.0)">o</text><text xml:space="preserve" font-family="Helvetica-Light" font-size="28.2" fill="#000000" transform="matrix(1.00, 0.00, -0.00, -1.00, 391.0, 504.0)">n</text><text xml:space="preserve" font-family="Helvetica-Light" font-size="28.2" fill="#000000" transform="matrix(1.00, 0.00, -0.00, -1.00, 406.6, 504.0)">e</text><text xml:space="preserve" font-family="Helvetica-Light" font-size="28.2" fill="#000000" transform="matrix(1.00, 0.00, -0.00, -1.00, 422.3, 504.0)"> </text><text xml:space="preserve" font-family="Helvetica-Light" font-size="28.2" fill="#000000" transform="matrix(1.00, 0.00, -0.00, -1.00, 54.0, 470.0)">t</text><text xml:space="preserve" font-family="Helvetica-Light" font-size="28.2" fill="#000000" transform="matrix(1.00, 0.00, -0.00, -1.00, 61.8, 470.0)">e</text><text xml:space="preserve" font-family="Helvetica-Light" font-size="28.2" fill="#000000" transform="matrix(1.00, 0.00, -0.00, -1.00, 77.5, 470.0)">a</text><text xml:space="preserve" font-family="Helvetica-Light" font-size="28.2" fill="#000000" transform="matrix(1.00, 0.00, -0.00, -1.00, 93.1, 470.0)">m</text><text xml:space="preserve" font-family="Helvetica-Light" font-size="28.2" fill="#000000" transform="matrix(1.00, 0.00, -0.00, -1.00, 116.6, 470.0)">.</text><text xml:space="preserve" font-family="Helvetica-Light" font-size="28.2" fill="#000000" transform="matrix(1.00, 0.00, -0.00, -1.00, 124.4, 470.0)"> </text><text xml:space="preserve" font-family="Helvetica-Light" font-size="28.2" fill="#000000" transform="matrix(1.00, 0.00, -0.00, -1.00, 54.0, 402.0)">O</text><text xml:space="preserve" font-family="Helvetica-Light" font-size="28.2" fill="#000000" transform="matrix(1.00, 0.00, -0.00, -1.00, 75.9, 402.0)">n</text><text xml:space="preserve" font-family="Helvetica-Light" font-size="28.2" fill="#000000" transform="matrix(1.00, 0.00, -0.00, -1.00, 91.6, 402.0)"> </text><text xml:space="preserve" font-family="Helvetica-Light" font-size="28.2" fill="#000000" transform="matrix(1.00, 0.00, -0.00, -1.00, 99.4, 402.0)">o</text><text xml:space="preserve" font-family="Helvetica-Light" font-size="28.2" fill="#000000" transform="matrix(1.00, 0.00, -0.00, -1.00, 115.1, 402.0)">u</text><text xml:space="preserve" font-family="Helvetica-Light" font-size="28.2" fill="#000000" transform="matrix(1.00, 0.00, -0.00, -1.00, 130.7, 402.0)">r</text><text xml:space="preserve" font-family="Helvetica-Light" font-size="28.2" fill="#000000" transform="matrix(1.00, 0.00, -0.00, -1.00, 140.1, 402.0)"> </text><text xml:space="preserve" font-family="Helvetica-Light" font-size="28.2" fill="#000000" transform="matrix(1.00, 0.00, -0.00, -1.00, 147.9, 402.0)">o</text><text xml:space="preserve" font-family="Helvetica-Light" font-size="28.2" fill="#000000" transform="matrix(1.00, 0.00, -0.00, -1.00, 163.6, 402.0)">r</text><text xml:space="preserve" font-family="Helvetica-Light" font-size="28.2" fill="#000000" transform="matrix(1.00, 0.00, -0.00, -1.00, 172.9, 402.0)">g</text><text xml:space="preserve" font-family="Helvetica-Light" font-size="28.2" fill="#000000" transform="matrix(1.00, 0.00, -0.00, -1.00, 190.2, 402.0)"> </text><text xml:space="preserve" font-family="Helvetica-Light" font-size="28.2" fill="#000000" transform="matrix(1.00, 0.00, -0.00, -1.00, 198.0, 402.0)">c</text><text xml:space="preserve" font-family="Helvetica-Light" font-size="28.2" fill="#000000" transform="matrix(1.00, 0.00, -0.00, -1.00, 213.6, 402.0)">h</text><text xml:space="preserve" font-family="Helvetica-Light" font-size="28.2" fill="#000000" transform="matrix(1.00, 0.00, -0.00, -1.00, 229.3, 402.0)">a</text><text xml:space="preserve" font-family="Helvetica-Light" font-size="28.2" fill="#000000" transform="matrix(1.00, 0.00, -0.00, -1.00, 245.0, 402.0)">r</text><text xml:space="preserve" font-family="Helvetica-Light" font-size="28.2" fill="#000000" transform="matrix(1.00, 0.00, -0.00, -1.00, 254.8, 402.0)">t</text><text xml:space="preserve" font-family="Helvetica-Light" font-size="28.2" fill="#000000" transform="matrix(1.00, 0.00, -0.00, -1.00, 262.7, 402.0)"> </text><text xml:space="preserve" font-family="Helvetica-Light" font-size="28.2" fill="#000000" transform="matrix(1.00, 0.00, -0.00, -1.00, 270.5, 402.0)">a</text><text xml:space="preserve" font-family="Helvetica-Light" font-size="28.2" fill="#000000" transform="matrix(1.00, 0.00, -0.00, -1.00, 286.2, 402.0)">n</text><text xml:space="preserve" font-family="Helvetica-Light" font-size="28.2" fill="#000000" transform="matrix(1.00, 0.00, -0.00, -1.00, 301.8, 402.0)">d</text><text xml:space="preserve" font-family="Helvetica-Light" font-size="28.2" fill="#000000" transform="matrix(1.00, 0.00, -0.00, -1.00, 319.0, 402.0)"> </text><text xml:space="preserve" font-family="Helvetica-Light" font-size="28.2" fill="#000000" transform="matrix(1.00, 0.00, -0.00, -1.00, 326.8, 402.0)">i</text><text xml:space="preserve" font-family="Helvetica-Light" font-size="28.2" fill="#000000" transform="matrix(1.00, 0.00, -0.00, -1.00, 333.1, 402.0)">n</text><text xml:space="preserve" font-family="Helvetica-Light" font-size="28.2" fill="#000000" transform="matrix(1.00, 0.00, -0.00, -1.00, 348.8, 402.0)"> </text><text xml:space="preserve" font-family="Helvetica-Light" font-size="28.2" fill="#000000" transform="matrix(1.00, 0.00, -0.00, -1.00, 356.6, 402.0)">o</text><text xml:space="preserve" font-family="Helvetica-Light" font-size="28.2" fill="#000000" transform="matrix(1.00, 0.00, -0.00, -1.00, 372.2, 402.0)">u</text><text xml:space="preserve" font-family="Helvetica-Light" font-size="28.2" fill="#000000" transform="matrix(1.00, 0.00, -0.00, -1.00, 387.9, 402.0)">r</text><text xml:space="preserve" font-family="Helvetica-Light" font-size="28.2" fill="#000000" transform="matrix(1.00, 0.00, -0.00, -1.00, 397.3, 402.0)"> </text><text xml:space="preserve" font-family="Helvetica-Light" font-size="28.2" fill="#000000" transform="matrix(1.00, 0.00, -0.00, -1.00, 405.1, 402.0)">j</text><text xml:space="preserve" font-family="Helvetica-Light" font-size="28.2" fill="#000000" transform="matrix(1.00, 0.00, -0.00, -1.00, 411.4, 402.0)">o</text><text xml:space="preserve" font-family="Helvetica-Light" font-size="28.2" fill="#000000" transform="matrix(1.00, 0.00, -0.00, -1.00, 427.0, 402.0)">b</text><text xml:space="preserve" font-family="Helvetica-Light" font-size="28.2" fill="#000000" transform="matrix(1.00, 0.00, -0.00, -1.00, 444.2, 402.0)"> </text><text xml:space="preserve" font-family="Helvetica-Light" font-size="28.2" fill="#000000" transform="matrix(1.00, 0.00, -0.00, -1.00, 54.0, 368.0)">t</text><text xml:space="preserve" font-family="Helvetica-Light" font-size="28.2" fill="#000000" transform="matrix(1.00, 0.00, -0.00, -1.00, 61.8, 368.0)">i</text><text xml:space="preserve" font-family="Helvetica-Light" font-size="28.2" fill="#000000" transform="matrix(1.00, 0.00, -0.00, -1.00, 68.1, 368.0)">t</text><text xml:space="preserve" font-family="Helvetica-Light" font-size="28.2" fill="#000000" transform="matrix(1.00, 0.00, -0.00, -1.00, 75.9, 368.0)">l</text><text xml:space="preserve" font-family="Helvetica-Light" font-size="28.2" fill="#000000" transform="matrix(1.00, 0.00, -0.00, -1.00, 82.2, 368.0)">e</text><text xml:space="preserve" font-family="Helvetica-Light" font-size="28.2" fill="#000000" transform="matrix(1.00, 0.00, -0.00, -1.00, 97.8, 368.0)">s</text><text xml:space="preserve" font-family="Helvetica-Light" font-size="28.2" fill="#000000" transform="matrix(1.00, 0.00, -0.00, -1.00, 111.9, 368.0)">,</text><text xml:space="preserve" font-family="Helvetica-Light" font-size="28.2" fill="#000000" transform="matrix(1.00, 0.00, -0.00, -1.00, 119.7, 368.0)"> </text><text xml:space="preserve" font-family="Helvetica-Light" font-size="28.2" fill="#000000" transform="matrix(1.00, 0.00, -0.00, -1.00, 127.6, 368.0)">y</text><text xml:space="preserve" font-family="Helvetica-Light" font-size="28.2" fill="#000000" transform="matrix(1.00, 0.00, -0.00, -1.00, 141.6, 368.0)">o</text><text xml:space="preserve" font-family="Helvetica-Light" font-size="28.2" fill="#000000" transform="matrix(1.00, 0.00, -0.00, -1.00, 157.3, 368.0)">u</text><text xml:space="preserve" font-family="Helvetica-Light" font-size="28.2" fill="#000000" transform="matrix(1.00, 0.00, -0.00, -1.00, 172.9, 368.0)"> </text><text xml:space="preserve" font-family="Helvetica-Light" font-size="28.2" fill="#000000" transform="matrix(1.00, 0.00, -0.00, -1.00, 180.8, 368.0)">w</text><text xml:space="preserve" font-family="Helvetica-Light" font-size="28.2" fill="#000000" transform="matrix(1.00, 0.00, -0.00, -1.00, 201.1, 368.0)">i</text><text xml:space="preserve" font-family="Helvetica-Light" font-size="28.2" fill="#000000" transform="matrix(1.00, 0.00, -0.00, -1.00, 207.4, 368.0)">l</text><text xml:space="preserve" font-family="Helvetica-Light" font-size="28.2" fill="#000000" transform="matrix(1.00, 0.00, -0.00, -1.00, 213.6, 368.0)">l</text><text xml:space="preserve" font-family="Helvetica-Light" font-size="28.2" fill="#000000" transform="matrix(1.00, 0.00, -0.00, -1.00, 219.9, 368.0)"> </text><text xml:space="preserve" font-family="Helvetica-Light" font-size="28.2" fill="#000000" transform="matrix(1.00, 0.00, -0.00, -1.00, 227.7, 368.0)">ﬁ</text><text xml:space="preserve" font-family="Helvetica-Light" font-size="28.2" fill="#000000" transform="matrix(1.00, 0.00, -0.00, -1.00, 241.8, 368.0)">n</text><text xml:space="preserve" font-family="Helvetica-Light" font-size="28.2" fill="#000000" transform="matrix(1.00, 0.00, -0.00, -1.00, 257.4, 368.0)">d</text><text xml:space="preserve" font-family="Helvetica-Light" font-size="28.2" fill="#000000" transform="matrix(1.00, 0.00, -0.00, -1.00, 274.6, 368.0)">:</text><text xml:space="preserve" font-family="LucidaGrande" font-size="28.2" fill="#000000" transform="matrix(1.00, 0.00, -0.00, -1.00, 282.5, 368.0)"> </text><text xml:space="preserve" font-family="Helvetica-Light" font-size="28.2" fill="#000000" transform="matrix(1.00, 0.00, -0.00, -1.00, 72.0, 300.5)">•</text><text xml:space="preserve" font-family="Helvetica-Light" font-size="28.2" fill="#000000" transform="matrix(1.00, 0.00, -0.00, -1.00, 88.0, 300.0)">G</text><text xml:space="preserve" font-family="Helvetica-Light" font-size="28.2" fill="#000000" transform="matrix(1.00, 0.00, -0.00, -1.00, 109.9, 300.0)">r</text><text xml:space="preserve" font-family="Helvetica-Light" font-size="28.2" fill="#000000" transform="matrix(1.00, 0.00, -0.00, -1.00, 119.3, 300.0)">a</text><text xml:space="preserve" font-family="Helvetica-Light" font-size="28.2" fill="#000000" transform="matrix(1.00, 0.00, -0.00, -1.00, 134.9, 300.0)">p</text><text xml:space="preserve" font-family="Helvetica-Light" font-size="28.2" fill="#000000" transform="matrix(1.00, 0.00, -0.00, -1.00, 152.1, 300.0)">h</text><text xml:space="preserve" font-family="Helvetica-Light" font-size="28.2" fill="#000000" transform="matrix(1.00, 0.00, -0.00, -1.00, 167.8, 300.0)">i</text><text xml:space="preserve" font-family="Helvetica-Light" font-size="28.2" fill="#000000" transform="matrix(1.00, 0.00, -0.00, -1.00, 174.1, 300.0)">c</text><text xml:space="preserve" font-family="Helvetica-Light" font-size="28.2" fill="#000000" transform="matrix(1.00, 0.00, -0.00, -1.00, 189.7, 300.0)">s</text><text xml:space="preserve" font-family="Helvetica-Light" font-size="28.2" fill="#000000" transform="matrix(1.00, 0.00, -0.00, -1.00, 203.8, 300.0)"> </text><text xml:space="preserve" font-family="Helvetica-Light" font-size="28.2" fill="#000000" transform="matrix(1.00, 0.00, -0.00, -1.00, 72.0, 266.5)">•</text><text xml:space="preserve" font-family="Helvetica-Light" font-size="28.2" fill="#000000" transform="matrix(1.00, 0.00, -0.00, -1.00, 88.0, 266.0)">S</text><text xml:space="preserve" font-family="Helvetica-Light" font-size="28.2" fill="#000000" transform="matrix(1.00, 0.00, -0.00, -1.00, 105.2, 266.0)">t</text><text xml:space="preserve" font-family="Helvetica-Light" font-size="28.2" fill="#000000" transform="matrix(1.00, 0.00, -0.00, -1.00, 113.0, 266.0)">a</text><text xml:space="preserve" font-family="Helvetica-Light" font-size="28.2" fill="#000000" transform="matrix(1.00, 0.00, -0.00, -1.00, 128.7, 266.0)">t</text><text xml:space="preserve" font-family="Helvetica-Light" font-size="28.2" fill="#000000" transform="matrix(1.00, 0.00, -0.00, -1.00, 136.5, 266.0)">i</text><text xml:space="preserve" font-family="Helvetica-Light" font-size="28.2" fill="#000000" transform="matrix(1.00, 0.00, -0.00, -1.00, 142.8, 266.0)">s</text><text xml:space="preserve" font-family="Helvetica-Light" font-size="28.2" fill="#000000" transform="matrix(1.00, 0.00, -0.00, -1.00, 156.9, 266.0)">t</text><text xml:space="preserve" font-family="Helvetica-Light" font-size="28.2" fill="#000000" transform="matrix(1.00, 0.00, -0.00, -1.00, 164.7, 266.0)">i</text><text xml:space="preserve" font-family="Helvetica-Light" font-size="28.2" fill="#000000" transform="matrix(1.00, 0.00, -0.00, -1.00, 170.9, 266.0)">c</text><text xml:space="preserve" font-family="Helvetica-Light" font-size="28.2" fill="#000000" transform="matrix(1.00, 0.00, -0.00, -1.00, 186.6, 266.0)">s</text><text xml:space="preserve" font-family="Helvetica-Light" font-size="28.2" fill="#000000" transform="matrix(1.00, 0.00, -0.00, -1.00, 200.7, 266.0)"> </text><text xml:space="preserve" font-family="Helvetica-Light" font-size="28.2" fill="#000000" transform="matrix(1.00, 0.00, -0.00, -1.00, 72.0, 232.5)">•</text><text xml:space="preserve" font-family="Helvetica-Light" font-size="28.2" fill="#000000" transform="matrix(1.00, 0.00, -0.00, -1.00, 88.0, 232.0)">I</text><text xml:space="preserve" font-family="Helvetica-Light" font-size="28.2" fill="#000000" transform="matrix(1.00, 0.00, -0.00, -1.00, 95.8, 232.0)">n</text><text xml:space="preserve" font-family="Helvetica-Light" font-size="28.2" fill="#000000" transform="matrix(1.00, 0.00, -0.00, -1.00, 111.5, 232.0)">t</text><text xml:space="preserve" font-family="Helvetica-Light" font-size="28.2" fill="#000000" transform="matrix(1.00, 0.00, -0.00, -1.00, 119.3, 232.0)">e</text><text xml:space="preserve" font-family="Helvetica-Light" font-size="28.2" fill="#000000" transform="matrix(1.00, 0.00, -0.00, -1.00, 135.0, 232.0)">r</text><text xml:space="preserve" font-family="Helvetica-Light" font-size="28.2" fill="#000000" transform="matrix(1.00, 0.00, -0.00, -1.00, 144.3, 232.0)">a</text><text xml:space="preserve" font-family="Helvetica-Light" font-size="28.2" fill="#000000" transform="matrix(1.00, 0.00, -0.00, -1.00, 160.0, 232.0)">c</text><text xml:space="preserve" font-family="Helvetica-Light" font-size="28.2" fill="#000000" transform="matrix(1.00, 0.00, -0.00, -1.00, 175.7, 232.0)">t</text><text xml:space="preserve" font-family="Helvetica-Light" font-size="28.2" fill="#000000" transform="matrix(1.00, 0.00, -0.00, -1.00, 183.5, 232.0)">i</text><text xml:space="preserve" font-family="Helvetica-Light" font-size="28.2" fill="#000000" transform="matrix(1.00, 0.00, -0.00, -1.00, 189.7, 232.0)">v</text><text xml:space="preserve" font-family="Helvetica-Light" font-size="28.2" fill="#000000" transform="matrix(1.00, 0.00, -0.00, -1.00, 203.8, 232.0)">e</text><text xml:space="preserve" font-family="Helvetica-Light" font-size="28.2" fill="#000000" transform="matrix(1.00, 0.00, -0.00, -1.00, 219.5, 232.0)"> </text><text xml:space="preserve" font-family="Helvetica-Light" font-size="28.2" fill="#000000" transform="matrix(1.00, 0.00, -0.00, -1.00, 72.0, 198.5)">•</text><text xml:space="preserve" font-family="Helvetica-Light" font-size="28.2" fill="#000000" transform="matrix(1.00, 0.00, -0.00, -1.00, 88.0, 198.0)">I</text><text xml:space="preserve" font-family="Helvetica-Light" font-size="28.2" fill="#000000" transform="matrix(1.00, 0.00, -0.00, -1.00, 95.8, 198.0)">n</text><text xml:space="preserve" font-family="Helvetica-Light" font-size="28.2" fill="#000000" transform="matrix(1.00, 0.00, -0.00, -1.00, 111.5, 198.0)">v</text><text xml:space="preserve" font-family="Helvetica-Light" font-size="28.2" fill="#000000" transform="matrix(1.00, 0.00, -0.00, -1.00, 125.6, 198.0)">e</text><text xml:space="preserve" font-family="Helvetica-Light" font-size="28.2" fill="#000000" transform="matrix(1.00, 0.00, -0.00, -1.00, 141.2, 198.0)">s</text><text xml:space="preserve" font-family="Helvetica-Light" font-size="28.2" fill="#000000" transform="matrix(1.00, 0.00, -0.00, -1.00, 155.3, 198.0)">t</text><text xml:space="preserve" font-family="Helvetica-Light" font-size="28.2" fill="#000000" transform="matrix(1.00, 0.00, -0.00, -1.00, 163.1, 198.0)">i</text><text xml:space="preserve" font-family="Helvetica-Light" font-size="28.2" fill="#000000" transform="matrix(1.00, 0.00, -0.00, -1.00, 169.4, 198.0)">g</text><text xml:space="preserve" font-family="Helvetica-Light" font-size="28.2" fill="#000000" transform="matrix(1.00, 0.00, -0.00, -1.00, 186.6, 198.0)">a</text><text xml:space="preserve" font-family="Helvetica-Light" font-size="28.2" fill="#000000" transform="matrix(1.00, 0.00, -0.00, -1.00, 202.2, 198.0)">t</text><text xml:space="preserve" font-family="Helvetica-Light" font-size="28.2" fill="#000000" transform="matrix(1.00, 0.00, -0.00, -1.00, 210.1, 198.0)">i</text><text xml:space="preserve" font-family="Helvetica-Light" font-size="28.2" fill="#000000" transform="matrix(1.00, 0.00, -0.00, -1.00, 216.3, 198.0)">o</text><text xml:space="preserve" font-family="Helvetica-Light" font-size="28.2" fill="#000000" transform="matrix(1.00, 0.00, -0.00, -1.00, 232.0, 198.0)">n</text><text xml:space="preserve" font-family="Helvetica-Light" font-size="28.2" fill="#000000" transform="matrix(1.00, 0.00, -0.00, -1.00, 247.6, 198.0)">s</text><text xml:space="preserve" font-family="Helvetica-Light" font-size="28.2" fill="#000000" transform="matrix(1.00, 0.00, -0.00, -1.00, 261.7, 198.0)"> </text><text xml:space="preserve" font-family="Helvetica-Light" font-size="28.2" fill="#000000" transform="matrix(1.00, 0.00, -0.00, -1.00, 72.0, 164.5)">•</text><text xml:space="preserve" font-family="Helvetica-Light" font-size="28.2" fill="#000000" transform="matrix(1.00, 0.00, -0.00, -1.00, 88.0, 164.0)">E</text><text xml:space="preserve" font-family="Helvetica-Light" font-size="28.2" fill="#000000" transform="matrix(1.00, 0.00, -0.00, -1.00, 105.2, 164.0)">d</text><text xml:space="preserve" font-family="Helvetica-Light" font-size="28.2" fill="#000000" transform="matrix(1.00, 0.00, -0.00, -1.00, 122.4, 164.0)">i</text><text xml:space="preserve" font-family="Helvetica-Light" font-size="28.2" fill="#000000" transform="matrix(1.00, 0.00, -0.00, -1.00, 128.7, 164.0)">t</text><text xml:space="preserve" font-family="Helvetica-Light" font-size="28.2" fill="#000000" transform="matrix(1.00, 0.00, -0.00, -1.00, 136.5, 164.0)">o</text><text xml:space="preserve" font-family="Helvetica-Light" font-size="28.2" fill="#000000" transform="matrix(1.00, 0.00, -0.00, -1.00, 152.1, 164.0)">r</text><text xml:space="preserve" font-family="Helvetica-Light" font-size="28.2" fill="#000000" transform="matrix(1.00, 0.00, -0.00, -1.00, 161.5, 164.0)">i</text><text xml:space="preserve" font-family="Helvetica-Light" font-size="28.2" fill="#000000" transform="matrix(1.00, 0.00, -0.00, -1.00, 167.8, 164.0)">a</text><text xml:space="preserve" font-family="Helvetica-Light" font-size="28.2" fill="#000000" transform="matrix(1.00, 0.00, -0.00, -1.00, 183.4, 164.0)">l</text><text xml:space="preserve" font-family="Helvetica-Light" font-size="28.2" fill="#000000" transform="matrix(1.00, 0.00, -0.00, -1.00, 189.7, 164.0)"> </text><text xml:space="preserve" font-family="Helvetica-Light" font-size="28.2" fill="#000000" transform="matrix(1.00, 0.00, -0.00, -1.00, 197.5, 164.0)">t</text><text xml:space="preserve" font-family="Helvetica-Light" font-size="28.2" fill="#000000" transform="matrix(1.00, 0.00, -0.00, -1.00, 205.3, 164.0)">e</text><text xml:space="preserve" font-family="Helvetica-Light" font-size="28.2" fill="#000000" transform="matrix(1.00, 0.00, -0.00, -1.00, 221.0, 164.0)">c</text><text xml:space="preserve" font-family="Helvetica-Light" font-size="28.2" fill="#000000" transform="matrix(1.00, 0.00, -0.00, -1.00, 236.7, 164.0)">h</text><text xml:space="preserve" font-family="Helvetica-Light" font-size="28.2" fill="#000000" transform="matrix(1.00, 0.00, -0.00, -1.00, 252.3, 164.0)">n</text><text xml:space="preserve" font-family="Helvetica-Light" font-size="28.2" fill="#000000" transform="matrix(1.00, 0.00, -0.00, -1.00, 268.0, 164.0)">o</text><text xml:space="preserve" font-family="Helvetica-Light" font-size="28.2" fill="#000000" transform="matrix(1.00, 0.00, -0.00, -1.00, 283.6, 164.0)">l</text><text xml:space="preserve" font-family="Helvetica-Light" font-size="28.2" fill="#000000" transform="matrix(1.00, 0.00, -0.00, -1.00, 289.9, 164.0)">o</text><text xml:space="preserve" font-family="Helvetica-Light" font-size="28.2" fill="#000000" transform="matrix(1.00, 0.00, -0.00, -1.00, 305.5, 164.0)">g</text><text xml:space="preserve" font-family="Helvetica-Light" font-size="28.2" fill="#000000" transform="matrix(1.00, 0.00, -0.00, -1.00, 322.7, 164.0)">y</text><text xml:space="preserve" font-family="Helvetica-Light" font-size="28.2" fill="#000000" transform="matrix(1.00, 0.00, -0.00, -1.00, 336.8, 164.0)"> </text><text xml:space="preserve" font-family="Helvetica-Light" font-size="28.2" fill="#000000" transform="matrix(1.00, 0.00, -0.00, -1.00, 72.0, 130.5)">•</text><text xml:space="preserve" font-family="Helvetica-Light" font-size="28.2" fill="#000000" transform="matrix(1.00, 0.00, -0.00, -1.00, 88.0, 130.0)">P</text><text xml:space="preserve" font-family="Helvetica-Light" font-size="28.2" fill="#000000" transform="matrix(1.00, 0.00, -0.00, -1.00, 105.2, 130.0)">u</text><text xml:space="preserve" font-family="Helvetica-Light" font-size="28.2" fill="#000000" transform="matrix(1.00, 0.00, -0.00, -1.00, 120.9, 130.0)">b</text><text xml:space="preserve" font-family="Helvetica-Light" font-size="28.2" fill="#000000" transform="matrix(1.00, 0.00, -0.00, -1.00, 138.1, 130.0)">l</text><text xml:space="preserve" font-family="Helvetica-Light" font-size="28.2" fill="#000000" transform="matrix(1.00, 0.00, -0.00, -1.00, 144.3, 130.0)">i</text><text xml:space="preserve" font-family="Helvetica-Light" font-size="28.2" fill="#000000" transform="matrix(1.00, 0.00, -0.00, -1.00, 150.6, 130.0)">c</text><text xml:space="preserve" font-family="Helvetica-Light" font-size="28.2" fill="#000000" transform="matrix(1.00, 0.00, -0.00, -1.00, 166.2, 130.0)"> </text><text xml:space="preserve" font-family="Helvetica-Light" font-size="28.2" fill="#000000" transform="matrix(1.00, 0.00, -0.00, -1.00, 174.1, 130.0)">p</text><text xml:space="preserve" font-family="Helvetica-Light" font-size="28.2" fill="#000000" transform="matrix(1.00, 0.00, -0.00, -1.00, 191.3, 130.0)">o</text><text xml:space="preserve" font-family="Helvetica-Light" font-size="28.2" fill="#000000" transform="matrix(1.00, 0.00, -0.00, -1.00, 206.9, 130.0)">l</text><text xml:space="preserve" font-family="Helvetica-Light" font-size="28.2" fill="#000000" transform="matrix(1.00, 0.00, -0.00, -1.00, 213.2, 130.0)">i</text><text xml:space="preserve" font-family="Helvetica-Light" font-size="28.2" fill="#000000" transform="matrix(1.00, 0.00, -0.00, -1.00, 219.4, 130.0)">c</text><text xml:space="preserve" font-family="Helvetica-Light" font-size="28.2" fill="#000000" transform="matrix(1.00, 0.00, -0.00, -1.00, 235.1, 130.0)">y</text><text xml:space="preserve" font-family="Helvetica-Light" font-size="28.2" fill="#000000" transform="matrix(1.00, 0.00, -0.00, -1.00, 249.2, 130.0)">/</text><text xml:space="preserve" font-family="Helvetica-Light" font-size="28.2" fill="#000000" transform="matrix(1.00, 0.00, -0.00, -1.00, 257.0, 130.0)">E</text><text xml:space="preserve" font-family="Helvetica-Light" font-size="28.2" fill="#000000" transform="matrix(1.00, 0.00, -0.00, -1.00, 274.2, 130.0)">c</text><text xml:space="preserve" font-family="Helvetica-Light" font-size="28.2" fill="#000000" transform="matrix(1.00, 0.00, -0.00, -1.00, 289.9, 130.0)">o</text><text xml:space="preserve" font-family="Helvetica-Light" font-size="28.2" fill="#000000" transform="matrix(1.00, 0.00, -0.00, -1.00, 305.5, 130.0)">n</text><text xml:space="preserve" font-family="Helvetica-Light" font-size="28.2" fill="#000000" transform="matrix(1.00, 0.00, -0.00, -1.00, 321.2, 130.0)">o</text><text xml:space="preserve" font-family="Helvetica-Light" font-size="28.2" fill="#000000" transform="matrix(1.00, 0.00, -0.00, -1.00, 336.8, 130.0)">m</text><text xml:space="preserve" font-family="Helvetica-Light" font-size="28.2" fill="#000000" transform="matrix(1.00, 0.00, -0.00, -1.00, 360.3, 130.0)">i</text><text xml:space="preserve" font-family="Helvetica-Light" font-size="28.2" fill="#000000" transform="matrix(1.00, 0.00, -0.00, -1.00, 366.5, 130.0)">c</text><text xml:space="preserve" font-family="Helvetica-Light" font-size="28.2" fill="#000000" transform="matrix(1.00, 0.00, -0.00, -1.00, 382.2, 130.0)">s</text><text xml:space="preserve" font-family="Helvetica-Light" font-size="28.2" fill="#000000" transform="matrix(1.00, 0.00, -0.00, -1.00, 396.3, 130.0)">/</text><text xml:space="preserve" font-family="Helvetica-Light" font-size="28.2" fill="#000000" transform="matrix(1.00, 0.00, -0.00, -1.00, 88.0, 96.0)">M</text><text xml:space="preserve" font-family="Helvetica-Light" font-size="28.2" fill="#000000" transform="matrix(1.00, 0.00, -0.00, -1.00, 111.5, 96.0)">a</text><text xml:space="preserve" font-family="Helvetica-Light" font-size="28.2" fill="#000000" transform="matrix(1.00, 0.00, -0.00, -1.00, 127.1, 96.0)">r</text><text xml:space="preserve" font-family="Helvetica-Light" font-size="28.2" fill="#000000" transform="matrix(1.00, 0.00, -0.00, -1.00, 136.5, 96.0)">k</text><text xml:space="preserve" font-family="Helvetica-Light" font-size="28.2" fill="#000000" transform="matrix(1.00, 0.00, -0.00, -1.00, 150.6, 96.0)">e</text><text xml:space="preserve" font-family="Helvetica-Light" font-size="28.2" fill="#000000" transform="matrix(1.00, 0.00, -0.00, -1.00, 166.2, 96.0)">t</text><text xml:space="preserve" font-family="Helvetica-Light" font-size="28.2" fill="#000000" transform="matrix(1.00, 0.00, -0.00, -1.00, 174.1, 96.0)">s</text><g><clipPath id="clip-294"><path d="M 910.0 75.0 L 1006.0 75.0 L 1006.0 22.0 L 910.0 22.0 Z M 910.0 75.0 "></path></clipPath><g clip-path="url(#clip-294)"><g><clipPath id="clip-295"><path d="M 910.0 22.0 L 1006.0 22.0 L 1006.0 75.0 L 910.0 75.0 Z M 910.0 22.0 "></path></clipPath><g clip-path="url(#clip-295)"><path d="M 957.3 63.3 L 960.0 63.3 C 960.8 66.1 962.0 68.2 963.4 69.3 C 964.9 70.5 967.0 71.1 969.8 71.1 L 976.3 71.1 L 976.3 30.4 C 976.3 29.0 976.2 27.9 976.0 27.1 C 975.8 26.4 975.4 25.7 974.8 25.3 C 974.2 24.8 973.4 24.5 972.6 24.4 C 971.7 24.2 970.5 24.1 968.9 24.1 L 968.9 22.0 L 994.5 22.0 L 994.5 24.1 C 992.8 24.1 991.5 24.2 990.7 24.4 C 989.8 24.5 989.1 24.8 988.4 25.3 C 987.8 25.7 987.4 26.4 987.2 27.1 C 987.0 27.9 986.9 29.0 986.9 30.4 L 986.9 71.1 L 993.5 71.1 C 996.3 71.1 998.4 70.5 999.9 69.3 C 1001.3 68.2 1002.4 66.1 1003.3 63.3 L 1006.0 63.3 L 1004.9 75.0 L 958.6 75.0 Z M 910.0 22.0 L 935.3 22.0 L 935.3 24.1 C 933.6 24.1 932.3 24.2 931.4 24.4 C 930.5 24.5 929.7 24.8 929.1 25.3 C 928.4 25.7 928.0 26.4 927.8 27.1 C 927.6 27.9 927.5 29.0 927.5 30.4 L 927.5 47.7 L 931.5 47.7 C 935.0 47.7 937.6 47.2 939.3 46.1 C 940.9 45.0 942.0 42.9 942.6 39.9 L 944.6 39.9 L 944.6 58.6 L 942.6 58.6 C 942.2 56.6 941.7 55.1 941.0 54.2 C 940.4 53.2 939.3 52.5 937.9 52.1 C 936.4 51.7 934.3 51.4 931.5 51.4 L 927.5 51.4 L 927.5 68.4 C 927.5 69.5 927.7 70.2 928.1 70.6 C 928.5 70.9 929.3 71.1 930.4 71.1 L 938.5 71.1 C 941.1 71.1 943.3 71.0 944.9 70.8 C 946.5 70.5 947.8 70.1 948.8 69.4 C 949.9 68.7 950.7 67.9 951.2 67.0 C 951.8 66.1 952.3 64.9 952.8 63.3 L 955.0 63.3 L 954.7 75.0 L 910.1 75.0 L 910.1 73.0 C 911.6 72.9 912.7 72.8 913.4 72.7 C 914.2 72.5 914.8 72.2 915.4 71.8 C 916.0 71.3 916.4 70.7 916.6 69.9 C 916.8 69.1 916.9 68.0 916.9 66.6 L 916.9 30.4 C 916.9 29.0 916.8 27.9 916.6 27.1 C 916.4 26.4 916.0 25.7 915.4 25.3 C 914.8 24.8 914.2 24.5 913.4 24.4 C 912.6 24.2 911.5 24.1 910.0 24.1 Z M 910.0 22.0 " fill="#C6B5A9"></path></g></g></g></g><image xlink:href="../../041AFEE0-6DC2-4262-B57C-CEDCABA448EB/assets/8991E3F315E36D8F5F351EA904193AE3.png" width="540.00" height="540.00" transform="matrix(1.01, 0.00, -0.00, -1.01, 473.0, 757.0)"></image></g></svg>