<?xml version="1.0" encoding="UTF-8" standalone="no"?><svg xmlns="http://www.w3.org/2000/svg" xmlns:xlink="http://www.w3.org/1999/xlink" clip-rule="evenodd" stroke-miterlimit="4.00" viewBox="0 0 1024 768"><desc>SVG generated by Keynote</desc><defs></defs><g transform="matrix(1.00, 0.00, -0.00, -1.00, 0.0, 768.0)"><path d="M 0.0 768.0 L 1024.0 768.0 L 1024.0 0.0 L 0.0 0.0 Z M 0.0 768.0 " fill="#FFF0E0"></path><g><clipPath id="clip-324"><path d="M 910.0 75.0 L 1006.0 75.0 L 1006.0 22.0 L 910.0 22.0 Z M 910.0 75.0 "></path></clipPath><g clip-path="url(#clip-324)"><g><clipPath id="clip-325"><path d="M 910.0 22.0 L 1006.0 22.0 L 1006.0 75.0 L 910.0 75.0 Z M 910.0 22.0 "></path></clipPath><g clip-path="url(#clip-325)"><path d="M 957.3 63.3 L 960.0 63.3 C 960.8 66.1 962.0 68.2 963.4 69.3 C 964.9 70.5 967.0 71.1 969.8 71.1 L 976.3 71.1 L 976.3 30.4 C 976.3 29.0 976.2 27.9 976.0 27.1 C 975.8 26.4 975.4 25.7 974.8 25.3 C 974.2 24.8 973.4 24.5 972.6 24.4 C 971.7 24.2 970.5 24.1 968.9 24.1 L 968.9 22.0 L 994.5 22.0 L 994.5 24.1 C 992.8 24.1 991.5 24.2 990.7 24.4 C 989.8 24.5 989.1 24.8 988.4 25.3 C 987.8 25.7 987.4 26.4 987.2 27.1 C 987.0 27.9 986.9 29.0 986.9 30.4 L 986.9 71.1 L 993.5 71.1 C 996.3 71.1 998.4 70.5 999.9 69.3 C 1001.3 68.2 1002.4 66.1 1003.3 63.3 L 1006.0 63.3 L 1004.9 75.0 L 958.6 75.0 Z M 910.0 22.0 L 935.3 22.0 L 935.3 24.1 C 933.6 24.1 932.3 24.2 931.4 24.4 C 930.5 24.5 929.7 24.8 929.1 25.3 C 928.4 25.7 928.0 26.4 927.8 27.1 C 927.6 27.9 927.5 29.0 927.5 30.4 L 927.5 47.7 L 931.5 47.7 C 935.0 47.7 937.6 47.2 939.3 46.1 C 940.9 45.0 942.0 42.9 942.6 39.9 L 944.6 39.9 L 944.6 58.6 L 942.6 58.6 C 942.2 56.6 941.7 55.1 941.0 54.2 C 940.4 53.2 939.3 52.5 937.9 52.1 C 936.4 51.7 934.3 51.4 931.5 51.4 L 927.5 51.4 L 927.5 68.4 C 927.5 69.5 927.7 70.2 928.1 70.6 C 928.5 70.9 929.3 71.1 930.4 71.1 L 938.5 71.1 C 941.1 71.1 943.3 71.0 944.9 70.8 C 946.5 70.5 947.8 70.1 948.8 69.4 C 949.9 68.7 950.7 67.9 951.2 67.0 C 951.8 66.1 952.3 64.9 952.8 63.3 L 955.0 63.3 L 954.7 75.0 L 910.1 75.0 L 910.1 73.0 C 911.6 72.9 912.7 72.8 913.4 72.7 C 914.2 72.5 914.8 72.2 915.4 71.8 C 916.0 71.3 916.4 70.7 916.6 69.9 C 916.8 69.1 916.9 68.0 916.9 66.6 L 916.9 30.4 C 916.9 29.0 916.8 27.9 916.6 27.1 C 916.4 26.4 916.0 25.7 915.4 25.3 C 914.8 24.8 914.2 24.5 913.4 24.4 C 912.6 24.2 911.5 24.1 910.0 24.1 Z M 910.0 22.0 " fill="#C6B5A9"></path></g></g></g></g><text xml:space="preserve" font-family="FinancierDisplay-Regular" font-size="58.8" fill="#000000" transform="matrix(1.00, 0.00, -0.00, -1.00, 51.0, 658.0)">N</text><text xml:space="preserve" font-family="FinancierDisplay-Regular" font-size="58.8" fill="#000000" transform="matrix(1.00, 0.00, -0.00, -1.00, 88.9, 658.0)">i</text><text xml:space="preserve" font-family="FinancierDisplay-Regular" font-size="58.8" fill="#000000" transform="matrix(1.00, 0.00, -0.00, -1.00, 102.7, 658.0)">g</text><text xml:space="preserve" font-family="FinancierDisplay-Regular" font-size="58.8" fill="#000000" transform="matrix(1.00, 0.00, -0.00, -1.00, 127.2, 658.0)">h</text><text xml:space="preserve" font-family="FinancierDisplay-Regular" font-size="58.8" fill="#000000" transform="matrix(1.00, 0.00, -0.00, -1.00, 156.3, 658.0)">t</text><text xml:space="preserve" font-family="FinancierDisplay-Regular" font-size="58.8" fill="#000000" transform="matrix(1.00, 0.00, -0.00, -1.00, 174.1, 658.0)">i</text><text xml:space="preserve" font-family="FinancierDisplay-Regular" font-size="58.8" fill="#000000" transform="matrix(1.00, 0.00, -0.00, -1.00, 188.0, 658.0)">n</text><text xml:space="preserve" font-family="FinancierDisplay-Regular" font-size="58.8" fill="#000000" transform="matrix(1.00, 0.00, -0.00, -1.00, 217.3, 658.0)">g</text><text xml:space="preserve" font-family="FinancierDisplay-Regular" font-size="58.8" fill="#000000" transform="matrix(1.00, 0.00, -0.00, -1.00, 241.7, 658.0)">a</text><text xml:space="preserve" font-family="FinancierDisplay-Regular" font-size="58.8" fill="#000000" transform="matrix(1.00, 0.00, -0.00, -1.00, 266.0, 658.0)">l</text><text xml:space="preserve" font-family="FinancierDisplay-Regular" font-size="58.8" fill="#000000" transform="matrix(1.00, 0.00, -0.00, -1.00, 279.7, 658.0)">e</text><text xml:space="preserve" font-family="FinancierDisplay-Regular" font-size="58.8" fill="#000000" transform="matrix(1.00, 0.00, -0.00, -1.00, 303.4, 658.0)">:</text><text xml:space="preserve" font-family="FinancierDisplay-Regular" font-size="58.8" fill="#000000" transform="matrix(1.00, 0.00, -0.00, -1.00, 314.1, 658.0)"> </text><text xml:space="preserve" font-family="FinancierDisplay-Regular" font-size="58.8" fill="#000000" transform="matrix(1.00, 0.00, -0.00, -1.00, 324.1, 658.0)">d</text><text xml:space="preserve" font-family="FinancierDisplay-Regular" font-size="58.8" fill="#000000" transform="matrix(1.00, 0.00, -0.00, -1.00, 352.5, 658.0)">i</text><text xml:space="preserve" font-family="FinancierDisplay-Regular" font-size="58.8" fill="#000000" transform="matrix(1.00, 0.00, -0.00, -1.00, 366.4, 658.0)">s</text><text xml:space="preserve" font-family="FinancierDisplay-Regular" font-size="58.8" fill="#000000" transform="matrix(1.00, 0.00, -0.00, -1.00, 386.8, 658.0)">t</text><text xml:space="preserve" font-family="FinancierDisplay-Regular" font-size="58.8" fill="#000000" transform="matrix(1.00, 0.00, -0.00, -1.00, 404.7, 658.0)">r</text><text xml:space="preserve" font-family="FinancierDisplay-Regular" font-size="58.8" fill="#000000" transform="matrix(1.00, 0.00, -0.00, -1.00, 425.7, 658.0)">i</text><text xml:space="preserve" font-family="FinancierDisplay-Regular" font-size="58.8" fill="#000000" transform="matrix(1.00, 0.00, -0.00, -1.00, 439.6, 658.0)">b</text><text xml:space="preserve" font-family="FinancierDisplay-Regular" font-size="58.8" fill="#000000" transform="matrix(1.00, 0.00, -0.00, -1.00, 467.8, 658.0)">u</text><text xml:space="preserve" font-family="FinancierDisplay-Regular" font-size="58.8" fill="#000000" transform="matrix(1.00, 0.00, -0.00, -1.00, 496.0, 658.0)">t</text><text xml:space="preserve" font-family="FinancierDisplay-Regular" font-size="58.8" fill="#000000" transform="matrix(1.00, 0.00, -0.00, -1.00, 513.9, 658.0)">i</text><text xml:space="preserve" font-family="FinancierDisplay-Regular" font-size="58.8" fill="#000000" transform="matrix(1.00, 0.00, -0.00, -1.00, 527.8, 658.0)">n</text><text xml:space="preserve" font-family="FinancierDisplay-Regular" font-size="58.8" fill="#000000" transform="matrix(1.00, 0.00, -0.00, -1.00, 557.0, 658.0)">g</text><text xml:space="preserve" font-family="FinancierDisplay-Regular" font-size="58.8" fill="#000000" transform="matrix(1.00, 0.00, -0.00, -1.00, 581.5, 658.0)"> </text><text xml:space="preserve" font-family="FinancierDisplay-Regular" font-size="58.8" fill="#000000" transform="matrix(1.00, 0.00, -0.00, -1.00, 591.5, 658.0)">v</text><text xml:space="preserve" font-family="FinancierDisplay-Regular" font-size="58.8" fill="#000000" transform="matrix(1.00, 0.00, -0.00, -1.00, 618.9, 658.0)">i</text><text xml:space="preserve" font-family="FinancierDisplay-Regular" font-size="58.8" fill="#000000" transform="matrix(1.00, 0.00, -0.00, -1.00, 632.8, 658.0)">s</text><text xml:space="preserve" font-family="FinancierDisplay-Regular" font-size="58.8" fill="#000000" transform="matrix(1.00, 0.00, -0.00, -1.00, 653.4, 658.0)">u</text><text xml:space="preserve" font-family="FinancierDisplay-Regular" font-size="58.8" fill="#000000" transform="matrix(1.00, 0.00, -0.00, -1.00, 681.6, 658.0)">a</text><text xml:space="preserve" font-family="FinancierDisplay-Regular" font-size="58.8" fill="#000000" transform="matrix(1.00, 0.00, -0.00, -1.00, 705.9, 658.0)">l</text><text xml:space="preserve" font-family="FinancierDisplay-Regular" font-size="58.8" fill="#000000" transform="matrix(1.00, 0.00, -0.00, -1.00, 719.5, 658.0)">i</text><text xml:space="preserve" font-family="FinancierDisplay-Regular" font-size="58.8" fill="#000000" transform="matrix(1.00, 0.00, -0.00, -1.00, 733.4, 658.0)">s</text><text xml:space="preserve" font-family="FinancierDisplay-Regular" font-size="58.8" fill="#000000" transform="matrix(1.00, 0.00, -0.00, -1.00, 754.0, 658.0)">a</text><text xml:space="preserve" font-family="FinancierDisplay-Regular" font-size="58.8" fill="#000000" transform="matrix(1.00, 0.00, -0.00, -1.00, 778.3, 658.0)">t</text><text xml:space="preserve" font-family="FinancierDisplay-Regular" font-size="58.8" fill="#000000" transform="matrix(1.00, 0.00, -0.00, -1.00, 796.2, 658.0)">i</text><text xml:space="preserve" font-family="FinancierDisplay-Regular" font-size="58.8" fill="#000000" transform="matrix(1.00, 0.00, -0.00, -1.00, 810.0, 658.0)">o</text><text xml:space="preserve" font-family="FinancierDisplay-Regular" font-size="58.8" fill="#000000" transform="matrix(1.00, 0.00, -0.00, -1.00, 836.7, 658.0)">n</text><image xlink:href="679BD5CCEB48AE5C2F3DAECDC6812A28.png" width="2880.00" height="1800.00" transform="matrix(0.29, 0.00, -0.00, -0.29, 97.5, 619.6)"></image><image xlink:href="../../1946552F-B853-40BA-94AE-646072BDE5D4/assets/7780F2C4D169BF8E5256951DDC405CF6.png" width="849.00" height="543.00" transform="matrix(1.00, 0.00, -0.00, 1.00, 87.5, 82.4)"></image></g></svg>