<?xml version="1.0" encoding="UTF-8" standalone="no"?><svg xmlns="http://www.w3.org/2000/svg" xmlns:xlink="http://www.w3.org/1999/xlink" clip-rule="evenodd" stroke-miterlimit="4.00" viewBox="0 0 1024 768"><desc>SVG generated by Keynote</desc><defs></defs><g transform="matrix(1.00, 0.00, -0.00, -1.00, 0.0, 768.0)"><path d="M 0.0 768.0 L 1024.0 768.0 L 1024.0 0.0 L 0.0 0.0 Z M 0.0 768.0 " fill="#FFF3E6"></path><g><clipPath id="clip-2571"><path d="M 910.0 75.0 L 1006.0 75.0 L 1006.0 22.0 L 910.0 22.0 Z M 910.0 75.0 "></path></clipPath><g clip-path="url(#clip-2571)"><g><clipPath id="clip-2572"><path d="M 910.0 22.0 L 1006.0 22.0 L 1006.0 75.0 L 910.0 75.0 Z M 910.0 22.0 "></path></clipPath><g clip-path="url(#clip-2572)"><path d="M 957.3 63.3 L 960.0 63.3 C 960.8 66.1 962.0 68.2 963.4 69.3 C 964.9 70.5 967.0 71.1 969.8 71.1 L 976.3 71.1 L 976.3 30.4 C 976.3 29.0 976.2 27.9 976.0 27.1 C 975.8 26.4 975.4 25.7 974.8 25.3 C 974.2 24.8 973.4 24.5 972.6 24.4 C 971.7 24.2 970.5 24.1 968.9 24.1 L 968.9 22.0 L 994.5 22.0 L 994.5 24.1 C 992.8 24.1 991.5 24.2 990.7 24.4 C 989.8 24.5 989.1 24.8 988.4 25.3 C 987.8 25.7 987.4 26.4 987.2 27.1 C 987.0 27.9 986.9 29.0 986.9 30.4 L 986.9 71.1 L 993.5 71.1 C 996.3 71.1 998.4 70.5 999.9 69.3 C 1001.3 68.2 1002.4 66.1 1003.3 63.3 L 1006.0 63.3 L 1004.9 75.0 L 958.6 75.0 Z M 910.0 22.0 L 935.3 22.0 L 935.3 24.1 C 933.6 24.1 932.3 24.2 931.4 24.4 C 930.5 24.5 929.7 24.8 929.1 25.3 C 928.4 25.7 928.0 26.4 927.8 27.1 C 927.6 27.9 927.5 29.0 927.5 30.4 L 927.5 47.7 L 931.5 47.7 C 935.0 47.7 937.6 47.2 939.3 46.1 C 940.9 45.0 942.0 42.9 942.6 39.9 L 944.6 39.9 L 944.6 58.6 L 942.6 58.6 C 942.2 56.6 941.7 55.1 941.0 54.2 C 940.4 53.2 939.3 52.5 937.9 52.1 C 936.4 51.7 934.3 51.4 931.5 51.4 L 927.5 51.4 L 927.5 68.4 C 927.5 69.5 927.7 70.2 928.1 70.6 C 928.5 70.9 929.3 71.1 930.4 71.1 L 938.5 71.1 C 941.1 71.1 943.3 71.0 944.9 70.8 C 946.5 70.5 947.8 70.1 948.8 69.4 C 949.9 68.7 950.7 67.9 951.2 67.0 C 951.8 66.1 952.3 64.9 952.8 63.3 L 955.0 63.3 L 954.7 75.0 L 910.1 75.0 L 910.1 73.0 C 911.6 72.9 912.7 72.8 913.4 72.7 C 914.2 72.5 914.8 72.2 915.4 71.8 C 916.0 71.3 916.4 70.7 916.6 69.9 C 916.8 69.1 916.9 68.0 916.9 66.6 L 916.9 30.4 C 916.9 29.0 916.8 27.9 916.6 27.1 C 916.4 26.4 916.0 25.7 915.4 25.3 C 914.8 24.8 914.2 24.5 913.4 24.4 C 912.6 24.2 911.5 24.1 910.0 24.1 Z M 910.0 22.0 " fill="#C6B5A9"></path></g></g></g></g><text xml:space="preserve" font-family="Metric-Semibold" font-weight="bold" font-size="24.0" fill="#9E2E50" transform="matrix(1.00, 0.00, -0.00, -1.00, 57.0, 670.0)">F</text><text xml:space="preserve" font-family="Metric-Semibold" font-weight="bold" font-size="24.0" fill="#9E2E50" transform="matrix(1.00, 0.00, -0.00, -1.00, 69.0, 670.0)">i</text><text xml:space="preserve" font-family="Metric-Semibold" font-weight="bold" font-size="24.0" fill="#9E2E50" transform="matrix(1.00, 0.00, -0.00, -1.00, 74.6, 670.0)">n</text><text xml:space="preserve" font-family="Metric-Semibold" font-weight="bold" font-size="24.0" fill="#9E2E50" transform="matrix(1.00, 0.00, -0.00, -1.00, 86.7, 670.0)">a</text><text xml:space="preserve" font-family="Metric-Semibold" font-weight="bold" font-size="24.0" fill="#9E2E50" transform="matrix(1.00, 0.00, -0.00, -1.00, 97.9, 670.0)">n</text><text xml:space="preserve" font-family="Metric-Semibold" font-weight="bold" font-size="24.0" fill="#9E2E50" transform="matrix(1.00, 0.00, -0.00, -1.00, 110.0, 670.0)">c</text><text xml:space="preserve" font-family="Metric-Semibold" font-weight="bold" font-size="24.0" fill="#9E2E50" transform="matrix(1.00, 0.00, -0.00, -1.00, 119.8, 670.0)">i</text><text xml:space="preserve" font-family="Metric-Semibold" font-weight="bold" font-size="24.0" fill="#9E2E50" transform="matrix(1.00, 0.00, -0.00, -1.00, 125.3, 670.0)">a</text><text xml:space="preserve" font-family="Metric-Semibold" font-weight="bold" font-size="24.0" fill="#9E2E50" transform="matrix(1.00, 0.00, -0.00, -1.00, 136.6, 670.0)">l</text><text xml:space="preserve" font-family="Metric-Semibold" font-weight="bold" font-size="24.0" fill="#9E2E50" transform="matrix(1.00, 0.00, -0.00, -1.00, 142.1, 670.0)"> </text><text xml:space="preserve" font-family="Metric-Semibold" font-weight="bold" font-size="24.0" fill="#9E2E50" transform="matrix(1.00, 0.00, -0.00, -1.00, 147.2, 670.0)">T</text><text xml:space="preserve" font-family="Metric-Semibold" font-weight="bold" font-size="24.0" fill="#9E2E50" transform="matrix(1.00, 0.00, -0.00, -1.00, 161.0, 670.0)">i</text><text xml:space="preserve" font-family="Metric-Semibold" font-weight="bold" font-size="24.0" fill="#9E2E50" transform="matrix(1.00, 0.00, -0.00, -1.00, 166.6, 670.0)">m</text><text xml:space="preserve" font-family="Metric-Semibold" font-weight="bold" font-size="24.0" fill="#9E2E50" transform="matrix(1.00, 0.00, -0.00, -1.00, 184.4, 670.0)">e</text><text xml:space="preserve" font-family="Metric-Semibold" font-weight="bold" font-size="24.0" fill="#9E2E50" transform="matrix(1.00, 0.00, -0.00, -1.00, 195.5, 670.0)">s</text><text xml:space="preserve" font-family="Metric-Semibold" font-weight="bold" font-size="24.0" fill="#9E2E50" transform="matrix(1.00, 0.00, -0.00, -1.00, 205.2, 670.0)"> </text><text xml:space="preserve" font-family="Metric-Semibold" font-weight="bold" font-size="24.0" fill="#9E2E50" transform="matrix(1.00, 0.00, -0.00, -1.00, 210.3, 670.0)">V</text><text xml:space="preserve" font-family="Metric-Semibold" font-weight="bold" font-size="24.0" fill="#9E2E50" transform="matrix(1.00, 0.00, -0.00, -1.00, 225.0, 670.0)">i</text><text xml:space="preserve" font-family="Metric-Semibold" font-weight="bold" font-size="24.0" fill="#9E2E50" transform="matrix(1.00, 0.00, -0.00, -1.00, 230.6, 670.0)">s</text><text xml:space="preserve" font-family="Metric-Semibold" font-weight="bold" font-size="24.0" fill="#9E2E50" transform="matrix(1.00, 0.00, -0.00, -1.00, 240.4, 670.0)">u</text><text xml:space="preserve" font-family="Metric-Semibold" font-weight="bold" font-size="24.0" fill="#9E2E50" transform="matrix(1.00, 0.00, -0.00, -1.00, 252.4, 670.0)">a</text><text xml:space="preserve" font-family="Metric-Semibold" font-weight="bold" font-size="24.0" fill="#9E2E50" transform="matrix(1.00, 0.00, -0.00, -1.00, 263.7, 670.0)">l</text><text xml:space="preserve" font-family="Metric-Semibold" font-weight="bold" font-size="24.0" fill="#9E2E50" transform="matrix(1.00, 0.00, -0.00, -1.00, 269.2, 670.0)"> </text><text xml:space="preserve" font-family="Metric-Semibold" font-weight="bold" font-size="24.0" fill="#9E2E50" transform="matrix(1.00, 0.00, -0.00, -1.00, 274.3, 670.0)">J</text><text xml:space="preserve" font-family="Metric-Semibold" font-weight="bold" font-size="24.0" fill="#9E2E50" transform="matrix(1.00, 0.00, -0.00, -1.00, 284.2, 670.0)">o</text><text xml:space="preserve" font-family="Metric-Semibold" font-weight="bold" font-size="24.0" fill="#9E2E50" transform="matrix(1.00, 0.00, -0.00, -1.00, 295.9, 670.0)">u</text><text xml:space="preserve" font-family="Metric-Semibold" font-weight="bold" font-size="24.0" fill="#9E2E50" transform="matrix(1.00, 0.00, -0.00, -1.00, 308.0, 670.0)">r</text><text xml:space="preserve" font-family="Metric-Semibold" font-weight="bold" font-size="24.0" fill="#9E2E50" transform="matrix(1.00, 0.00, -0.00, -1.00, 316.4, 670.0)">n</text><text xml:space="preserve" font-family="Metric-Semibold" font-weight="bold" font-size="24.0" fill="#9E2E50" transform="matrix(1.00, 0.00, -0.00, -1.00, 328.5, 670.0)">a</text><text xml:space="preserve" font-family="Metric-Semibold" font-weight="bold" font-size="24.0" fill="#9E2E50" transform="matrix(1.00, 0.00, -0.00, -1.00, 339.7, 670.0)">l</text><text xml:space="preserve" font-family="Metric-Semibold" font-weight="bold" font-size="24.0" fill="#9E2E50" transform="matrix(1.00, 0.00, -0.00, -1.00, 345.3, 670.0)">i</text><text xml:space="preserve" font-family="Metric-Semibold" font-weight="bold" font-size="24.0" fill="#9E2E50" transform="matrix(1.00, 0.00, -0.00, -1.00, 350.9, 670.0)">s</text><text xml:space="preserve" font-family="Metric-Semibold" font-weight="bold" font-size="24.0" fill="#9E2E50" transform="matrix(1.00, 0.00, -0.00, -1.00, 360.6, 670.0)">m</text><text xml:space="preserve" font-family="Metric-Semibold" font-weight="bold" font-size="24.0" fill="#9E2E50" transform="matrix(1.00, 0.00, -0.00, -1.00, 378.4, 670.0)"> </text><text xml:space="preserve" font-family="FinancierDisplay-Regular" font-size="60.0" fill="#000000" transform="matrix(1.00, 0.00, -0.00, -1.00, 57.0, 606.0)">M</text><text xml:space="preserve" font-family="FinancierDisplay-Regular" font-size="60.0" fill="#000000" transform="matrix(1.00, 0.00, -0.00, -1.00, 105.1, 606.0)">o</text><text xml:space="preserve" font-family="FinancierDisplay-Regular" font-size="60.0" fill="#000000" transform="matrix(1.00, 0.00, -0.00, -1.00, 132.2, 606.0)">b</text><text xml:space="preserve" font-family="FinancierDisplay-Regular" font-size="60.0" fill="#000000" transform="matrix(1.00, 0.00, -0.00, -1.00, 161.0, 606.0)">i</text><text xml:space="preserve" font-family="FinancierDisplay-Regular" font-size="60.0" fill="#000000" transform="matrix(1.00, 0.00, -0.00, -1.00, 175.2, 606.0)">l</text><text xml:space="preserve" font-family="FinancierDisplay-Regular" font-size="60.0" fill="#000000" transform="matrix(1.00, 0.00, -0.00, -1.00, 189.1, 606.0)">e</text><text xml:space="preserve" font-family="FinancierDisplay-Regular" font-size="60.0" fill="#000000" transform="matrix(1.00, 0.00, -0.00, -1.00, 214.4, 606.0)">-</text><text xml:space="preserve" font-family="FinancierDisplay-Regular" font-size="60.0" fill="#000000" transform="matrix(1.00, 0.00, -0.00, -1.00, 230.5, 606.0)">f</text><text xml:space="preserve" font-family="FinancierDisplay-Regular" font-size="60.0" fill="#000000" transform="matrix(1.00, 0.00, -0.00, -1.00, 246.7, 606.0)">r</text><text xml:space="preserve" font-family="FinancierDisplay-Regular" font-size="60.0" fill="#000000" transform="matrix(1.00, 0.00, -0.00, -1.00, 268.1, 606.0)">i</text><text xml:space="preserve" font-family="FinancierDisplay-Regular" font-size="60.0" fill="#000000" transform="matrix(1.00, 0.00, -0.00, -1.00, 282.3, 606.0)">e</text><text xml:space="preserve" font-family="FinancierDisplay-Regular" font-size="60.0" fill="#000000" transform="matrix(1.00, 0.00, -0.00, -1.00, 306.5, 606.0)">n</text><text xml:space="preserve" font-family="FinancierDisplay-Regular" font-size="60.0" fill="#000000" transform="matrix(1.00, 0.00, -0.00, -1.00, 336.4, 606.0)">d</text><text xml:space="preserve" font-family="FinancierDisplay-Regular" font-size="60.0" fill="#000000" transform="matrix(1.00, 0.00, -0.00, -1.00, 365.3, 606.0)">l</text><text xml:space="preserve" font-family="FinancierDisplay-Regular" font-size="60.0" fill="#000000" transform="matrix(1.00, 0.00, -0.00, -1.00, 378.4, 606.0)">y</text><text xml:space="preserve" font-family="FinancierDisplay-Regular" font-size="60.0" fill="#000000" transform="matrix(1.00, 0.00, -0.00, -1.00, 406.4, 606.0)"> </text><text xml:space="preserve" font-family="LucidaGrande" font-size="60.0" fill="#000000" transform="matrix(1.00, 0.00, -0.00, -1.00, 416.6, 606.0)"> </text><text xml:space="preserve" font-family="FinancierDisplay-Regular" font-size="60.0" fill="#000000" transform="matrix(1.00, 0.00, -0.00, -1.00, 57.0, 541.0)">d</text><text xml:space="preserve" font-family="FinancierDisplay-Regular" font-size="60.0" fill="#000000" transform="matrix(1.00, 0.00, -0.00, -1.00, 86.0, 541.0)">a</text><text xml:space="preserve" font-family="FinancierDisplay-Regular" font-size="60.0" fill="#000000" transform="matrix(1.00, 0.00, -0.00, -1.00, 110.8, 541.0)">t</text><text xml:space="preserve" font-family="FinancierDisplay-Regular" font-size="60.0" fill="#000000" transform="matrix(1.00, 0.00, -0.00, -1.00, 129.0, 541.0)">a</text><text xml:space="preserve" font-family="FinancierDisplay-Regular" font-size="60.0" fill="#000000" transform="matrix(1.00, 0.00, -0.00, -1.00, 153.8, 541.0)"> </text><text xml:space="preserve" font-family="FinancierDisplay-Regular" font-size="60.0" fill="#000000" transform="matrix(1.00, 0.00, -0.00, -1.00, 164.0, 541.0)">v</text><text xml:space="preserve" font-family="FinancierDisplay-Regular" font-size="60.0" fill="#000000" transform="matrix(1.00, 0.00, -0.00, -1.00, 192.0, 541.0)">i</text><text xml:space="preserve" font-family="FinancierDisplay-Regular" font-size="60.0" fill="#000000" transform="matrix(1.00, 0.00, -0.00, -1.00, 206.2, 541.0)">s</text><text xml:space="preserve" font-family="FinancierDisplay-Regular" font-size="60.0" fill="#000000" transform="matrix(1.00, 0.00, -0.00, -1.00, 227.2, 541.0)">u</text><text xml:space="preserve" font-family="FinancierDisplay-Regular" font-size="60.0" fill="#000000" transform="matrix(1.00, 0.00, -0.00, -1.00, 255.9, 541.0)">a</text><text xml:space="preserve" font-family="FinancierDisplay-Regular" font-size="60.0" fill="#000000" transform="matrix(1.00, 0.00, -0.00, -1.00, 280.7, 541.0)">l</text><text xml:space="preserve" font-family="FinancierDisplay-Regular" font-size="60.0" fill="#000000" transform="matrix(1.00, 0.00, -0.00, -1.00, 294.6, 541.0)">i</text><text xml:space="preserve" font-family="FinancierDisplay-Regular" font-size="60.0" fill="#000000" transform="matrix(1.00, 0.00, -0.00, -1.00, 308.8, 541.0)">s</text><text xml:space="preserve" font-family="FinancierDisplay-Regular" font-size="60.0" fill="#000000" transform="matrix(1.00, 0.00, -0.00, -1.00, 329.8, 541.0)">a</text><text xml:space="preserve" font-family="FinancierDisplay-Regular" font-size="60.0" fill="#000000" transform="matrix(1.00, 0.00, -0.00, -1.00, 354.6, 541.0)">t</text><text xml:space="preserve" font-family="FinancierDisplay-Regular" font-size="60.0" fill="#000000" transform="matrix(1.00, 0.00, -0.00, -1.00, 372.8, 541.0)">i</text><text xml:space="preserve" font-family="FinancierDisplay-Regular" font-size="60.0" fill="#000000" transform="matrix(1.00, 0.00, -0.00, -1.00, 387.0, 541.0)">o</text><text xml:space="preserve" font-family="FinancierDisplay-Regular" font-size="60.0" fill="#000000" transform="matrix(1.00, 0.00, -0.00, -1.00, 414.2, 541.0)">n</text><text xml:space="preserve" font-family="LucidaGrande" font-size="60.0" fill="#000000" transform="matrix(1.00, 0.00, -0.00, -1.00, 444.1, 541.0)"> </text><text xml:space="preserve" font-family="Metric-Semibold" font-weight="bold" font-size="36.0" fill="#000000" transform="matrix(1.00, 0.00, -0.00, -1.00, 59.0, 405.0)">M</text><text xml:space="preserve" font-family="Metric-Semibold" font-weight="bold" font-size="36.0" fill="#000000" transform="matrix(1.00, 0.00, -0.00, -1.00, 85.1, 405.0)">a</text><text xml:space="preserve" font-family="Metric-Semibold" font-weight="bold" font-size="36.0" fill="#000000" transform="matrix(1.00, 0.00, -0.00, -1.00, 101.9, 405.0)">r</text><text xml:space="preserve" font-family="Metric-Semibold" font-weight="bold" font-size="36.0" fill="#000000" transform="matrix(1.00, 0.00, -0.00, -1.00, 114.6, 405.0)">t</text><text xml:space="preserve" font-family="Metric-Semibold" font-weight="bold" font-size="36.0" fill="#000000" transform="matrix(1.00, 0.00, -0.00, -1.00, 127.0, 405.0)">i</text><text xml:space="preserve" font-family="Metric-Semibold" font-weight="bold" font-size="36.0" fill="#000000" transform="matrix(1.00, 0.00, -0.00, -1.00, 135.4, 405.0)">n</text><text xml:space="preserve" font-family="Metric-Semibold" font-weight="bold" font-size="36.0" fill="#000000" transform="matrix(1.00, 0.00, -0.00, -1.00, 153.6, 405.0)"> </text><text xml:space="preserve" font-family="Metric-Semibold" font-weight="bold" font-size="36.0" fill="#000000" transform="matrix(1.00, 0.00, -0.00, -1.00, 161.2, 405.0)">S</text><text xml:space="preserve" font-family="Metric-Semibold" font-weight="bold" font-size="36.0" fill="#000000" transform="matrix(1.00, 0.00, -0.00, -1.00, 179.0, 405.0)">t</text><text xml:space="preserve" font-family="Metric-Semibold" font-weight="bold" font-size="36.0" fill="#000000" transform="matrix(1.00, 0.00, -0.00, -1.00, 191.0, 405.0)">a</text><text xml:space="preserve" font-family="Metric-Semibold" font-weight="bold" font-size="36.0" fill="#000000" transform="matrix(1.00, 0.00, -0.00, -1.00, 207.8, 405.0)">b</text><text xml:space="preserve" font-family="Metric-Semibold" font-weight="bold" font-size="36.0" fill="#000000" transform="matrix(1.00, 0.00, -0.00, -1.00, 226.7, 405.0)">e</text><text xml:space="preserve" font-family="Metric-Semibold" font-weight="bold" font-size="36.0" fill="#000000" transform="matrix(1.00, 0.00, -0.00, -1.00, 243.2, 405.0)"> </text><text xml:space="preserve" font-family="Metric-Regular" font-size="36.0" fill="#000000" transform="matrix(1.00, 0.00, -0.00, -1.00, 59.0, 362.0)">H</text><text xml:space="preserve" font-family="Metric-Regular" font-size="36.0" fill="#000000" transform="matrix(1.00, 0.00, -0.00, -1.00, 82.4, 362.0)">e</text><text xml:space="preserve" font-family="Metric-Regular" font-size="36.0" fill="#000000" transform="matrix(1.00, 0.00, -0.00, -1.00, 98.6, 362.0)">a</text><text xml:space="preserve" font-family="Metric-Regular" font-size="36.0" fill="#000000" transform="matrix(1.00, 0.00, -0.00, -1.00, 114.8, 362.0)">d</text><text xml:space="preserve" font-family="Metric-Regular" font-size="36.0" fill="#000000" transform="matrix(1.00, 0.00, -0.00, -1.00, 132.8, 362.0)"> </text><text xml:space="preserve" font-family="Metric-Regular" font-size="36.0" fill="#000000" transform="matrix(1.00, 0.00, -0.00, -1.00, 140.8, 362.0)">o</text><text xml:space="preserve" font-family="Metric-Regular" font-size="36.0" fill="#000000" transform="matrix(1.00, 0.00, -0.00, -1.00, 158.0, 362.0)">f</text><text xml:space="preserve" font-family="Metric-Regular" font-size="36.0" fill="#000000" transform="matrix(1.00, 0.00, -0.00, -1.00, 168.4, 362.0)"> </text><text xml:space="preserve" font-family="Metric-Regular" font-size="36.0" fill="#000000" transform="matrix(1.00, 0.00, -0.00, -1.00, 176.4, 362.0)">I</text><text xml:space="preserve" font-family="Metric-Regular" font-size="36.0" fill="#000000" transform="matrix(1.00, 0.00, -0.00, -1.00, 184.5, 362.0)">n</text><text xml:space="preserve" font-family="Metric-Regular" font-size="36.0" fill="#000000" transform="matrix(1.00, 0.00, -0.00, -1.00, 202.1, 362.0)">t</text><text xml:space="preserve" font-family="Metric-Regular" font-size="36.0" fill="#000000" transform="matrix(1.00, 0.00, -0.00, -1.00, 213.2, 362.0)">e</text><text xml:space="preserve" font-family="Metric-Regular" font-size="36.0" fill="#000000" transform="matrix(1.00, 0.00, -0.00, -1.00, 229.4, 362.0)">r</text><text xml:space="preserve" font-family="Metric-Regular" font-size="36.0" fill="#000000" transform="matrix(1.00, 0.00, -0.00, -1.00, 240.5, 362.0)">a</text><text xml:space="preserve" font-family="Metric-Regular" font-size="36.0" fill="#000000" transform="matrix(1.00, 0.00, -0.00, -1.00, 256.7, 362.0)">c</text><text xml:space="preserve" font-family="Metric-Regular" font-size="36.0" fill="#000000" transform="matrix(1.00, 0.00, -0.00, -1.00, 271.3, 362.0)">t</text><text xml:space="preserve" font-family="Metric-Regular" font-size="36.0" fill="#000000" transform="matrix(1.00, 0.00, -0.00, -1.00, 282.8, 362.0)">i</text><text xml:space="preserve" font-family="Metric-Regular" font-size="36.0" fill="#000000" transform="matrix(1.00, 0.00, -0.00, -1.00, 290.3, 362.0)">v</text><text xml:space="preserve" font-family="Metric-Regular" font-size="36.0" fill="#000000" transform="matrix(1.00, 0.00, -0.00, -1.00, 306.4, 362.0)">e</text><text xml:space="preserve" font-family="Metric-Regular" font-size="36.0" fill="#000000" transform="matrix(1.00, 0.00, -0.00, -1.00, 322.6, 362.0)"> </text><text xml:space="preserve" font-family="Metric-Regular" font-size="36.0" fill="#000000" transform="matrix(1.00, 0.00, -0.00, -1.00, 330.5, 362.0)">N</text><text xml:space="preserve" font-family="Metric-Regular" font-size="36.0" fill="#000000" transform="matrix(1.00, 0.00, -0.00, -1.00, 353.0, 362.0)">e</text><text xml:space="preserve" font-family="Metric-Regular" font-size="36.0" fill="#000000" transform="matrix(1.00, 0.00, -0.00, -1.00, 369.2, 362.0)">w</text><text xml:space="preserve" font-family="Metric-Regular" font-size="36.0" fill="#000000" transform="matrix(1.00, 0.00, -0.00, -1.00, 391.8, 362.0)">s</text><text xml:space="preserve" font-family="Metric-Regular" font-size="36.0" fill="#000000" transform="matrix(1.00, 0.00, -0.00, -1.00, 406.0, 362.0)"> </text><text xml:space="preserve" font-family="Metric-RegularItalic" font-style="italic" font-size="36.0" fill="#000000" transform="matrix(1.00, 0.00, -0.00, -1.00, 59.0, 319.0)">@</text><text xml:space="preserve" font-family="Metric-RegularItalic" font-style="italic" font-size="36.0" fill="#000000" transform="matrix(1.00, 0.00, -0.00, -1.00, 86.9, 319.0)">m</text><text xml:space="preserve" font-family="Metric-RegularItalic" font-style="italic" font-size="36.0" fill="#000000" transform="matrix(1.00, 0.00, -0.00, -1.00, 112.7, 319.0)">a</text><text xml:space="preserve" font-family="Metric-RegularItalic" font-style="italic" font-size="36.0" fill="#000000" transform="matrix(1.00, 0.00, -0.00, -1.00, 128.9, 319.0)">r</text><text xml:space="preserve" font-family="Metric-RegularItalic" font-style="italic" font-size="36.0" fill="#000000" transform="matrix(1.00, 0.00, -0.00, -1.00, 140.6, 319.0)">t</text><text xml:space="preserve" font-family="Metric-RegularItalic" font-style="italic" font-size="36.0" fill="#000000" transform="matrix(1.00, 0.00, -0.00, -1.00, 152.0, 319.0)">i</text><text xml:space="preserve" font-family="Metric-RegularItalic" font-style="italic" font-size="36.0" fill="#000000" transform="matrix(1.00, 0.00, -0.00, -1.00, 159.5, 319.0)">n</text><text xml:space="preserve" font-family="Metric-RegularItalic" font-style="italic" font-size="36.0" fill="#000000" transform="matrix(1.00, 0.00, -0.00, -1.00, 177.2, 319.0)">s</text><text xml:space="preserve" font-family="Metric-RegularItalic" font-style="italic" font-size="36.0" fill="#000000" transform="matrix(1.00, 0.00, -0.00, -1.00, 191.1, 319.0)">t</text><text xml:space="preserve" font-family="Metric-RegularItalic" font-style="italic" font-size="36.0" fill="#000000" transform="matrix(1.00, 0.00, -0.00, -1.00, 202.4, 319.0)">a</text><text xml:space="preserve" font-family="Metric-RegularItalic" font-style="italic" font-size="36.0" fill="#000000" transform="matrix(1.00, 0.00, -0.00, -1.00, 218.7, 319.0)">b</text><text xml:space="preserve" font-family="Metric-RegularItalic" font-style="italic" font-size="36.0" fill="#000000" transform="matrix(1.00, 0.00, -0.00, -1.00, 236.8, 319.0)">e</text><text xml:space="preserve" font-family="Metric-Semibold" font-weight="bold" font-size="30.0" fill="#000000" transform="matrix(1.00, 0.00, -0.00, -1.00, 59.0, 134.0)">N</text><text xml:space="preserve" font-family="Metric-Semibold" font-weight="bold" font-size="30.0" fill="#000000" transform="matrix(1.00, 0.00, -0.00, -1.00, 78.0, 134.0)">e</text><text xml:space="preserve" font-family="Metric-Semibold" font-weight="bold" font-size="30.0" fill="#000000" transform="matrix(1.00, 0.00, -0.00, -1.00, 91.6, 134.0)">w</text><text xml:space="preserve" font-family="Metric-Semibold" font-weight="bold" font-size="30.0" fill="#000000" transform="matrix(1.00, 0.00, -0.00, -1.00, 111.8, 134.0)">s</text><text xml:space="preserve" font-family="Metric-Semibold" font-weight="bold" font-size="30.0" fill="#000000" transform="matrix(1.00, 0.00, -0.00, -1.00, 123.9, 134.0)">:</text><text xml:space="preserve" font-family="Metric-Semibold" font-weight="bold" font-size="30.0" fill="#000000" transform="matrix(1.00, 0.00, -0.00, -1.00, 130.2, 134.0)">R</text><text xml:space="preserve" font-family="Metric-Semibold" font-weight="bold" font-size="30.0" fill="#000000" transform="matrix(1.00, 0.00, -0.00, -1.00, 147.0, 134.0)">e</text><text xml:space="preserve" font-family="Metric-Semibold" font-weight="bold" font-size="30.0" fill="#000000" transform="matrix(1.00, 0.00, -0.00, -1.00, 160.7, 134.0)">w</text><text xml:space="preserve" font-family="Metric-Semibold" font-weight="bold" font-size="30.0" fill="#000000" transform="matrix(1.00, 0.00, -0.00, -1.00, 180.8, 134.0)">i</text><text xml:space="preserve" font-family="Metric-Semibold" font-weight="bold" font-size="30.0" fill="#000000" transform="matrix(1.00, 0.00, -0.00, -1.00, 187.8, 134.0)">r</text><text xml:space="preserve" font-family="Metric-Semibold" font-weight="bold" font-size="30.0" fill="#000000" transform="matrix(1.00, 0.00, -0.00, -1.00, 198.0, 134.0)">e</text><text xml:space="preserve" font-family="Metric-Semibold" font-weight="bold" font-size="30.0" fill="#000000" transform="matrix(1.00, 0.00, -0.00, -1.00, 211.8, 134.0)">d</text><text xml:space="preserve" font-family="Metric-Semibold" font-weight="bold" font-size="30.0" fill="#000000" transform="matrix(1.00, 0.00, -0.00, -1.00, 227.4, 134.0)"> </text><text xml:space="preserve" font-family="Metric-Regular" font-size="30.0" fill="#000000" transform="matrix(1.00, 0.00, -0.00, -1.00, 59.0, 97.0)">F</text><text xml:space="preserve" font-family="Metric-Regular" font-size="30.0" fill="#000000" transform="matrix(1.00, 0.00, -0.00, -1.00, 73.2, 97.0)">e</text><text xml:space="preserve" font-family="Metric-Regular" font-size="30.0" fill="#000000" transform="matrix(1.00, 0.00, -0.00, -1.00, 86.7, 97.0)">b</text><text xml:space="preserve" font-family="Metric-Regular" font-size="30.0" fill="#000000" transform="matrix(1.00, 0.00, -0.00, -1.00, 101.8, 97.0)">r</text><text xml:space="preserve" font-family="Metric-Regular" font-size="30.0" fill="#000000" transform="matrix(1.00, 0.00, -0.00, -1.00, 111.4, 97.0)">u</text><text xml:space="preserve" font-family="Metric-Regular" font-size="30.0" fill="#000000" transform="matrix(1.00, 0.00, -0.00, -1.00, 126.0, 97.0)">a</text><text xml:space="preserve" font-family="Metric-Regular" font-size="30.0" fill="#000000" transform="matrix(1.00, 0.00, -0.00, -1.00, 139.4, 97.0)">r</text><text xml:space="preserve" font-family="Metric-Regular" font-size="30.0" fill="#000000" transform="matrix(1.00, 0.00, -0.00, -1.00, 149.1, 97.0)">y</text><text xml:space="preserve" font-family="Metric-Regular" font-size="30.0" fill="#000000" transform="matrix(1.00, 0.00, -0.00, -1.00, 162.7, 97.0)"> </text><text xml:space="preserve" font-family="Metric-Regular" font-size="30.0" fill="#000000" transform="matrix(1.00, 0.00, -0.00, -1.00, 169.3, 97.0)">8</text><text xml:space="preserve" font-family="Metric-Regular" font-size="30.0" fill="#000000" transform="matrix(1.00, 0.00, -0.00, -1.00, 183.9, 97.0)">,</text><text xml:space="preserve" font-family="Metric-Regular" font-size="30.0" fill="#000000" transform="matrix(1.00, 0.00, -0.00, -1.00, 189.0, 97.0)"> </text><text xml:space="preserve" font-family="Metric-Regular" font-size="30.0" fill="#000000" transform="matrix(1.00, 0.00, -0.00, -1.00, 195.6, 97.0)">2</text><text xml:space="preserve" font-family="Metric-Regular" font-size="30.0" fill="#000000" transform="matrix(1.00, 0.00, -0.00, -1.00, 208.9, 97.0)">0</text><text xml:space="preserve" font-family="Metric-Regular" font-size="30.0" fill="#000000" transform="matrix(1.00, 0.00, -0.00, -1.00, 225.1, 97.0)">1</text><text xml:space="preserve" font-family="Metric-Regular" font-size="30.0" fill="#000000" transform="matrix(1.00, 0.00, -0.00, -1.00, 234.9, 97.0)">7</text></g></svg>